%TF.GenerationSoftware,KiCad,Pcbnew,8.0.1*%
%TF.CreationDate,2024-05-02T10:16:12-03:00*%
%TF.ProjectId,Sdqf,53647166-2e6b-4696-9361-645f70636258,rev?*%
%TF.SameCoordinates,Original*%
%TF.FileFunction,Legend,Bot*%
%TF.FilePolarity,Positive*%
%FSLAX46Y46*%
G04 Gerber Fmt 4.6, Leading zero omitted, Abs format (unit mm)*
G04 Created by KiCad (PCBNEW 8.0.1) date 2024-05-02 10:16:12*
%MOMM*%
%LPD*%
G01*
G04 APERTURE LIST*
%ADD10C,0.250000*%
%ADD11C,0.120000*%
G04 APERTURE END LIST*
D10*
X147890869Y-93359711D02*
X148890869Y-93693044D01*
X148890869Y-93693044D02*
X147890869Y-94026377D01*
X148795630Y-94931139D02*
X148843250Y-94883520D01*
X148843250Y-94883520D02*
X148890869Y-94740663D01*
X148890869Y-94740663D02*
X148890869Y-94645425D01*
X148890869Y-94645425D02*
X148843250Y-94502568D01*
X148843250Y-94502568D02*
X148748011Y-94407330D01*
X148748011Y-94407330D02*
X148652773Y-94359711D01*
X148652773Y-94359711D02*
X148462297Y-94312092D01*
X148462297Y-94312092D02*
X148319440Y-94312092D01*
X148319440Y-94312092D02*
X148128964Y-94359711D01*
X148128964Y-94359711D02*
X148033726Y-94407330D01*
X148033726Y-94407330D02*
X147938488Y-94502568D01*
X147938488Y-94502568D02*
X147890869Y-94645425D01*
X147890869Y-94645425D02*
X147890869Y-94740663D01*
X147890869Y-94740663D02*
X147938488Y-94883520D01*
X147938488Y-94883520D02*
X147986107Y-94931139D01*
X148795630Y-95931139D02*
X148843250Y-95883520D01*
X148843250Y-95883520D02*
X148890869Y-95740663D01*
X148890869Y-95740663D02*
X148890869Y-95645425D01*
X148890869Y-95645425D02*
X148843250Y-95502568D01*
X148843250Y-95502568D02*
X148748011Y-95407330D01*
X148748011Y-95407330D02*
X148652773Y-95359711D01*
X148652773Y-95359711D02*
X148462297Y-95312092D01*
X148462297Y-95312092D02*
X148319440Y-95312092D01*
X148319440Y-95312092D02*
X148128964Y-95359711D01*
X148128964Y-95359711D02*
X148033726Y-95407330D01*
X148033726Y-95407330D02*
X147938488Y-95502568D01*
X147938488Y-95502568D02*
X147890869Y-95645425D01*
X147890869Y-95645425D02*
X147890869Y-95740663D01*
X147890869Y-95740663D02*
X147938488Y-95883520D01*
X147938488Y-95883520D02*
X147986107Y-95931139D01*
X145398488Y-94126377D02*
X145350869Y-94031139D01*
X145350869Y-94031139D02*
X145350869Y-93888282D01*
X145350869Y-93888282D02*
X145398488Y-93745425D01*
X145398488Y-93745425D02*
X145493726Y-93650187D01*
X145493726Y-93650187D02*
X145588964Y-93602568D01*
X145588964Y-93602568D02*
X145779440Y-93554949D01*
X145779440Y-93554949D02*
X145922297Y-93554949D01*
X145922297Y-93554949D02*
X146112773Y-93602568D01*
X146112773Y-93602568D02*
X146208011Y-93650187D01*
X146208011Y-93650187D02*
X146303250Y-93745425D01*
X146303250Y-93745425D02*
X146350869Y-93888282D01*
X146350869Y-93888282D02*
X146350869Y-93983520D01*
X146350869Y-93983520D02*
X146303250Y-94126377D01*
X146303250Y-94126377D02*
X146255630Y-94173996D01*
X146255630Y-94173996D02*
X145922297Y-94173996D01*
X145922297Y-94173996D02*
X145922297Y-93983520D01*
X146350869Y-94602568D02*
X145350869Y-94602568D01*
X145350869Y-94602568D02*
X146350869Y-95173996D01*
X146350869Y-95173996D02*
X145350869Y-95173996D01*
X146350869Y-95650187D02*
X145350869Y-95650187D01*
X145350869Y-95650187D02*
X145350869Y-95888282D01*
X145350869Y-95888282D02*
X145398488Y-96031139D01*
X145398488Y-96031139D02*
X145493726Y-96126377D01*
X145493726Y-96126377D02*
X145588964Y-96173996D01*
X145588964Y-96173996D02*
X145779440Y-96221615D01*
X145779440Y-96221615D02*
X145922297Y-96221615D01*
X145922297Y-96221615D02*
X146112773Y-96173996D01*
X146112773Y-96173996D02*
X146208011Y-96126377D01*
X146208011Y-96126377D02*
X146303250Y-96031139D01*
X146303250Y-96031139D02*
X146350869Y-95888282D01*
X146350869Y-95888282D02*
X146350869Y-95650187D01*
X140270869Y-93602568D02*
X141080392Y-93602568D01*
X141080392Y-93602568D02*
X141175630Y-93650187D01*
X141175630Y-93650187D02*
X141223250Y-93697806D01*
X141223250Y-93697806D02*
X141270869Y-93793044D01*
X141270869Y-93793044D02*
X141270869Y-93983520D01*
X141270869Y-93983520D02*
X141223250Y-94078758D01*
X141223250Y-94078758D02*
X141175630Y-94126377D01*
X141175630Y-94126377D02*
X141080392Y-94173996D01*
X141080392Y-94173996D02*
X140270869Y-94173996D01*
X141270869Y-95221615D02*
X140794678Y-94888282D01*
X141270869Y-94650187D02*
X140270869Y-94650187D01*
X140270869Y-94650187D02*
X140270869Y-95031139D01*
X140270869Y-95031139D02*
X140318488Y-95126377D01*
X140318488Y-95126377D02*
X140366107Y-95173996D01*
X140366107Y-95173996D02*
X140461345Y-95221615D01*
X140461345Y-95221615D02*
X140604202Y-95221615D01*
X140604202Y-95221615D02*
X140699440Y-95173996D01*
X140699440Y-95173996D02*
X140747059Y-95126377D01*
X140747059Y-95126377D02*
X140794678Y-95031139D01*
X140794678Y-95031139D02*
X140794678Y-94650187D01*
X142810869Y-93459711D02*
X142810869Y-94031139D01*
X143810869Y-93745425D02*
X142810869Y-93745425D01*
X143810869Y-94364473D02*
X142810869Y-94364473D01*
X142810869Y-94364473D02*
X142810869Y-94745425D01*
X142810869Y-94745425D02*
X142858488Y-94840663D01*
X142858488Y-94840663D02*
X142906107Y-94888282D01*
X142906107Y-94888282D02*
X143001345Y-94935901D01*
X143001345Y-94935901D02*
X143144202Y-94935901D01*
X143144202Y-94935901D02*
X143239440Y-94888282D01*
X143239440Y-94888282D02*
X143287059Y-94840663D01*
X143287059Y-94840663D02*
X143334678Y-94745425D01*
X143334678Y-94745425D02*
X143334678Y-94364473D01*
D11*
%TO.C,J5*%
X139350000Y-87275000D02*
X149630000Y-87275000D01*
X139350000Y-89935000D02*
X139350000Y-87275000D01*
X140300000Y-81275000D02*
X140300000Y-87275000D01*
X140300000Y-90332071D02*
X140300000Y-89935000D01*
X141060000Y-81275000D02*
X140300000Y-81275000D01*
X141060000Y-87275000D02*
X141060000Y-81275000D01*
X141060000Y-90332071D02*
X141060000Y-89935000D01*
X141950000Y-89935000D02*
X141950000Y-87275000D01*
X142840000Y-81275000D02*
X142840000Y-87275000D01*
X142840000Y-90332071D02*
X142840000Y-89935000D01*
X143600000Y-81275000D02*
X142840000Y-81275000D01*
X143600000Y-87275000D02*
X143600000Y-81275000D01*
X143600000Y-90332071D02*
X143600000Y-89935000D01*
X144490000Y-89935000D02*
X144490000Y-87275000D01*
X145380000Y-81275000D02*
X145380000Y-87275000D01*
X145380000Y-90332071D02*
X145380000Y-89935000D01*
X146140000Y-81275000D02*
X145380000Y-81275000D01*
X146140000Y-87275000D02*
X146140000Y-81275000D01*
X146140000Y-90332071D02*
X146140000Y-89935000D01*
X147030000Y-89935000D02*
X147030000Y-87275000D01*
X147920000Y-81275000D02*
X147920000Y-87275000D01*
X147920000Y-90265000D02*
X147920000Y-89935000D01*
X148020000Y-87275000D02*
X148020000Y-81275000D01*
X148140000Y-87275000D02*
X148140000Y-81275000D01*
X148260000Y-87275000D02*
X148260000Y-81275000D01*
X148300000Y-92645000D02*
X149570000Y-92645000D01*
X148380000Y-87275000D02*
X148380000Y-81275000D01*
X148500000Y-87275000D02*
X148500000Y-81275000D01*
X148620000Y-87275000D02*
X148620000Y-81275000D01*
X148680000Y-81275000D02*
X147920000Y-81275000D01*
X148680000Y-87275000D02*
X148680000Y-81275000D01*
X148680000Y-90265000D02*
X148680000Y-89935000D01*
X149570000Y-92645000D02*
X149570000Y-91375000D01*
X149630000Y-87275000D02*
X149630000Y-89935000D01*
X149630000Y-89935000D02*
X139350000Y-89935000D01*
%TD*%
M02*
