%TF.GenerationSoftware,KiCad,Pcbnew,8.0.1*%
%TF.CreationDate,2024-05-02T10:16:12-03:00*%
%TF.ProjectId,Sdqf,53647166-2e6b-4696-9361-645f70636258,rev?*%
%TF.SameCoordinates,Original*%
%TF.FileFunction,Copper,L1,Top*%
%TF.FilePolarity,Positive*%
%FSLAX46Y46*%
G04 Gerber Fmt 4.6, Leading zero omitted, Abs format (unit mm)*
G04 Created by KiCad (PCBNEW 8.0.1) date 2024-05-02 10:16:12*
%MOMM*%
%LPD*%
G01*
G04 APERTURE LIST*
G04 Aperture macros list*
%AMRoundRect*
0 Rectangle with rounded corners*
0 $1 Rounding radius*
0 $2 $3 $4 $5 $6 $7 $8 $9 X,Y pos of 4 corners*
0 Add a 4 corners polygon primitive as box body*
4,1,4,$2,$3,$4,$5,$6,$7,$8,$9,$2,$3,0*
0 Add four circle primitives for the rounded corners*
1,1,$1+$1,$2,$3*
1,1,$1+$1,$4,$5*
1,1,$1+$1,$6,$7*
1,1,$1+$1,$8,$9*
0 Add four rect primitives between the rounded corners*
20,1,$1+$1,$2,$3,$4,$5,0*
20,1,$1+$1,$4,$5,$6,$7,0*
20,1,$1+$1,$6,$7,$8,$9,0*
20,1,$1+$1,$8,$9,$2,$3,0*%
G04 Aperture macros list end*
%TA.AperFunction,ComponentPad*%
%ADD10R,1.500000X1.050000*%
%TD*%
%TA.AperFunction,ComponentPad*%
%ADD11O,1.500000X1.050000*%
%TD*%
%TA.AperFunction,SMDPad,CuDef*%
%ADD12R,0.800000X0.900000*%
%TD*%
%TA.AperFunction,SMDPad,CuDef*%
%ADD13RoundRect,0.225000X0.250000X-0.225000X0.250000X0.225000X-0.250000X0.225000X-0.250000X-0.225000X0*%
%TD*%
%TA.AperFunction,SMDPad,CuDef*%
%ADD14RoundRect,0.225000X-0.225000X-0.250000X0.225000X-0.250000X0.225000X0.250000X-0.225000X0.250000X0*%
%TD*%
%TA.AperFunction,SMDPad,CuDef*%
%ADD15RoundRect,0.250000X-0.475000X0.250000X-0.475000X-0.250000X0.475000X-0.250000X0.475000X0.250000X0*%
%TD*%
%TA.AperFunction,SMDPad,CuDef*%
%ADD16RoundRect,0.150000X0.587500X0.150000X-0.587500X0.150000X-0.587500X-0.150000X0.587500X-0.150000X0*%
%TD*%
%TA.AperFunction,SMDPad,CuDef*%
%ADD17RoundRect,0.150000X-0.150000X0.825000X-0.150000X-0.825000X0.150000X-0.825000X0.150000X0.825000X0*%
%TD*%
%TA.AperFunction,SMDPad,CuDef*%
%ADD18R,0.550000X1.600000*%
%TD*%
%TA.AperFunction,SMDPad,CuDef*%
%ADD19R,1.600000X0.550000*%
%TD*%
%TA.AperFunction,SMDPad,CuDef*%
%ADD20R,1.800000X2.500000*%
%TD*%
%TA.AperFunction,ComponentPad*%
%ADD21R,2.600000X2.600000*%
%TD*%
%TA.AperFunction,ComponentPad*%
%ADD22C,2.600000*%
%TD*%
%TA.AperFunction,SMDPad,CuDef*%
%ADD23RoundRect,0.250000X0.450000X-0.262500X0.450000X0.262500X-0.450000X0.262500X-0.450000X-0.262500X0*%
%TD*%
%TA.AperFunction,SMDPad,CuDef*%
%ADD24RoundRect,0.250000X0.475000X-0.250000X0.475000X0.250000X-0.475000X0.250000X-0.475000X-0.250000X0*%
%TD*%
%TA.AperFunction,SMDPad,CuDef*%
%ADD25RoundRect,0.250000X-0.250000X-0.475000X0.250000X-0.475000X0.250000X0.475000X-0.250000X0.475000X0*%
%TD*%
%TA.AperFunction,ComponentPad*%
%ADD26O,1.700000X1.700000*%
%TD*%
%TA.AperFunction,ComponentPad*%
%ADD27R,1.700000X1.700000*%
%TD*%
%TA.AperFunction,SMDPad,CuDef*%
%ADD28R,0.250000X1.100000*%
%TD*%
%TA.AperFunction,SMDPad,CuDef*%
%ADD29RoundRect,0.250000X-0.450000X0.262500X-0.450000X-0.262500X0.450000X-0.262500X0.450000X0.262500X0*%
%TD*%
%TA.AperFunction,SMDPad,CuDef*%
%ADD30RoundRect,0.250000X-0.262500X-0.450000X0.262500X-0.450000X0.262500X0.450000X-0.262500X0.450000X0*%
%TD*%
%TA.AperFunction,SMDPad,CuDef*%
%ADD31RoundRect,0.150000X-0.150000X0.587500X-0.150000X-0.587500X0.150000X-0.587500X0.150000X0.587500X0*%
%TD*%
%TA.AperFunction,SMDPad,CuDef*%
%ADD32RoundRect,0.250000X0.250000X0.475000X-0.250000X0.475000X-0.250000X-0.475000X0.250000X-0.475000X0*%
%TD*%
%TA.AperFunction,ViaPad*%
%ADD33C,0.800000*%
%TD*%
%TA.AperFunction,Conductor*%
%ADD34C,0.500000*%
%TD*%
%TA.AperFunction,Conductor*%
%ADD35C,0.750000*%
%TD*%
%TA.AperFunction,Conductor*%
%ADD36C,0.600000*%
%TD*%
%TA.AperFunction,Conductor*%
%ADD37C,1.000000*%
%TD*%
%TA.AperFunction,Conductor*%
%ADD38C,0.250000*%
%TD*%
%TA.AperFunction,Conductor*%
%ADD39C,0.200000*%
%TD*%
%TA.AperFunction,Conductor*%
%ADD40C,0.650000*%
%TD*%
G04 APERTURE END LIST*
D10*
%TO.P,U1,1,VO*%
%TO.N,+5V*%
X161240000Y-84830000D03*
D11*
%TO.P,U1,2,GND*%
%TO.N,GND*%
X161240000Y-86100000D03*
%TO.P,U1,3,VI*%
%TO.N,Net-(D1-K)*%
X161240000Y-87370000D03*
%TD*%
D12*
%TO.P,Y1,4,4*%
%TO.N,unconnected-(Y1-Pad4)*%
X148550000Y-70700000D03*
%TO.P,Y1,3,3*%
%TO.N,Net-(U2-XTAL1{slash}PB6)*%
X148550000Y-72100000D03*
%TO.P,Y1,2,2*%
%TO.N,unconnected-(Y1-Pad2)*%
X147450000Y-72100000D03*
%TO.P,Y1,1,1*%
%TO.N,Net-(U2-XTAL2{slash}PB7)*%
X147450000Y-70700000D03*
%TD*%
D13*
%TO.P,C12,2*%
%TO.N,GND*%
X150200000Y-70550000D03*
%TO.P,C12,1*%
%TO.N,Net-(U2-XTAL1{slash}PB6)*%
X150200000Y-72100000D03*
%TD*%
D14*
%TO.P,C2,2*%
%TO.N,GND*%
X149000000Y-69000000D03*
%TO.P,C2,1*%
%TO.N,Net-(U2-XTAL2{slash}PB7)*%
X147450000Y-69000000D03*
%TD*%
D15*
%TO.P,C7,2*%
%TO.N,GND*%
X147700000Y-77450000D03*
%TO.P,C7,1*%
%TO.N,+5V*%
X147700000Y-75550000D03*
%TD*%
%TO.P,C6,1*%
%TO.N,+5V*%
X158200000Y-84830000D03*
%TO.P,C6,2*%
%TO.N,GND*%
X158200000Y-86730000D03*
%TD*%
D16*
%TO.P,D2,1,K1*%
%TO.N,Net-(D1-K)*%
X158400000Y-91900000D03*
%TO.P,D2,2,K2*%
X158400000Y-90000000D03*
%TO.P,D2,3,A*%
%TO.N,GND*%
X156525000Y-90950000D03*
%TD*%
D17*
%TO.P,U3,1,RO*%
%TO.N,RX*%
X136805000Y-82725000D03*
%TO.P,U3,2,~{RE}*%
%TO.N,485_EN*%
X135535000Y-82725000D03*
%TO.P,U3,3,DE*%
X134265000Y-82725000D03*
%TO.P,U3,4,DI*%
%TO.N,TX*%
X132995000Y-82725000D03*
%TO.P,U3,5,GND*%
%TO.N,GND*%
X132995000Y-87675000D03*
%TO.P,U3,6,A*%
%TO.N,485_A*%
X134265000Y-87675000D03*
%TO.P,U3,7,B*%
%TO.N,485_B*%
X135535000Y-87675000D03*
%TO.P,U3,8,VCC*%
%TO.N,+5V*%
X136805000Y-87675000D03*
%TD*%
D18*
%TO.P,U2,32,PD2*%
%TO.N,RX_CAL*%
X144000000Y-79450000D03*
%TO.P,U2,31,PD1*%
%TO.N,TX*%
X143200000Y-79450000D03*
%TO.P,U2,30,PD0*%
%TO.N,RX*%
X142400000Y-79450000D03*
%TO.P,U2,29,~{RESET}/PC6*%
%TO.N,RESET*%
X141600000Y-79450000D03*
%TO.P,U2,28,PC5*%
%TO.N,SCL*%
X140800000Y-79450000D03*
%TO.P,U2,27,PC4*%
%TO.N,SDA*%
X140000000Y-79450000D03*
%TO.P,U2,26,PC3*%
%TO.N,unconnected-(U2-PC3-Pad26)*%
X139200000Y-79450000D03*
%TO.P,U2,25,PC2*%
%TO.N,unconnected-(U2-PC2-Pad25)*%
X138400000Y-79450000D03*
D19*
%TO.P,U2,24,PC1*%
%TO.N,unconnected-(U2-PC1-Pad24)*%
X136950000Y-78000000D03*
%TO.P,U2,23,PC0*%
%TO.N,unconnected-(U2-PC0-Pad23)*%
X136950000Y-77200000D03*
%TO.P,U2,22,ADC7*%
%TO.N,unconnected-(U2-ADC7-Pad22)*%
X136950000Y-76400000D03*
%TO.P,U2,21,GND*%
%TO.N,GND*%
X136950000Y-75600000D03*
%TO.P,U2,20,AREF*%
%TO.N,Net-(U2-AREF)*%
X136950000Y-74800000D03*
%TO.P,U2,19,ADC6*%
%TO.N,unconnected-(U2-ADC6-Pad19)*%
X136950000Y-74000000D03*
%TO.P,U2,18,AVCC*%
%TO.N,Net-(U2-AVCC)*%
X136950000Y-73200000D03*
%TO.P,U2,17,PB5*%
%TO.N,SCK*%
X136950000Y-72400000D03*
D18*
%TO.P,U2,16,PB4*%
%TO.N,MISO*%
X138400000Y-70950000D03*
%TO.P,U2,15,PB3*%
%TO.N,MOSI*%
X139200000Y-70950000D03*
%TO.P,U2,14,PB2*%
%TO.N,unconnected-(U2-PB2-Pad14)*%
X140000000Y-70950000D03*
%TO.P,U2,13,PB1*%
%TO.N,unconnected-(U2-PB1-Pad13)*%
X140800000Y-70950000D03*
%TO.P,U2,12,PB0*%
%TO.N,unconnected-(U2-PB0-Pad12)*%
X141600000Y-70950000D03*
%TO.P,U2,11,PD7*%
%TO.N,unconnected-(U2-PD7-Pad11)*%
X142400000Y-70950000D03*
%TO.P,U2,10,PD6*%
%TO.N,unconnected-(U2-PD6-Pad10)*%
X143200000Y-70950000D03*
%TO.P,U2,9,PD5*%
%TO.N,unconnected-(U2-PD5-Pad9)*%
X144000000Y-70950000D03*
D19*
%TO.P,U2,8,XTAL2/PB7*%
%TO.N,Net-(U2-XTAL2{slash}PB7)*%
X145450000Y-72400000D03*
%TO.P,U2,7,XTAL1/PB6*%
%TO.N,Net-(U2-XTAL1{slash}PB6)*%
X145450000Y-73200000D03*
%TO.P,U2,6,VCC*%
%TO.N,+5V*%
X145450000Y-74000000D03*
%TO.P,U2,5,GND*%
%TO.N,GND*%
X145450000Y-74800000D03*
%TO.P,U2,4,VCC*%
%TO.N,+5V*%
X145450000Y-75600000D03*
%TO.P,U2,3,GND*%
%TO.N,GND*%
X145450000Y-76400000D03*
%TO.P,U2,2,PD4*%
%TO.N,485_EN*%
X145450000Y-77200000D03*
%TO.P,U2,1,PD3*%
%TO.N,TX_CAL*%
X145450000Y-78000000D03*
%TD*%
D20*
%TO.P,D1,1,K*%
%TO.N,Net-(D1-K)*%
X157700000Y-94300000D03*
%TO.P,D1,2,A*%
%TO.N,+12V*%
X157700000Y-98300000D03*
%TD*%
D21*
%TO.P,J4,1,Pin_1*%
%TO.N,GND*%
X147700000Y-98800000D03*
D22*
%TO.P,J4,2,Pin_2*%
%TO.N,+12V*%
X152780000Y-98800000D03*
%TD*%
D15*
%TO.P,C4,2*%
%TO.N,GND*%
X134700000Y-76700000D03*
%TO.P,C4,1*%
%TO.N,Net-(U2-AREF)*%
X134700000Y-74800000D03*
%TD*%
D23*
%TO.P,R1,2*%
%TO.N,SCL*%
X147700000Y-82487500D03*
%TO.P,R1,1*%
%TO.N,+5V*%
X147700000Y-84312500D03*
%TD*%
D15*
%TO.P,C5,1*%
%TO.N,+5V*%
X149800000Y-75550000D03*
%TO.P,C5,2*%
%TO.N,GND*%
X149800000Y-77450000D03*
%TD*%
D23*
%TO.P,R5,2*%
%TO.N,SDA*%
X147700000Y-79087500D03*
%TO.P,R5,1*%
%TO.N,+5V*%
X147700000Y-80912500D03*
%TD*%
D24*
%TO.P,C10,1*%
%TO.N,+5V*%
X141500000Y-85550000D03*
%TO.P,C10,2*%
%TO.N,GND*%
X141500000Y-83650000D03*
%TD*%
D25*
%TO.P,C1,1*%
%TO.N,Net-(D1-K)*%
X160550000Y-91900000D03*
%TO.P,C1,2*%
%TO.N,GND*%
X162450000Y-91900000D03*
%TD*%
D21*
%TO.P,J3,1,Pin_1*%
%TO.N,485_A*%
X136500000Y-98800000D03*
D22*
%TO.P,J3,2,Pin_2*%
%TO.N,485_B*%
X141580000Y-98800000D03*
%TD*%
D26*
%TO.P,J1,6,Pin_6*%
%TO.N,+5V*%
X130040000Y-87280000D03*
%TO.P,J1,5,Pin_5*%
%TO.N,MOSI*%
X127500000Y-87279999D03*
%TO.P,J1,4,Pin_4*%
%TO.N,GND*%
X130040000Y-84740000D03*
%TO.P,J1,3,Pin_3*%
%TO.N,RESET*%
X127500000Y-84740000D03*
%TO.P,J1,2,Pin_2*%
%TO.N,SCK*%
X130040000Y-82200000D03*
D27*
%TO.P,J1,1,Pin_1*%
%TO.N,MISO*%
X127500000Y-82200000D03*
%TD*%
D25*
%TO.P,C3,2*%
%TO.N,GND*%
X162450000Y-89900000D03*
%TO.P,C3,1*%
%TO.N,Net-(D1-K)*%
X160550000Y-89900000D03*
%TD*%
D28*
%TO.P,U4,10,SCL*%
%TO.N,SCL*%
X149500000Y-80100000D03*
%TO.P,U4,9,SDA*%
%TO.N,SDA*%
X150000000Y-80100000D03*
%TO.P,U4,8,VDD*%
%TO.N,+5V*%
X150500000Y-80100000D03*
%TO.P,U4,7,AIN3*%
%TO.N,SENSOR_ANALOGICO_4*%
X151000000Y-80100000D03*
%TO.P,U4,6,AIN2*%
%TO.N,SENSOR_ANALOGICO_3*%
X151500000Y-80100000D03*
%TO.P,U4,5,AIN1*%
%TO.N,SENSOR_ANALOGICO_1*%
X151500000Y-84400000D03*
%TO.P,U4,4,AIN0*%
%TO.N,SENSOR_ANALOGICO_2*%
X151000000Y-84400000D03*
%TO.P,U4,3,GND*%
%TO.N,GND*%
X150500000Y-84400000D03*
%TO.P,U4,2,ALERT/RDY*%
%TO.N,unconnected-(U4-ALERT{slash}RDY-Pad2)*%
X150000000Y-84400000D03*
%TO.P,U4,1,ADDR*%
%TO.N,GND*%
X149500000Y-84400000D03*
%TD*%
D25*
%TO.P,C13,2*%
%TO.N,GND*%
X153700000Y-75750000D03*
%TO.P,C13,1*%
%TO.N,+5V*%
X151800000Y-75750000D03*
%TD*%
D29*
%TO.P,L1,2,2*%
%TO.N,+5V*%
X132700000Y-76712500D03*
%TO.P,L1,1,1*%
%TO.N,Net-(U2-AVCC)*%
X132700000Y-74887500D03*
%TD*%
D15*
%TO.P,C8,1*%
%TO.N,+5V*%
X156100000Y-84830000D03*
%TO.P,C8,2*%
%TO.N,GND*%
X156100000Y-86730000D03*
%TD*%
D25*
%TO.P,C14,2*%
%TO.N,GND*%
X153650000Y-77800000D03*
%TO.P,C14,1*%
%TO.N,+5V*%
X151750000Y-77800000D03*
%TD*%
D24*
%TO.P,C9,1*%
%TO.N,Net-(U2-AVCC)*%
X134700000Y-73200000D03*
%TO.P,C9,2*%
%TO.N,GND*%
X134700000Y-71300000D03*
%TD*%
D30*
%TO.P,R4,1*%
%TO.N,GND*%
X133287500Y-80400000D03*
%TO.P,R4,2*%
%TO.N,485_EN*%
X135112500Y-80400000D03*
%TD*%
D24*
%TO.P,C11,1*%
%TO.N,+5V*%
X139400000Y-85950000D03*
%TO.P,C11,2*%
%TO.N,GND*%
X139400000Y-84050000D03*
%TD*%
D23*
%TO.P,R2,1*%
%TO.N,+5V*%
X143500000Y-85512500D03*
%TO.P,R2,2*%
%TO.N,RESET*%
X143500000Y-83687500D03*
%TD*%
%TO.P,R11,2*%
%TO.N,SENSOR_ANALOGICO_2*%
X140680000Y-87775000D03*
%TO.P,R11,1*%
%TO.N,UMID*%
X140680000Y-89600000D03*
%TD*%
D31*
%TO.P,D4,1,A1*%
%TO.N,485_B*%
X135850000Y-90025000D03*
%TO.P,D4,2,A2*%
%TO.N,485_A*%
X133950000Y-90025000D03*
%TO.P,D4,3,common*%
%TO.N,GND*%
X134900000Y-91900000D03*
%TD*%
D15*
%TO.P,C16,1*%
%TO.N,SENSOR_ANALOGICO_1*%
X152100000Y-86200000D03*
%TO.P,C16,2*%
%TO.N,GND*%
X152100000Y-88100000D03*
%TD*%
D32*
%TO.P,C15,2*%
%TO.N,GND*%
X148150000Y-86300000D03*
%TO.P,C15,1*%
%TO.N,SENSOR_ANALOGICO_2*%
X150050000Y-86300000D03*
%TD*%
D23*
%TO.P,R10,1*%
%TO.N,TEMP*%
X143220000Y-89600000D03*
%TO.P,R10,2*%
%TO.N,SENSOR_ANALOGICO_1*%
X143220000Y-87775000D03*
%TD*%
D27*
%TO.P,J5,1,Pin_1*%
%TO.N,+5V*%
X148300000Y-91375000D03*
D26*
%TO.P,J5,2,Pin_2*%
%TO.N,GND*%
X145760000Y-91375000D03*
%TO.P,J5,3,Pin_3*%
%TO.N,TEMP*%
X143220000Y-91375000D03*
%TO.P,J5,4,Pin_4*%
%TO.N,UMID*%
X140680000Y-91375000D03*
%TD*%
D33*
%TO.N,GND*%
X131100000Y-75700000D03*
X141500000Y-83600000D03*
X139400000Y-84000000D03*
X140585448Y-84571412D03*
X140000000Y-83150000D03*
X144900000Y-93100000D03*
X145800000Y-93100000D03*
X146700000Y-93100000D03*
X133400000Y-78700000D03*
X134100000Y-77900000D03*
X135900000Y-79000000D03*
X151600000Y-81500000D03*
X150600000Y-81500000D03*
X152600000Y-84000000D03*
X152600000Y-84900000D03*
X160500000Y-95800000D03*
X161200000Y-95100000D03*
X161800000Y-94300000D03*
X162300000Y-93500000D03*
X154800000Y-92200000D03*
X153900000Y-92200000D03*
X155700000Y-92200000D03*
X156600000Y-92200000D03*
X147500000Y-95100000D03*
X146600000Y-95100000D03*
X148400000Y-95100000D03*
X149300000Y-95100000D03*
X148400000Y-96000000D03*
X149300000Y-96000000D03*
X146600000Y-96000000D03*
X147500000Y-96000000D03*
X135000000Y-93800000D03*
X135000000Y-94700000D03*
X125800000Y-83800000D03*
X125800000Y-84700000D03*
X135700000Y-70000000D03*
X136600000Y-70000000D03*
X150200000Y-69200000D03*
X151100000Y-69200000D03*
X151500000Y-70100000D03*
X151500000Y-71000000D03*
X154900000Y-75200000D03*
X154900000Y-76100000D03*
X154900000Y-77400000D03*
X154900000Y-78300000D03*
X159700000Y-86100000D03*
X159700000Y-87000000D03*
X162700000Y-85700000D03*
X162700000Y-86600000D03*
X157700000Y-88100000D03*
X158600000Y-88100000D03*
X155600000Y-88100000D03*
X156500000Y-88100000D03*
X151400000Y-89400000D03*
X152300000Y-89400000D03*
X146800000Y-85800000D03*
X146800000Y-86700000D03*
X130900000Y-77700000D03*
X130900000Y-78600000D03*
X129000000Y-79000000D03*
X129000000Y-79900000D03*
X143500000Y-72700000D03*
X142600000Y-72700000D03*
X141700000Y-72700000D03*
X140800000Y-72700000D03*
%TO.N,+5V*%
X154000000Y-82800000D03*
%TO.N,MOSI*%
X139250000Y-72981240D03*
%TO.N,MISO*%
X138400000Y-72400000D03*
X129000000Y-76700000D03*
%TO.N,SCK*%
X136900000Y-71300000D03*
X132400000Y-72900000D03*
%TO.N,RESET*%
X141600000Y-78250000D03*
X144100000Y-81500000D03*
%TO.N,485_EN*%
X136200000Y-80300000D03*
X138800000Y-77700000D03*
%TO.N,+5V*%
X146000000Y-84312500D03*
X145012500Y-84312500D03*
X153000000Y-82800000D03*
%TO.N,SDA*%
X143773553Y-78049998D03*
X146400000Y-79100000D03*
%TO.N,SCL*%
X146500000Y-82500000D03*
X140798959Y-80750000D03*
%TD*%
D34*
%TO.N,GND*%
X141500000Y-84400000D02*
X141328588Y-84571412D01*
X141328588Y-84571412D02*
X140585448Y-84571412D01*
X141500000Y-83600000D02*
X141500000Y-84400000D01*
X140950000Y-83100000D02*
X140050000Y-83100000D01*
X140050000Y-83100000D02*
X140000000Y-83150000D01*
X141500000Y-83650000D02*
X140950000Y-83100000D01*
X139400000Y-84000000D02*
X139400000Y-83750000D01*
X141500000Y-83650000D02*
X141500000Y-83600000D01*
X139400000Y-83750000D02*
X140000000Y-83150000D01*
X139400000Y-84050000D02*
X139400000Y-84000000D01*
%TO.N,SDA*%
X143773553Y-78049998D02*
X142849998Y-78049998D01*
X142200000Y-77400000D02*
X140900000Y-77400000D01*
X142849998Y-78049998D02*
X142200000Y-77400000D01*
X140900000Y-77400000D02*
X140000000Y-78300000D01*
X140000000Y-78300000D02*
X140000000Y-79450000D01*
%TO.N,485_EN*%
X139900000Y-76600000D02*
X138800000Y-77700000D01*
X142700000Y-76600000D02*
X139900000Y-76600000D01*
X143300000Y-77200000D02*
X142700000Y-76600000D01*
X145450000Y-77200000D02*
X143300000Y-77200000D01*
%TO.N,RESET*%
X141600000Y-78250000D02*
X141600000Y-79450000D01*
D35*
%TO.N,+5V*%
X138150000Y-85550000D02*
X138550000Y-85950000D01*
X138550000Y-85950000D02*
X139400000Y-85950000D01*
X137700000Y-85550000D02*
X138150000Y-85550000D01*
X140450000Y-85950000D02*
X139400000Y-85950000D01*
X140850000Y-85550000D02*
X140450000Y-85950000D01*
X141500000Y-85550000D02*
X140850000Y-85550000D01*
D34*
%TO.N,TX*%
X133600000Y-84400000D02*
X132995000Y-83795000D01*
X137300000Y-84400000D02*
X133600000Y-84400000D01*
X132995000Y-83795000D02*
X132995000Y-82725000D01*
X141650000Y-82300000D02*
X139400000Y-82300000D01*
X143200000Y-80750000D02*
X141650000Y-82300000D01*
X143200000Y-79450000D02*
X143200000Y-80750000D01*
X139400000Y-82300000D02*
X137300000Y-84400000D01*
%TO.N,RX*%
X141300000Y-81600000D02*
X142400000Y-80500000D01*
X142400000Y-80500000D02*
X142400000Y-79450000D01*
X137275000Y-82725000D02*
X138400000Y-81600000D01*
X136805000Y-82725000D02*
X137275000Y-82725000D01*
X138400000Y-81600000D02*
X141300000Y-81600000D01*
%TO.N,SENSOR_ANALOGICO_2*%
X150050000Y-87050000D02*
X150050000Y-86300000D01*
X145700000Y-87700000D02*
X149400000Y-87700000D01*
X141800000Y-86700000D02*
X144700000Y-86700000D01*
X144700000Y-86700000D02*
X145700000Y-87700000D01*
X140912500Y-87587500D02*
X141800000Y-86700000D01*
X140680000Y-87587500D02*
X140912500Y-87587500D01*
X149400000Y-87700000D02*
X150050000Y-87050000D01*
%TO.N,SENSOR_ANALOGICO_1*%
X143945000Y-88500000D02*
X143220000Y-87775000D01*
X149800000Y-88500000D02*
X143945000Y-88500000D01*
D35*
%TO.N,UMID*%
X140680000Y-91375000D02*
X140680000Y-89600000D01*
%TO.N,TEMP*%
X143220000Y-91375000D02*
X143220000Y-89600000D01*
D34*
%TO.N,MOSI*%
X139250000Y-72047918D02*
X139250000Y-72981240D01*
X139200000Y-70950000D02*
X139200000Y-71997918D01*
X139200000Y-71997918D02*
X139250000Y-72047918D01*
%TO.N,MISO*%
X138400000Y-72400000D02*
X138400000Y-70950000D01*
X127500000Y-78200000D02*
X129000000Y-76700000D01*
X127500000Y-82200000D02*
X127500000Y-78200000D01*
%TO.N,SCK*%
X136900000Y-71300000D02*
X136900000Y-72350000D01*
X136900000Y-72350000D02*
X136950000Y-72400000D01*
X130040000Y-75260000D02*
X132400000Y-72900000D01*
X130040000Y-82200000D02*
X130040000Y-75260000D01*
D35*
%TO.N,+5V*%
X131900000Y-84600000D02*
X131900000Y-84650000D01*
X131900000Y-84650000D02*
X132800000Y-85550000D01*
X132800000Y-85550000D02*
X131770000Y-85550000D01*
X133150000Y-85550000D02*
X132800000Y-85550000D01*
X131900000Y-84600000D02*
X131900000Y-85420000D01*
X131900000Y-78800000D02*
X131900000Y-84600000D01*
X131900000Y-85420000D02*
X131770000Y-85550000D01*
X132700000Y-78000000D02*
X131900000Y-78800000D01*
X132700000Y-76712500D02*
X132700000Y-78000000D01*
X131770000Y-85550000D02*
X130040000Y-87280000D01*
X133150000Y-85550000D02*
X136000000Y-85550000D01*
D34*
%TO.N,RESET*%
X143500000Y-82100000D02*
X144100000Y-81500000D01*
X143500000Y-83687500D02*
X143500000Y-82100000D01*
D36*
%TO.N,485_EN*%
X135535000Y-81735000D02*
X135112500Y-81312500D01*
X135535000Y-82725000D02*
X135535000Y-81735000D01*
X135112500Y-81312500D02*
X135112500Y-80400000D01*
D34*
X134265000Y-82725000D02*
X135535000Y-82725000D01*
D36*
X135212500Y-80300000D02*
X135112500Y-80400000D01*
X136200000Y-80300000D02*
X135212500Y-80300000D01*
%TO.N,Net-(D1-K)*%
X159600000Y-90950000D02*
X160550000Y-91900000D01*
X159600000Y-90800000D02*
X159600000Y-90950000D01*
D34*
X159600000Y-90800000D02*
X160450000Y-90800000D01*
X158400000Y-90800000D02*
X159600000Y-90800000D01*
D36*
X159600000Y-90800000D02*
X159650000Y-90800000D01*
X159650000Y-90800000D02*
X160550000Y-89900000D01*
%TO.N,+5V*%
X136805000Y-86400000D02*
X136850000Y-86400000D01*
X136850000Y-86400000D02*
X137700000Y-85550000D01*
D35*
X136800000Y-85550000D02*
X137700000Y-85550000D01*
D36*
X136805000Y-86355000D02*
X136000000Y-85550000D01*
X136805000Y-86400000D02*
X136805000Y-86355000D01*
D35*
X136000000Y-85550000D02*
X136800000Y-85550000D01*
D36*
X136805000Y-86400000D02*
X136805000Y-86295000D01*
X136805000Y-87675000D02*
X136805000Y-86400000D01*
X136800000Y-86290000D02*
X136800000Y-85550000D01*
X136805000Y-86295000D02*
X136800000Y-86290000D01*
D35*
X145687500Y-84312500D02*
X145000000Y-85000000D01*
X145700000Y-84312500D02*
X145687500Y-84312500D01*
X145700000Y-84200000D02*
X145000000Y-83500000D01*
X145700000Y-84312500D02*
X145700000Y-84200000D01*
X145700000Y-84312500D02*
X145012500Y-84312500D01*
X145000000Y-82100000D02*
X145000000Y-83500000D01*
X147700000Y-84312500D02*
X145700000Y-84312500D01*
X145000000Y-83500000D02*
X145000000Y-84300000D01*
X145012500Y-84312500D02*
X145000000Y-84300000D01*
X145000000Y-84300000D02*
X145000000Y-85000000D01*
X145000000Y-85000000D02*
X144487500Y-85512500D01*
X146187500Y-80912500D02*
X145000000Y-82100000D01*
X147700000Y-80912500D02*
X146187500Y-80912500D01*
X144487500Y-85512500D02*
X143500000Y-85512500D01*
X143462500Y-85550000D02*
X143500000Y-85512500D01*
X141500000Y-85550000D02*
X143462500Y-85550000D01*
D34*
X141537500Y-85512500D02*
X141500000Y-85550000D01*
D37*
X143512500Y-85500000D02*
X143500000Y-85512500D01*
X154000000Y-82800000D02*
X153000000Y-82800000D01*
X154000000Y-82800000D02*
X154000000Y-80500000D01*
X154000000Y-83800000D02*
X154000000Y-82800000D01*
X155000000Y-84800000D02*
X154000000Y-85800000D01*
X154000000Y-89600000D02*
X154000000Y-86200000D01*
X154000000Y-86200000D02*
X154000000Y-84700000D01*
X154000000Y-85800000D02*
X154000000Y-86200000D01*
X155000000Y-84800000D02*
X154000000Y-83800000D01*
X155000000Y-84830000D02*
X155000000Y-84800000D01*
X155000000Y-84830000D02*
X154130000Y-84830000D01*
X156100000Y-84830000D02*
X155000000Y-84830000D01*
X154000000Y-84700000D02*
X154000000Y-83800000D01*
X154130000Y-84830000D02*
X154000000Y-84700000D01*
X151750000Y-78250000D02*
X151750000Y-77800000D01*
X154000000Y-80500000D02*
X151750000Y-78250000D01*
X152225000Y-91375000D02*
X154000000Y-89600000D01*
X148300000Y-91375000D02*
X152225000Y-91375000D01*
D38*
%TO.N,SENSOR_ANALOGICO_1*%
X151500000Y-85600000D02*
X152100000Y-86200000D01*
X151500000Y-84400000D02*
X151500000Y-85600000D01*
D34*
X149800000Y-88500000D02*
X152100000Y-86200000D01*
%TO.N,+5V*%
X151600000Y-75550000D02*
X151800000Y-75750000D01*
X149800000Y-75550000D02*
X151600000Y-75550000D01*
D38*
X150500000Y-79050000D02*
X151750000Y-77800000D01*
X150500000Y-80100000D02*
X150500000Y-79050000D01*
D34*
%TO.N,SDA*%
X146412500Y-79087500D02*
X146400000Y-79100000D01*
X147700000Y-79087500D02*
X146412500Y-79087500D01*
%TO.N,SCL*%
X146512500Y-82487500D02*
X146500000Y-82500000D01*
X147700000Y-82487500D02*
X146512500Y-82487500D01*
D39*
X148962500Y-82337500D02*
X148812500Y-82487500D01*
X148812500Y-82487500D02*
X147700000Y-82487500D01*
%TO.N,SDA*%
X149787500Y-79087500D02*
X150000000Y-79300000D01*
X147700000Y-79087500D02*
X149787500Y-79087500D01*
X150000000Y-79300000D02*
X150000000Y-80100000D01*
D34*
%TO.N,SCL*%
X140798959Y-79451041D02*
X140800000Y-79450000D01*
X140798959Y-80750000D02*
X140798959Y-79451041D01*
D37*
%TO.N,Net-(D1-K)*%
X160550000Y-90900000D02*
X160550000Y-91900000D01*
X160550000Y-89900000D02*
X160550000Y-90900000D01*
D34*
X158400000Y-90800000D02*
X158400000Y-91900000D01*
X158400000Y-90000000D02*
X158400000Y-90800000D01*
X160450000Y-90800000D02*
X160550000Y-90900000D01*
D37*
X160550000Y-93250000D02*
X160550000Y-91900000D01*
X159600000Y-94300000D02*
X160600000Y-93300000D01*
X157700000Y-94300000D02*
X159600000Y-94300000D01*
X160600000Y-93300000D02*
X160550000Y-93250000D01*
%TO.N,+5V*%
X158200000Y-84830000D02*
X156100000Y-84830000D01*
X161240000Y-84830000D02*
X158200000Y-84830000D01*
%TO.N,Net-(D1-K)*%
X160550000Y-88060000D02*
X161240000Y-87370000D01*
X160550000Y-89900000D02*
X160550000Y-88060000D01*
%TO.N,+12V*%
X157200000Y-98800000D02*
X157700000Y-98300000D01*
X152780000Y-98800000D02*
X157200000Y-98800000D01*
D38*
%TO.N,SCL*%
X149500000Y-81800000D02*
X149500000Y-80100000D01*
X148962500Y-82337500D02*
X149500000Y-81800000D01*
%TO.N,SENSOR_ANALOGICO_2*%
X150050000Y-86150000D02*
X150050000Y-86300000D01*
X151000000Y-85200000D02*
X150050000Y-86150000D01*
X151000000Y-84400000D02*
X151000000Y-85200000D01*
D34*
%TO.N,Net-(U2-XTAL2{slash}PB7)*%
X147450000Y-69000000D02*
X147450000Y-70700000D01*
X145450000Y-71650000D02*
X145450000Y-72400000D01*
X146400000Y-70700000D02*
X145450000Y-71650000D01*
X147450000Y-70700000D02*
X146400000Y-70700000D01*
%TO.N,Net-(U2-XTAL1{slash}PB6)*%
X150200000Y-72100000D02*
X148550000Y-72100000D01*
X148550000Y-72750000D02*
X148550000Y-72100000D01*
X145450000Y-73200000D02*
X148100000Y-73200000D01*
X148100000Y-73200000D02*
X148550000Y-72750000D01*
%TO.N,+5V*%
X151800000Y-75750000D02*
X151800000Y-77750000D01*
X151800000Y-77750000D02*
X151750000Y-77800000D01*
X144200000Y-75600000D02*
X145450000Y-75600000D01*
X143800000Y-75200000D02*
X144200000Y-75600000D01*
X144300000Y-74000000D02*
X143800000Y-74500000D01*
X145450000Y-74000000D02*
X144300000Y-74000000D01*
X143800000Y-74500000D02*
X143800000Y-75200000D01*
X147700000Y-75600000D02*
X145450000Y-75600000D01*
X149800000Y-75600000D02*
X147700000Y-75600000D01*
%TO.N,Net-(U2-AVCC)*%
X132700000Y-74887500D02*
X132700000Y-74200000D01*
X132700000Y-74200000D02*
X133700000Y-73200000D01*
X133700000Y-73200000D02*
X134700000Y-73200000D01*
X136950000Y-73200000D02*
X134700000Y-73200000D01*
%TO.N,Net-(U2-AREF)*%
X136950000Y-74800000D02*
X134700000Y-74800000D01*
D40*
%TO.N,485_A*%
X133950000Y-90025000D02*
X133950000Y-96250000D01*
X133950000Y-96250000D02*
X136500000Y-98800000D01*
%TO.N,485_B*%
X135850000Y-93070000D02*
X141580000Y-98800000D01*
X135850000Y-90025000D02*
X135850000Y-93070000D01*
%TO.N,485_A*%
X133950000Y-88950000D02*
X133950000Y-90025000D01*
X134265000Y-88635000D02*
X133950000Y-88950000D01*
X134265000Y-87675000D02*
X134265000Y-88635000D01*
%TO.N,485_B*%
X135850000Y-88850000D02*
X135850000Y-90025000D01*
X135535000Y-88535000D02*
X135850000Y-88850000D01*
X135535000Y-87675000D02*
X135535000Y-88535000D01*
%TD*%
%TA.AperFunction,Conductor*%
%TO.N,GND*%
G36*
X149740010Y-68276041D02*
G01*
X149907597Y-68320608D01*
X149912968Y-68322167D01*
X150749714Y-68585703D01*
X150755021Y-68587507D01*
X151579012Y-68888588D01*
X151584231Y-68890630D01*
X151975516Y-69054002D01*
X152393768Y-69228633D01*
X152398890Y-69230909D01*
X153192322Y-69605147D01*
X153197336Y-69607652D01*
X153973056Y-70017365D01*
X153977951Y-70020094D01*
X154734350Y-70464432D01*
X154739117Y-70467379D01*
X155474695Y-70945463D01*
X155479281Y-70948593D01*
X156192537Y-71459451D01*
X156196986Y-71462793D01*
X156540153Y-71732853D01*
X156886372Y-72005315D01*
X156890697Y-72008879D01*
X156996669Y-72100323D01*
X157554904Y-72582030D01*
X157559016Y-72585745D01*
X158196658Y-73188339D01*
X158200619Y-73192256D01*
X158810333Y-73823000D01*
X158814136Y-73827116D01*
X159394732Y-74484773D01*
X159398346Y-74489058D01*
X159948627Y-75172274D01*
X159952043Y-75176717D01*
X160470899Y-75884115D01*
X160474110Y-75888708D01*
X160859390Y-76467086D01*
X160931608Y-76575500D01*
X160960451Y-76618798D01*
X160963451Y-76623529D01*
X161390806Y-77332547D01*
X161416314Y-77374866D01*
X161419095Y-77379724D01*
X161467780Y-77469431D01*
X161837555Y-78150780D01*
X161840116Y-78155765D01*
X162223300Y-78944927D01*
X162225633Y-78950023D01*
X162572758Y-79755674D01*
X162574859Y-79760870D01*
X162885228Y-80581395D01*
X162887092Y-80586681D01*
X163160070Y-81420408D01*
X163161693Y-81425772D01*
X163396715Y-82270963D01*
X163398094Y-82276395D01*
X163594680Y-83131333D01*
X163595813Y-83136822D01*
X163753573Y-83999804D01*
X163754456Y-84005339D01*
X163873056Y-84874551D01*
X163873688Y-84880120D01*
X163952891Y-85753818D01*
X163953270Y-85759410D01*
X163992926Y-86636105D01*
X163993051Y-86641007D01*
X163995528Y-87079299D01*
X163995528Y-87080701D01*
X163993051Y-87518992D01*
X163992926Y-87523894D01*
X163953270Y-88400589D01*
X163952891Y-88406181D01*
X163873688Y-89279879D01*
X163873056Y-89285448D01*
X163754456Y-90154660D01*
X163753573Y-90160195D01*
X163595813Y-91023177D01*
X163594680Y-91028666D01*
X163444846Y-91680284D01*
X163410639Y-91741207D01*
X163348925Y-91773965D01*
X163279297Y-91768158D01*
X163223862Y-91725629D01*
X163200220Y-91659880D01*
X163200000Y-91652496D01*
X163200000Y-91377172D01*
X163199999Y-91377155D01*
X163193598Y-91317627D01*
X163193596Y-91317620D01*
X163143354Y-91182913D01*
X163143350Y-91182906D01*
X163057190Y-91067813D01*
X162965625Y-90999267D01*
X162923754Y-90943333D01*
X162918770Y-90873641D01*
X162952255Y-90812318D01*
X162965625Y-90800733D01*
X163057190Y-90732186D01*
X163143350Y-90617093D01*
X163143354Y-90617086D01*
X163193596Y-90482379D01*
X163193598Y-90482372D01*
X163199999Y-90422844D01*
X163200000Y-90422827D01*
X163200000Y-90025000D01*
X162575000Y-90025000D01*
X162575000Y-92875000D01*
X162747828Y-92875000D01*
X162747844Y-92874999D01*
X162807372Y-92868598D01*
X162807376Y-92868597D01*
X162919696Y-92826704D01*
X162989388Y-92821720D01*
X163050711Y-92855204D01*
X163084196Y-92916527D01*
X163080874Y-92981470D01*
X162887092Y-93573318D01*
X162885228Y-93578604D01*
X162574859Y-94399129D01*
X162572758Y-94404325D01*
X162225633Y-95209976D01*
X162223300Y-95215072D01*
X161840116Y-96004234D01*
X161837555Y-96009219D01*
X161419099Y-96780268D01*
X161416314Y-96785133D01*
X160963452Y-97536468D01*
X160960451Y-97541201D01*
X160474110Y-98271291D01*
X160470899Y-98275884D01*
X159952043Y-98983282D01*
X159948627Y-98987725D01*
X159398346Y-99670941D01*
X159394732Y-99675226D01*
X158814136Y-100332883D01*
X158810333Y-100336999D01*
X158200619Y-100967743D01*
X158196634Y-100971684D01*
X157559051Y-101574223D01*
X157554891Y-101577980D01*
X156890697Y-102151120D01*
X156886372Y-102154684D01*
X156197002Y-102697194D01*
X156192521Y-102700560D01*
X155479303Y-103211391D01*
X155474673Y-103214551D01*
X154739117Y-103692620D01*
X154734350Y-103695567D01*
X153977951Y-104139905D01*
X153973056Y-104142634D01*
X153197336Y-104552347D01*
X153192322Y-104554852D01*
X152398890Y-104929090D01*
X152393768Y-104931366D01*
X151584231Y-105269369D01*
X151579012Y-105271411D01*
X150755021Y-105572492D01*
X150749714Y-105574296D01*
X149912968Y-105837832D01*
X149907586Y-105839394D01*
X149059798Y-106064849D01*
X149054350Y-106066167D01*
X148197223Y-106253084D01*
X148191722Y-106254154D01*
X147327018Y-106402150D01*
X147321474Y-106402970D01*
X146450989Y-106511739D01*
X146445413Y-106512308D01*
X145570900Y-106581631D01*
X145565304Y-106581948D01*
X144688525Y-106611684D01*
X144682921Y-106611747D01*
X143805719Y-106601833D01*
X143800117Y-106601643D01*
X142924249Y-106552102D01*
X142918662Y-106551659D01*
X142045929Y-106462589D01*
X142040368Y-106461894D01*
X141172569Y-106333481D01*
X141167044Y-106332536D01*
X140305908Y-106165035D01*
X140300433Y-106163841D01*
X139447736Y-105957598D01*
X139442319Y-105956157D01*
X138599860Y-105711606D01*
X138594514Y-105709923D01*
X137763912Y-105427536D01*
X137758648Y-105425612D01*
X136941699Y-105105997D01*
X136936527Y-105103838D01*
X136134826Y-104747622D01*
X136129757Y-104745231D01*
X135344976Y-104353154D01*
X135340020Y-104350536D01*
X134573763Y-103923399D01*
X134568931Y-103920560D01*
X133822776Y-103459247D01*
X133818076Y-103456193D01*
X133093488Y-102961605D01*
X133088932Y-102958341D01*
X132387476Y-102431549D01*
X132383071Y-102428083D01*
X131706113Y-101870113D01*
X131701870Y-101866452D01*
X131382458Y-101577980D01*
X131050794Y-101278442D01*
X131046731Y-101274602D01*
X130740370Y-100971684D01*
X130422920Y-100657800D01*
X130419034Y-100653781D01*
X130143271Y-100355293D01*
X129823725Y-100009412D01*
X129820018Y-100005214D01*
X129254437Y-99334608D01*
X129250921Y-99330243D01*
X128716222Y-98634767D01*
X128712908Y-98630248D01*
X128210170Y-97911304D01*
X128207075Y-97906659D01*
X127799660Y-97264033D01*
X127737339Y-97165732D01*
X127734446Y-97160932D01*
X127298675Y-96399546D01*
X127296002Y-96394620D01*
X127117876Y-96047939D01*
X126895079Y-95614316D01*
X126892638Y-95609288D01*
X126876789Y-95574678D01*
X126527393Y-94811683D01*
X126525176Y-94806537D01*
X126196341Y-93993230D01*
X126194358Y-93987988D01*
X126066695Y-93625961D01*
X127499500Y-93625961D01*
X127538910Y-93874785D01*
X127616760Y-94114383D01*
X127731132Y-94338848D01*
X127879201Y-94542649D01*
X127879205Y-94542654D01*
X128057345Y-94720794D01*
X128057350Y-94720798D01*
X128235117Y-94849952D01*
X128261155Y-94868870D01*
X128385420Y-94932186D01*
X128485616Y-94983239D01*
X128485618Y-94983239D01*
X128485621Y-94983241D01*
X128725215Y-95061090D01*
X128974038Y-95100500D01*
X128974039Y-95100500D01*
X129225961Y-95100500D01*
X129225962Y-95100500D01*
X129474785Y-95061090D01*
X129714379Y-94983241D01*
X129938845Y-94868870D01*
X130142656Y-94720793D01*
X130320793Y-94542656D01*
X130468870Y-94338845D01*
X130583241Y-94114379D01*
X130661090Y-93874785D01*
X130700500Y-93625962D01*
X130700500Y-93374038D01*
X130661090Y-93125215D01*
X130583241Y-92885621D01*
X130583239Y-92885618D01*
X130583239Y-92885616D01*
X130505064Y-92732190D01*
X130468870Y-92661155D01*
X130338977Y-92482372D01*
X130320798Y-92457350D01*
X130320794Y-92457345D01*
X130142654Y-92279205D01*
X130142649Y-92279201D01*
X129938848Y-92131132D01*
X129938847Y-92131131D01*
X129938845Y-92131130D01*
X129841474Y-92081517D01*
X129714383Y-92016760D01*
X129474785Y-91938910D01*
X129406060Y-91928025D01*
X129225962Y-91899500D01*
X128974038Y-91899500D01*
X128849626Y-91919205D01*
X128725214Y-91938910D01*
X128485616Y-92016760D01*
X128261151Y-92131132D01*
X128057350Y-92279201D01*
X128057345Y-92279205D01*
X127879205Y-92457345D01*
X127879201Y-92457350D01*
X127731132Y-92661151D01*
X127616760Y-92885616D01*
X127538910Y-93125214D01*
X127499500Y-93374038D01*
X127499500Y-93625961D01*
X126066695Y-93625961D01*
X126049995Y-93578604D01*
X125902610Y-93160651D01*
X125900867Y-93155328D01*
X125646801Y-92315653D01*
X125645302Y-92310263D01*
X125429428Y-91459923D01*
X125428178Y-91454478D01*
X125422641Y-91427636D01*
X125250964Y-90595319D01*
X125249956Y-90589806D01*
X125243926Y-90552011D01*
X125111739Y-89723479D01*
X125110988Y-89717977D01*
X125012058Y-88846273D01*
X125011552Y-88840691D01*
X125006244Y-88762527D01*
X124952114Y-87965415D01*
X124951863Y-87959859D01*
X124936495Y-87279999D01*
X126394785Y-87279999D01*
X126413602Y-87483081D01*
X126457997Y-87639110D01*
X126469418Y-87679249D01*
X126469418Y-87679250D01*
X126469422Y-87679259D01*
X126560327Y-87861820D01*
X126683237Y-88024580D01*
X126833958Y-88161979D01*
X126833960Y-88161981D01*
X126833962Y-88161982D01*
X127007363Y-88269347D01*
X127197544Y-88343023D01*
X127398024Y-88380499D01*
X127398026Y-88380499D01*
X127601974Y-88380499D01*
X127601976Y-88380499D01*
X127802456Y-88343023D01*
X127992637Y-88269347D01*
X128166041Y-88161980D01*
X128316764Y-88024578D01*
X128439673Y-87861820D01*
X128530582Y-87679249D01*
X128586397Y-87483082D01*
X128605215Y-87279999D01*
X128604984Y-87277511D01*
X128586397Y-87076916D01*
X128567927Y-87012001D01*
X128530582Y-86880749D01*
X128501740Y-86822827D01*
X128467567Y-86754197D01*
X128439673Y-86698178D01*
X128369308Y-86605000D01*
X128316762Y-86535417D01*
X128166041Y-86398018D01*
X128166039Y-86398016D01*
X127992642Y-86290654D01*
X127992639Y-86290652D01*
X127992637Y-86290651D01*
X127992636Y-86290650D01*
X127992635Y-86290650D01*
X127872830Y-86244238D01*
X127802456Y-86216975D01*
X127601976Y-86179499D01*
X127398024Y-86179499D01*
X127197544Y-86216975D01*
X127197541Y-86216975D01*
X127197541Y-86216976D01*
X127007364Y-86290650D01*
X127007357Y-86290654D01*
X126833960Y-86398016D01*
X126833958Y-86398018D01*
X126683237Y-86535417D01*
X126560327Y-86698177D01*
X126469422Y-86880738D01*
X126469417Y-86880751D01*
X126413602Y-87076916D01*
X126394785Y-87279998D01*
X126394785Y-87279999D01*
X124936495Y-87279999D01*
X124932037Y-87082787D01*
X124932037Y-87077198D01*
X124951863Y-86200138D01*
X124952113Y-86194586D01*
X125011552Y-85319305D01*
X125012058Y-85313726D01*
X125012678Y-85308267D01*
X125077171Y-84740000D01*
X126394785Y-84740000D01*
X126413602Y-84943082D01*
X126469417Y-85139247D01*
X126469422Y-85139260D01*
X126560327Y-85321821D01*
X126683237Y-85484581D01*
X126833958Y-85621980D01*
X126833960Y-85621982D01*
X126933141Y-85683392D01*
X127007363Y-85729348D01*
X127197544Y-85803024D01*
X127398024Y-85840500D01*
X127398026Y-85840500D01*
X127601974Y-85840500D01*
X127601976Y-85840500D01*
X127802456Y-85803024D01*
X127992637Y-85729348D01*
X128166041Y-85621981D01*
X128316764Y-85484579D01*
X128439673Y-85321821D01*
X128530582Y-85139250D01*
X128586397Y-84943083D01*
X128605215Y-84740000D01*
X128599115Y-84674174D01*
X128586397Y-84536917D01*
X128566799Y-84468039D01*
X128530582Y-84340750D01*
X128530159Y-84339901D01*
X128456679Y-84192332D01*
X128439673Y-84158179D01*
X128316764Y-83995421D01*
X128316762Y-83995418D01*
X128166041Y-83858019D01*
X128166039Y-83858017D01*
X127992642Y-83750655D01*
X127992635Y-83750651D01*
X127842412Y-83692455D01*
X127802456Y-83676976D01*
X127601976Y-83639500D01*
X127398024Y-83639500D01*
X127197544Y-83676976D01*
X127197541Y-83676976D01*
X127197541Y-83676977D01*
X127007364Y-83750651D01*
X127007357Y-83750655D01*
X126833960Y-83858017D01*
X126833958Y-83858019D01*
X126683237Y-83995418D01*
X126560327Y-84158178D01*
X126469422Y-84340739D01*
X126469417Y-84340752D01*
X126413602Y-84536917D01*
X126394785Y-84739999D01*
X126394785Y-84740000D01*
X125077171Y-84740000D01*
X125110989Y-84442016D01*
X125111738Y-84436526D01*
X125249959Y-83570176D01*
X125250964Y-83564680D01*
X125428182Y-82705500D01*
X125429426Y-82700086D01*
X125645308Y-81849714D01*
X125646797Y-81844357D01*
X125900872Y-81004655D01*
X125902611Y-80999345D01*
X125903184Y-80997722D01*
X126194363Y-80171995D01*
X126196341Y-80166769D01*
X126200733Y-80155908D01*
X126525182Y-79353446D01*
X126527394Y-79348315D01*
X126549893Y-79299184D01*
X126762759Y-78834335D01*
X126808568Y-78781579D01*
X126875627Y-78761963D01*
X126942647Y-78781717D01*
X126988347Y-78834567D01*
X126999500Y-78885963D01*
X126999500Y-80975500D01*
X126979815Y-81042539D01*
X126927011Y-81088294D01*
X126875500Y-81099500D01*
X126625323Y-81099500D01*
X126552264Y-81114032D01*
X126552260Y-81114033D01*
X126469399Y-81169399D01*
X126414033Y-81252260D01*
X126414032Y-81252264D01*
X126399500Y-81325321D01*
X126399500Y-83074678D01*
X126414032Y-83147735D01*
X126414033Y-83147739D01*
X126420831Y-83157913D01*
X126469399Y-83230601D01*
X126540965Y-83278419D01*
X126552260Y-83285966D01*
X126552264Y-83285967D01*
X126625321Y-83300499D01*
X126625324Y-83300500D01*
X126625326Y-83300500D01*
X128374676Y-83300500D01*
X128374677Y-83300499D01*
X128447740Y-83285966D01*
X128530601Y-83230601D01*
X128585966Y-83147740D01*
X128600500Y-83074674D01*
X128600500Y-81325326D01*
X128600500Y-81325323D01*
X128600499Y-81325321D01*
X128585967Y-81252264D01*
X128585966Y-81252260D01*
X128585711Y-81251879D01*
X128530601Y-81169399D01*
X128447740Y-81114034D01*
X128447739Y-81114033D01*
X128447735Y-81114032D01*
X128374677Y-81099500D01*
X128374674Y-81099500D01*
X128124500Y-81099500D01*
X128057461Y-81079815D01*
X128011706Y-81027011D01*
X128000500Y-80975500D01*
X128000500Y-78458676D01*
X128020185Y-78391637D01*
X128036819Y-78370995D01*
X128523283Y-77884531D01*
X129025783Y-77382030D01*
X129083787Y-77349316D01*
X129232365Y-77312696D01*
X129357874Y-77246822D01*
X129426382Y-77233097D01*
X129491435Y-77258589D01*
X129532380Y-77315205D01*
X129539500Y-77356619D01*
X129539500Y-81146452D01*
X129519815Y-81213491D01*
X129480778Y-81251879D01*
X129373957Y-81318020D01*
X129223237Y-81455418D01*
X129100327Y-81618178D01*
X129009422Y-81800739D01*
X129009417Y-81800752D01*
X128953602Y-81996917D01*
X128934785Y-82199999D01*
X128934785Y-82200000D01*
X128953602Y-82403082D01*
X129009417Y-82599247D01*
X129009422Y-82599260D01*
X129100327Y-82781821D01*
X129223237Y-82944581D01*
X129373958Y-83081980D01*
X129373960Y-83081982D01*
X129423567Y-83112697D01*
X129547363Y-83189348D01*
X129737544Y-83263024D01*
X129938024Y-83300500D01*
X129938026Y-83300500D01*
X130141974Y-83300500D01*
X130141976Y-83300500D01*
X130342456Y-83263024D01*
X130532637Y-83189348D01*
X130706041Y-83081981D01*
X130856764Y-82944579D01*
X130979673Y-82781821D01*
X131039500Y-82661672D01*
X131087003Y-82610435D01*
X131154666Y-82593014D01*
X131221006Y-82614940D01*
X131264961Y-82669251D01*
X131274500Y-82716944D01*
X131274500Y-84224177D01*
X131254815Y-84291216D01*
X131202011Y-84336971D01*
X131132853Y-84346915D01*
X131069297Y-84317890D01*
X131039500Y-84279449D01*
X130979245Y-84158443D01*
X130856391Y-83995757D01*
X130705739Y-83858421D01*
X130532415Y-83751102D01*
X130342321Y-83677460D01*
X130165000Y-83644312D01*
X130165000Y-84255855D01*
X130105826Y-84240000D01*
X129974174Y-84240000D01*
X129915000Y-84255855D01*
X129915000Y-83644312D01*
X129737678Y-83677460D01*
X129547584Y-83751102D01*
X129374260Y-83858421D01*
X129223608Y-83995757D01*
X129100754Y-84158443D01*
X129009886Y-84340930D01*
X129009883Y-84340936D01*
X128954097Y-84537007D01*
X128954097Y-84537010D01*
X128946869Y-84614999D01*
X128946870Y-84615000D01*
X129555856Y-84615000D01*
X129540000Y-84674174D01*
X129540000Y-84805826D01*
X129555856Y-84865000D01*
X128946870Y-84865000D01*
X128954097Y-84942989D01*
X128954097Y-84942992D01*
X129009883Y-85139063D01*
X129009886Y-85139069D01*
X129100754Y-85321556D01*
X129223608Y-85484242D01*
X129374260Y-85621578D01*
X129547584Y-85728897D01*
X129737678Y-85802539D01*
X129915000Y-85835686D01*
X129915000Y-85224144D01*
X129974174Y-85240000D01*
X130105826Y-85240000D01*
X130165000Y-85224144D01*
X130165000Y-85835686D01*
X130306053Y-85809319D01*
X130375568Y-85816350D01*
X130430246Y-85859847D01*
X130452729Y-85926001D01*
X130435876Y-85993808D01*
X130416519Y-86018889D01*
X130284183Y-86151225D01*
X130222860Y-86184710D01*
X130173720Y-86185433D01*
X130141979Y-86179500D01*
X130141976Y-86179500D01*
X129938024Y-86179500D01*
X129737544Y-86216976D01*
X129737541Y-86216976D01*
X129737541Y-86216977D01*
X129547364Y-86290651D01*
X129547357Y-86290655D01*
X129373960Y-86398017D01*
X129373958Y-86398019D01*
X129223237Y-86535418D01*
X129100327Y-86698178D01*
X129009422Y-86880739D01*
X129009417Y-86880752D01*
X128953602Y-87076917D01*
X128934785Y-87279999D01*
X128934785Y-87280000D01*
X128953602Y-87483082D01*
X129009417Y-87679247D01*
X129009422Y-87679260D01*
X129100327Y-87861821D01*
X129223237Y-88024581D01*
X129373958Y-88161980D01*
X129373960Y-88161982D01*
X129473141Y-88223392D01*
X129547363Y-88269348D01*
X129737544Y-88343024D01*
X129938024Y-88380500D01*
X129938026Y-88380500D01*
X130141974Y-88380500D01*
X130141976Y-88380500D01*
X130342456Y-88343024D01*
X130532637Y-88269348D01*
X130706041Y-88161981D01*
X130856764Y-88024579D01*
X130979673Y-87861821D01*
X131010456Y-87800000D01*
X132445001Y-87800000D01*
X132445001Y-88531479D01*
X132459835Y-88625149D01*
X132459837Y-88625155D01*
X132517356Y-88738041D01*
X132517363Y-88738050D01*
X132606949Y-88827636D01*
X132606953Y-88827639D01*
X132719855Y-88885166D01*
X132813514Y-88899999D01*
X132869999Y-88899998D01*
X132870000Y-88899998D01*
X132870000Y-87800000D01*
X132445001Y-87800000D01*
X131010456Y-87800000D01*
X131070582Y-87679250D01*
X131107357Y-87550000D01*
X132445000Y-87550000D01*
X132870000Y-87550000D01*
X132870000Y-86450000D01*
X132869999Y-86449999D01*
X132813521Y-86450000D01*
X132719849Y-86464835D01*
X132719844Y-86464837D01*
X132606958Y-86522356D01*
X132606949Y-86522363D01*
X132517363Y-86611949D01*
X132517360Y-86611953D01*
X132459833Y-86724855D01*
X132445000Y-86818513D01*
X132445000Y-87550000D01*
X131107357Y-87550000D01*
X131126397Y-87483083D01*
X131145215Y-87280000D01*
X131131875Y-87136043D01*
X131145290Y-87067477D01*
X131167662Y-87036927D01*
X131992772Y-86211819D01*
X132054095Y-86178334D01*
X132080453Y-86175500D01*
X132738393Y-86175500D01*
X132738394Y-86175500D01*
X133088394Y-86175500D01*
X135795613Y-86175500D01*
X135862652Y-86195185D01*
X135883294Y-86211819D01*
X135927287Y-86255812D01*
X135960772Y-86317135D01*
X135955788Y-86386827D01*
X135913916Y-86442760D01*
X135848452Y-86467177D01*
X135820280Y-86463746D01*
X135819943Y-86465880D01*
X135716524Y-86449500D01*
X135353482Y-86449500D01*
X135272519Y-86462323D01*
X135259696Y-86464354D01*
X135146658Y-86521950D01*
X135146657Y-86521951D01*
X135146652Y-86521954D01*
X135056954Y-86611652D01*
X135056949Y-86611659D01*
X135010483Y-86702852D01*
X134962508Y-86753648D01*
X134894687Y-86770442D01*
X134828552Y-86747904D01*
X134789516Y-86702852D01*
X134743050Y-86611658D01*
X134743047Y-86611655D01*
X134743045Y-86611652D01*
X134653347Y-86521954D01*
X134653344Y-86521952D01*
X134653342Y-86521950D01*
X134561198Y-86475000D01*
X134540301Y-86464352D01*
X134446524Y-86449500D01*
X134083482Y-86449500D01*
X134002519Y-86462323D01*
X133989696Y-86464354D01*
X133876658Y-86521950D01*
X133876657Y-86521951D01*
X133876652Y-86521954D01*
X133786954Y-86611652D01*
X133786949Y-86611659D01*
X133740203Y-86703401D01*
X133692228Y-86754197D01*
X133624407Y-86770991D01*
X133558272Y-86748453D01*
X133519234Y-86703400D01*
X133472639Y-86611954D01*
X133472636Y-86611949D01*
X133383050Y-86522363D01*
X133383046Y-86522360D01*
X133270144Y-86464833D01*
X133176486Y-86450000D01*
X133120000Y-86450000D01*
X133120000Y-88899999D01*
X133176479Y-88899999D01*
X133231104Y-88891348D01*
X133300397Y-88900304D01*
X133353848Y-88945301D01*
X133374487Y-89012053D01*
X133374500Y-89013822D01*
X133374500Y-96325765D01*
X133413719Y-96472136D01*
X133451602Y-96537750D01*
X133489485Y-96603365D01*
X133489487Y-96603367D01*
X134913181Y-98027061D01*
X134946666Y-98088384D01*
X134949500Y-98114742D01*
X134949500Y-100124678D01*
X134964032Y-100197735D01*
X134964033Y-100197739D01*
X134964034Y-100197740D01*
X135019399Y-100280601D01*
X135097646Y-100332883D01*
X135102260Y-100335966D01*
X135102264Y-100335967D01*
X135175321Y-100350499D01*
X135175324Y-100350500D01*
X135175326Y-100350500D01*
X137824676Y-100350500D01*
X137824677Y-100350499D01*
X137897740Y-100335966D01*
X137980601Y-100280601D01*
X138035966Y-100197740D01*
X138050500Y-100124674D01*
X138050500Y-97475326D01*
X138050500Y-97475323D01*
X138050499Y-97475321D01*
X138035967Y-97402264D01*
X138035966Y-97402260D01*
X137980601Y-97319399D01*
X137897740Y-97264034D01*
X137897739Y-97264033D01*
X137897735Y-97264032D01*
X137824677Y-97249500D01*
X137824674Y-97249500D01*
X135814742Y-97249500D01*
X135747703Y-97229815D01*
X135727061Y-97213181D01*
X134561819Y-96047939D01*
X134528334Y-95986616D01*
X134525500Y-95960258D01*
X134525500Y-93002114D01*
X134545185Y-92935075D01*
X134597989Y-92889320D01*
X134667147Y-92879376D01*
X134668899Y-92879641D01*
X134718515Y-92887499D01*
X134774999Y-92887498D01*
X134775000Y-92887498D01*
X134775000Y-90912500D01*
X134774999Y-90912499D01*
X134718520Y-90912500D01*
X134668896Y-90920360D01*
X134599603Y-90911404D01*
X134546152Y-90866407D01*
X134525513Y-90799655D01*
X134525500Y-90797886D01*
X134525500Y-89239741D01*
X134545185Y-89172702D01*
X134561818Y-89152061D01*
X134574138Y-89139741D01*
X134618363Y-89095516D01*
X134618365Y-89095515D01*
X134725515Y-88988365D01*
X134801281Y-88857135D01*
X134804686Y-88844423D01*
X134841049Y-88784765D01*
X134903895Y-88754234D01*
X134973271Y-88762527D01*
X135027150Y-88807011D01*
X135031848Y-88814516D01*
X135074485Y-88888365D01*
X135238182Y-89052061D01*
X135271666Y-89113382D01*
X135274500Y-89139741D01*
X135274500Y-90797885D01*
X135254815Y-90864924D01*
X135202011Y-90910679D01*
X135132853Y-90920623D01*
X135131103Y-90920358D01*
X135081488Y-90912500D01*
X135025000Y-90912500D01*
X135025000Y-92887499D01*
X135081483Y-92887499D01*
X135131102Y-92879640D01*
X135200395Y-92888594D01*
X135253847Y-92933590D01*
X135274487Y-93000342D01*
X135274500Y-93002113D01*
X135274500Y-93145766D01*
X135282622Y-93176079D01*
X135313719Y-93292136D01*
X135351602Y-93357750D01*
X135389485Y-93423365D01*
X135389487Y-93423367D01*
X140096332Y-98130212D01*
X140129817Y-98191535D01*
X140124833Y-98261227D01*
X140123213Y-98265345D01*
X140100828Y-98319388D01*
X140050928Y-98527229D01*
X140043853Y-98556702D01*
X140024706Y-98800000D01*
X140043853Y-99043297D01*
X140043853Y-99043300D01*
X140043854Y-99043302D01*
X140059360Y-99107890D01*
X140100830Y-99280619D01*
X140194222Y-99506089D01*
X140321737Y-99714173D01*
X140321738Y-99714176D01*
X140375449Y-99777063D01*
X140480241Y-99899759D01*
X140623897Y-100022453D01*
X140665823Y-100058261D01*
X140665826Y-100058262D01*
X140873910Y-100185777D01*
X141099381Y-100279169D01*
X141099378Y-100279169D01*
X141099384Y-100279170D01*
X141099388Y-100279172D01*
X141336698Y-100336146D01*
X141580000Y-100355294D01*
X141823302Y-100336146D01*
X142060612Y-100279172D01*
X142286089Y-100185777D01*
X142385875Y-100124628D01*
X146150000Y-100124628D01*
X146164503Y-100197540D01*
X146164505Y-100197544D01*
X146219760Y-100280239D01*
X146302455Y-100335494D01*
X146302459Y-100335496D01*
X146375371Y-100349999D01*
X146375374Y-100350000D01*
X147575000Y-100350000D01*
X147575000Y-99437870D01*
X147635981Y-99450000D01*
X147764019Y-99450000D01*
X147825000Y-99437870D01*
X147825000Y-100350000D01*
X149024626Y-100350000D01*
X149024628Y-100349999D01*
X149097540Y-100335496D01*
X149097544Y-100335494D01*
X149180239Y-100280239D01*
X149235494Y-100197544D01*
X149235496Y-100197540D01*
X149249999Y-100124628D01*
X149250000Y-100124626D01*
X149250000Y-98925000D01*
X148337870Y-98925000D01*
X148350000Y-98864019D01*
X148350000Y-98800000D01*
X151224706Y-98800000D01*
X151243853Y-99043297D01*
X151243853Y-99043300D01*
X151243854Y-99043302D01*
X151259360Y-99107890D01*
X151300830Y-99280619D01*
X151394222Y-99506089D01*
X151521737Y-99714173D01*
X151521738Y-99714176D01*
X151575449Y-99777063D01*
X151680241Y-99899759D01*
X151823897Y-100022453D01*
X151865823Y-100058261D01*
X151865826Y-100058262D01*
X152073910Y-100185777D01*
X152299381Y-100279169D01*
X152299378Y-100279169D01*
X152299384Y-100279170D01*
X152299388Y-100279172D01*
X152536698Y-100336146D01*
X152780000Y-100355294D01*
X153023302Y-100336146D01*
X153260612Y-100279172D01*
X153486089Y-100185777D01*
X153694179Y-100058259D01*
X153879759Y-99899759D01*
X154038259Y-99714179D01*
X154102278Y-99609710D01*
X154154089Y-99562835D01*
X154208005Y-99550500D01*
X156442927Y-99550500D01*
X156509966Y-99570185D01*
X156555721Y-99622989D01*
X156562586Y-99644244D01*
X156564033Y-99647739D01*
X156564034Y-99647740D01*
X156619399Y-99730601D01*
X156702260Y-99785966D01*
X156702264Y-99785967D01*
X156775321Y-99800499D01*
X156775324Y-99800500D01*
X156775326Y-99800500D01*
X158624676Y-99800500D01*
X158624677Y-99800499D01*
X158697740Y-99785966D01*
X158780601Y-99730601D01*
X158835966Y-99647740D01*
X158850500Y-99574674D01*
X158850500Y-97025326D01*
X158850500Y-97025323D01*
X158850499Y-97025321D01*
X158835967Y-96952264D01*
X158835966Y-96952260D01*
X158780601Y-96869399D01*
X158697740Y-96814034D01*
X158697739Y-96814033D01*
X158697735Y-96814032D01*
X158624677Y-96799500D01*
X158624674Y-96799500D01*
X156775326Y-96799500D01*
X156775323Y-96799500D01*
X156702264Y-96814032D01*
X156702260Y-96814033D01*
X156619399Y-96869399D01*
X156564033Y-96952260D01*
X156564032Y-96952264D01*
X156549500Y-97025321D01*
X156549500Y-97925500D01*
X156529815Y-97992539D01*
X156477011Y-98038294D01*
X156425500Y-98049500D01*
X154208005Y-98049500D01*
X154140966Y-98029815D01*
X154102278Y-97990290D01*
X154038262Y-97885825D01*
X154038261Y-97885823D01*
X154002453Y-97843897D01*
X153879759Y-97700241D01*
X153757063Y-97595449D01*
X153694176Y-97541738D01*
X153694173Y-97541737D01*
X153486089Y-97414222D01*
X153260618Y-97320830D01*
X153260621Y-97320830D01*
X153154992Y-97295470D01*
X153023302Y-97263854D01*
X153023300Y-97263853D01*
X153023297Y-97263853D01*
X152780000Y-97244706D01*
X152536702Y-97263853D01*
X152535952Y-97264033D01*
X152303837Y-97319760D01*
X152299380Y-97320830D01*
X152073910Y-97414222D01*
X151865826Y-97541737D01*
X151865823Y-97541738D01*
X151680241Y-97700241D01*
X151521738Y-97885823D01*
X151521737Y-97885826D01*
X151394222Y-98093910D01*
X151300830Y-98319380D01*
X151243853Y-98556702D01*
X151224706Y-98800000D01*
X148350000Y-98800000D01*
X148350000Y-98735981D01*
X148337870Y-98675000D01*
X149250000Y-98675000D01*
X149250000Y-97475373D01*
X149249999Y-97475371D01*
X149235496Y-97402459D01*
X149235494Y-97402455D01*
X149180239Y-97319760D01*
X149097544Y-97264505D01*
X149097540Y-97264503D01*
X149024627Y-97250000D01*
X147825000Y-97250000D01*
X147825000Y-98162129D01*
X147764019Y-98150000D01*
X147635981Y-98150000D01*
X147575000Y-98162129D01*
X147575000Y-97250000D01*
X146375373Y-97250000D01*
X146302459Y-97264503D01*
X146302455Y-97264505D01*
X146219760Y-97319760D01*
X146164505Y-97402455D01*
X146164503Y-97402459D01*
X146150000Y-97475371D01*
X146150000Y-98675000D01*
X147062130Y-98675000D01*
X147050000Y-98735981D01*
X147050000Y-98864019D01*
X147062130Y-98925000D01*
X146150000Y-98925000D01*
X146150000Y-100124628D01*
X142385875Y-100124628D01*
X142494179Y-100058259D01*
X142679759Y-99899759D01*
X142838259Y-99714179D01*
X142965777Y-99506089D01*
X143059172Y-99280612D01*
X143116146Y-99043302D01*
X143135294Y-98800000D01*
X143116146Y-98556698D01*
X143059172Y-98319388D01*
X143049117Y-98295112D01*
X142965777Y-98093910D01*
X142838262Y-97885826D01*
X142838261Y-97885823D01*
X142802453Y-97843897D01*
X142679759Y-97700241D01*
X142557063Y-97595449D01*
X142494176Y-97541738D01*
X142494173Y-97541737D01*
X142286089Y-97414222D01*
X142060618Y-97320830D01*
X142060621Y-97320830D01*
X141954992Y-97295470D01*
X141823302Y-97263854D01*
X141823300Y-97263853D01*
X141823297Y-97263853D01*
X141580000Y-97244706D01*
X141336702Y-97263853D01*
X141335952Y-97264033D01*
X141099388Y-97320828D01*
X141099386Y-97320828D01*
X141099385Y-97320829D01*
X141045345Y-97343213D01*
X140975875Y-97350681D01*
X140913396Y-97319405D01*
X140910212Y-97316332D01*
X136461819Y-92867939D01*
X136428334Y-92806616D01*
X136425500Y-92780258D01*
X136425500Y-91375000D01*
X139574785Y-91375000D01*
X139593602Y-91578082D01*
X139649417Y-91774247D01*
X139649422Y-91774260D01*
X139740327Y-91956821D01*
X139863237Y-92119581D01*
X140013958Y-92256980D01*
X140013960Y-92256982D01*
X140108718Y-92315653D01*
X140187363Y-92364348D01*
X140377544Y-92438024D01*
X140578024Y-92475500D01*
X140578026Y-92475500D01*
X140781974Y-92475500D01*
X140781976Y-92475500D01*
X140982456Y-92438024D01*
X141172637Y-92364348D01*
X141346041Y-92256981D01*
X141496764Y-92119579D01*
X141619673Y-91956821D01*
X141710582Y-91774250D01*
X141766397Y-91578083D01*
X141785215Y-91375000D01*
X141779115Y-91309174D01*
X141766397Y-91171917D01*
X141738821Y-91075000D01*
X141710582Y-90975750D01*
X141710159Y-90974901D01*
X141656136Y-90866407D01*
X141619673Y-90793179D01*
X141496764Y-90630421D01*
X141496762Y-90630418D01*
X141356253Y-90502328D01*
X141319971Y-90442617D01*
X141321732Y-90372769D01*
X141360975Y-90314962D01*
X141365480Y-90311424D01*
X141372329Y-90306296D01*
X141372331Y-90306296D01*
X141487546Y-90220046D01*
X141573796Y-90104831D01*
X141624091Y-89969983D01*
X141630500Y-89910373D01*
X141630499Y-89289628D01*
X141624091Y-89230017D01*
X141606522Y-89182913D01*
X141573797Y-89095171D01*
X141573793Y-89095164D01*
X141487547Y-88979955D01*
X141487544Y-88979952D01*
X141372335Y-88893706D01*
X141372328Y-88893702D01*
X141237482Y-88843408D01*
X141237483Y-88843408D01*
X141177883Y-88837001D01*
X141177881Y-88837000D01*
X141177873Y-88837000D01*
X141177864Y-88837000D01*
X140182129Y-88837000D01*
X140182123Y-88837001D01*
X140122516Y-88843408D01*
X139987671Y-88893702D01*
X139987664Y-88893706D01*
X139872455Y-88979952D01*
X139872452Y-88979955D01*
X139786206Y-89095164D01*
X139786202Y-89095171D01*
X139735910Y-89230013D01*
X139735909Y-89230017D01*
X139729500Y-89289627D01*
X139729500Y-89289634D01*
X139729500Y-89289635D01*
X139729500Y-89910370D01*
X139729501Y-89910376D01*
X139735908Y-89969983D01*
X139786202Y-90104828D01*
X139786206Y-90104835D01*
X139872452Y-90220044D01*
X139872455Y-90220047D01*
X139994519Y-90311425D01*
X140036390Y-90367359D01*
X140041374Y-90437050D01*
X140007888Y-90498373D01*
X140003746Y-90502328D01*
X139863237Y-90630418D01*
X139740327Y-90793178D01*
X139649422Y-90975739D01*
X139649417Y-90975752D01*
X139593602Y-91171917D01*
X139574785Y-91374999D01*
X139574785Y-91375000D01*
X136425500Y-91375000D01*
X136425500Y-89014328D01*
X136445185Y-88947289D01*
X136497989Y-88901534D01*
X136567147Y-88891590D01*
X136568883Y-88891852D01*
X136623481Y-88900500D01*
X136986518Y-88900499D01*
X137080304Y-88885646D01*
X137193342Y-88828050D01*
X137283050Y-88738342D01*
X137340646Y-88625304D01*
X137340646Y-88625302D01*
X137340647Y-88625301D01*
X137355500Y-88531524D01*
X137355500Y-86724386D01*
X137375185Y-86657347D01*
X137391819Y-86636705D01*
X137586378Y-86442146D01*
X137784287Y-86244236D01*
X137845608Y-86210753D01*
X137915299Y-86215737D01*
X137959647Y-86244238D01*
X137994783Y-86279374D01*
X138064141Y-86348732D01*
X138064142Y-86348733D01*
X138151267Y-86435858D01*
X138195007Y-86465084D01*
X138253714Y-86504311D01*
X138253715Y-86504311D01*
X138253716Y-86504312D01*
X138257072Y-86505702D01*
X138367548Y-86551463D01*
X138443820Y-86566634D01*
X138488388Y-86575499D01*
X138488392Y-86575500D01*
X138488393Y-86575500D01*
X138488394Y-86575500D01*
X138550165Y-86575500D01*
X138617204Y-86595185D01*
X138624476Y-86600233D01*
X138678943Y-86641007D01*
X138682668Y-86643795D01*
X138682671Y-86643797D01*
X138817517Y-86694091D01*
X138817516Y-86694091D01*
X138824444Y-86694835D01*
X138877127Y-86700500D01*
X139922872Y-86700499D01*
X139982483Y-86694091D01*
X140117331Y-86643796D01*
X140175524Y-86600233D01*
X140240989Y-86575816D01*
X140249835Y-86575500D01*
X140511607Y-86575500D01*
X140572029Y-86563481D01*
X140632452Y-86551463D01*
X140632455Y-86551461D01*
X140632458Y-86551461D01*
X140665787Y-86537654D01*
X140665786Y-86537654D01*
X140665792Y-86537652D01*
X140746286Y-86504312D01*
X140806086Y-86464354D01*
X140848733Y-86435858D01*
X140935858Y-86348733D01*
X140935858Y-86348731D01*
X140946066Y-86338524D01*
X140946070Y-86338528D01*
X140946093Y-86338495D01*
X140947797Y-86336792D01*
X141009130Y-86303325D01*
X141035452Y-86300499D01*
X141192324Y-86300499D01*
X141259363Y-86320184D01*
X141305118Y-86372988D01*
X141315062Y-86442146D01*
X141286037Y-86505702D01*
X141280005Y-86512180D01*
X140816503Y-86975681D01*
X140755180Y-87009166D01*
X140728822Y-87012000D01*
X140182129Y-87012000D01*
X140182123Y-87012001D01*
X140122516Y-87018408D01*
X139987671Y-87068702D01*
X139987664Y-87068706D01*
X139872455Y-87154952D01*
X139872452Y-87154955D01*
X139786206Y-87270164D01*
X139786202Y-87270171D01*
X139735911Y-87405011D01*
X139735909Y-87405017D01*
X139729500Y-87464627D01*
X139729500Y-87464634D01*
X139729500Y-87464635D01*
X139729500Y-88085370D01*
X139729501Y-88085376D01*
X139735908Y-88144983D01*
X139786202Y-88279828D01*
X139786206Y-88279835D01*
X139872452Y-88395044D01*
X139872455Y-88395047D01*
X139987664Y-88481293D01*
X139987671Y-88481297D01*
X140122517Y-88531591D01*
X140122516Y-88531591D01*
X140129444Y-88532335D01*
X140182127Y-88538000D01*
X141177872Y-88537999D01*
X141237483Y-88531591D01*
X141372331Y-88481296D01*
X141487546Y-88395046D01*
X141573796Y-88279831D01*
X141624091Y-88144983D01*
X141630500Y-88085373D01*
X141630499Y-87628674D01*
X141650183Y-87561636D01*
X141666809Y-87541003D01*
X141970996Y-87236816D01*
X142032318Y-87203334D01*
X142058676Y-87200500D01*
X142173595Y-87200500D01*
X142240634Y-87220185D01*
X142286389Y-87272989D01*
X142296333Y-87342147D01*
X142289777Y-87367832D01*
X142275910Y-87405011D01*
X142275910Y-87405013D01*
X142275909Y-87405017D01*
X142269500Y-87464627D01*
X142269500Y-87464634D01*
X142269500Y-87464635D01*
X142269500Y-88085370D01*
X142269501Y-88085376D01*
X142275908Y-88144983D01*
X142326202Y-88279828D01*
X142326206Y-88279835D01*
X142412452Y-88395044D01*
X142412455Y-88395047D01*
X142527664Y-88481293D01*
X142527671Y-88481297D01*
X142549622Y-88489484D01*
X142662517Y-88531591D01*
X142722127Y-88538000D01*
X143223823Y-88537999D01*
X143290862Y-88557683D01*
X143311504Y-88574318D01*
X143362505Y-88625319D01*
X143395990Y-88686642D01*
X143391006Y-88756334D01*
X143349134Y-88812267D01*
X143283670Y-88836684D01*
X143274824Y-88837000D01*
X142722129Y-88837000D01*
X142722123Y-88837001D01*
X142662516Y-88843408D01*
X142527671Y-88893702D01*
X142527664Y-88893706D01*
X142412455Y-88979952D01*
X142412452Y-88979955D01*
X142326206Y-89095164D01*
X142326202Y-89095171D01*
X142275910Y-89230013D01*
X142275909Y-89230017D01*
X142269500Y-89289627D01*
X142269500Y-89289634D01*
X142269500Y-89289635D01*
X142269500Y-89910370D01*
X142269501Y-89910376D01*
X142275908Y-89969983D01*
X142326202Y-90104828D01*
X142326206Y-90104835D01*
X142412452Y-90220044D01*
X142412455Y-90220047D01*
X142534519Y-90311425D01*
X142576390Y-90367359D01*
X142581374Y-90437050D01*
X142547888Y-90498373D01*
X142543746Y-90502328D01*
X142403237Y-90630418D01*
X142280327Y-90793178D01*
X142189422Y-90975739D01*
X142189417Y-90975752D01*
X142133602Y-91171917D01*
X142114785Y-91374999D01*
X142114785Y-91375000D01*
X142133602Y-91578082D01*
X142189417Y-91774247D01*
X142189422Y-91774260D01*
X142280327Y-91956821D01*
X142403237Y-92119581D01*
X142553958Y-92256980D01*
X142553960Y-92256982D01*
X142648718Y-92315653D01*
X142727363Y-92364348D01*
X142917544Y-92438024D01*
X143118024Y-92475500D01*
X143118026Y-92475500D01*
X143321974Y-92475500D01*
X143321976Y-92475500D01*
X143522456Y-92438024D01*
X143712637Y-92364348D01*
X143886041Y-92256981D01*
X144036764Y-92119579D01*
X144159673Y-91956821D01*
X144250582Y-91774250D01*
X144306397Y-91578083D01*
X144325215Y-91375000D01*
X144319115Y-91309174D01*
X144313632Y-91249999D01*
X144666869Y-91249999D01*
X144666870Y-91250000D01*
X145275856Y-91250000D01*
X145260000Y-91309174D01*
X145260000Y-91440826D01*
X145275856Y-91500000D01*
X144666870Y-91500000D01*
X144674097Y-91577989D01*
X144674097Y-91577992D01*
X144729883Y-91774063D01*
X144729886Y-91774069D01*
X144820754Y-91956556D01*
X144943608Y-92119242D01*
X145094260Y-92256578D01*
X145267584Y-92363897D01*
X145457678Y-92437539D01*
X145635000Y-92470686D01*
X145635000Y-91859144D01*
X145694174Y-91875000D01*
X145825826Y-91875000D01*
X145885000Y-91859144D01*
X145885000Y-92470686D01*
X146062321Y-92437539D01*
X146252415Y-92363897D01*
X146425739Y-92256578D01*
X146576391Y-92119242D01*
X146699245Y-91956556D01*
X146790113Y-91774069D01*
X146790116Y-91774063D01*
X146845902Y-91577992D01*
X146845902Y-91577989D01*
X146853130Y-91500000D01*
X146244144Y-91500000D01*
X146260000Y-91440826D01*
X146260000Y-91309174D01*
X146244144Y-91250000D01*
X146853130Y-91250000D01*
X146853130Y-91249999D01*
X146845902Y-91172010D01*
X146845902Y-91172007D01*
X146790116Y-90975936D01*
X146790113Y-90975930D01*
X146699245Y-90793443D01*
X146576391Y-90630757D01*
X146425739Y-90493421D01*
X146252415Y-90386102D01*
X146062321Y-90312460D01*
X145885000Y-90279312D01*
X145885000Y-90890855D01*
X145825826Y-90875000D01*
X145694174Y-90875000D01*
X145635000Y-90890855D01*
X145635000Y-90279312D01*
X145457678Y-90312460D01*
X145267584Y-90386102D01*
X145094260Y-90493421D01*
X144943608Y-90630757D01*
X144820754Y-90793443D01*
X144729886Y-90975930D01*
X144729883Y-90975936D01*
X144674097Y-91172007D01*
X144674097Y-91172010D01*
X144666869Y-91249999D01*
X144313632Y-91249999D01*
X144306397Y-91171917D01*
X144278821Y-91075000D01*
X144250582Y-90975750D01*
X144250159Y-90974901D01*
X144196136Y-90866407D01*
X144159673Y-90793179D01*
X144036764Y-90630421D01*
X144036762Y-90630418D01*
X143896253Y-90502328D01*
X143859971Y-90442617D01*
X143861732Y-90372769D01*
X143900975Y-90314962D01*
X143905480Y-90311424D01*
X143912329Y-90306296D01*
X143912331Y-90306296D01*
X144027546Y-90220046D01*
X144113796Y-90104831D01*
X144164091Y-89969983D01*
X144170500Y-89910373D01*
X144170499Y-89289628D01*
X144164091Y-89230017D01*
X144146522Y-89182913D01*
X144140898Y-89167833D01*
X144135914Y-89098142D01*
X144169399Y-89036818D01*
X144230722Y-89003334D01*
X144257080Y-89000500D01*
X149865890Y-89000500D01*
X149865892Y-89000500D01*
X149993186Y-88966392D01*
X150107314Y-88900500D01*
X150782812Y-88225000D01*
X151125000Y-88225000D01*
X151125000Y-88397844D01*
X151131401Y-88457372D01*
X151131403Y-88457379D01*
X151181645Y-88592086D01*
X151181649Y-88592093D01*
X151267809Y-88707187D01*
X151267812Y-88707190D01*
X151382906Y-88793350D01*
X151382913Y-88793354D01*
X151517620Y-88843596D01*
X151517627Y-88843598D01*
X151577155Y-88849999D01*
X151577172Y-88850000D01*
X151975000Y-88850000D01*
X151975000Y-88225000D01*
X151125000Y-88225000D01*
X150782812Y-88225000D01*
X150913321Y-88094491D01*
X150967979Y-88064646D01*
X150988461Y-88019797D01*
X150994478Y-88013334D01*
X150996495Y-88011317D01*
X151057816Y-87977834D01*
X151084174Y-87975000D01*
X151975000Y-87975000D01*
X151975000Y-87350000D01*
X151957174Y-87350000D01*
X151890135Y-87330315D01*
X151844380Y-87277511D01*
X151834436Y-87208353D01*
X151863461Y-87144797D01*
X151869493Y-87138319D01*
X152020994Y-86986818D01*
X152082317Y-86953333D01*
X152108675Y-86950499D01*
X152622871Y-86950499D01*
X152622872Y-86950499D01*
X152682483Y-86944091D01*
X152817331Y-86893796D01*
X152932546Y-86807546D01*
X152994800Y-86724386D01*
X153024112Y-86685231D01*
X153026145Y-86686753D01*
X153066063Y-86646828D01*
X153134335Y-86631970D01*
X153199801Y-86656381D01*
X153241678Y-86712311D01*
X153249500Y-86755655D01*
X153249500Y-87545397D01*
X153229815Y-87612436D01*
X153177011Y-87658191D01*
X153107853Y-87668135D01*
X153044297Y-87639110D01*
X153024421Y-87614447D01*
X153023669Y-87615011D01*
X152932190Y-87492812D01*
X152932187Y-87492809D01*
X152817093Y-87406649D01*
X152817086Y-87406645D01*
X152682379Y-87356403D01*
X152682372Y-87356401D01*
X152622844Y-87350000D01*
X152225000Y-87350000D01*
X152225000Y-88850000D01*
X152622828Y-88850000D01*
X152622844Y-88849999D01*
X152682372Y-88843598D01*
X152682379Y-88843596D01*
X152817086Y-88793354D01*
X152817093Y-88793350D01*
X152932187Y-88707190D01*
X152932190Y-88707187D01*
X153023669Y-88584989D01*
X153025491Y-88586353D01*
X153066068Y-88545773D01*
X153134340Y-88530917D01*
X153199806Y-88555331D01*
X153241680Y-88611263D01*
X153249500Y-88654602D01*
X153249500Y-89237770D01*
X153229815Y-89304809D01*
X153213181Y-89325451D01*
X151950451Y-90588181D01*
X151889128Y-90621666D01*
X151862770Y-90624500D01*
X149524500Y-90624500D01*
X149457461Y-90604815D01*
X149411706Y-90552011D01*
X149401766Y-90506320D01*
X149401097Y-90506386D01*
X149400531Y-90500645D01*
X149400500Y-90500500D01*
X149400500Y-90500323D01*
X149400499Y-90500321D01*
X149385967Y-90427264D01*
X149385966Y-90427260D01*
X149377663Y-90414833D01*
X149330601Y-90344399D01*
X149247740Y-90289034D01*
X149247739Y-90289033D01*
X149247735Y-90289032D01*
X149174677Y-90274500D01*
X149174674Y-90274500D01*
X147425326Y-90274500D01*
X147425323Y-90274500D01*
X147352264Y-90289032D01*
X147352260Y-90289033D01*
X147269399Y-90344399D01*
X147214033Y-90427260D01*
X147214032Y-90427264D01*
X147199500Y-90500321D01*
X147199500Y-92249678D01*
X147214032Y-92322735D01*
X147214033Y-92322739D01*
X147214034Y-92322740D01*
X147269399Y-92405601D01*
X147346839Y-92457344D01*
X147352260Y-92460966D01*
X147352264Y-92460967D01*
X147425321Y-92475499D01*
X147425324Y-92475500D01*
X147425326Y-92475500D01*
X149174676Y-92475500D01*
X149174677Y-92475499D01*
X149247740Y-92460966D01*
X149330601Y-92405601D01*
X149385966Y-92322740D01*
X149400500Y-92249674D01*
X149400500Y-92249500D01*
X149400526Y-92249410D01*
X149401097Y-92243614D01*
X149402196Y-92243722D01*
X149420185Y-92182461D01*
X149472989Y-92136706D01*
X149524500Y-92125500D01*
X152298920Y-92125500D01*
X152396462Y-92106096D01*
X152443913Y-92096658D01*
X152580495Y-92040084D01*
X152639737Y-92000500D01*
X152639737Y-92000499D01*
X152639739Y-92000499D01*
X152671576Y-91979226D01*
X152703416Y-91957952D01*
X153586368Y-91075000D01*
X155537501Y-91075000D01*
X155537501Y-91131479D01*
X155552335Y-91225149D01*
X155552337Y-91225155D01*
X155609856Y-91338041D01*
X155609863Y-91338050D01*
X155699449Y-91427636D01*
X155699453Y-91427639D01*
X155812355Y-91485166D01*
X155906014Y-91499999D01*
X156399999Y-91499999D01*
X156400000Y-91499998D01*
X156400000Y-91075000D01*
X155537501Y-91075000D01*
X153586368Y-91075000D01*
X153836368Y-90825000D01*
X155537500Y-90825000D01*
X156400000Y-90825000D01*
X156400000Y-90400000D01*
X155906020Y-90400000D01*
X155812350Y-90414835D01*
X155812344Y-90414837D01*
X155699458Y-90472356D01*
X155699449Y-90472363D01*
X155609863Y-90561949D01*
X155609860Y-90561953D01*
X155552333Y-90674855D01*
X155537500Y-90768513D01*
X155537500Y-90825000D01*
X153836368Y-90825000D01*
X154582952Y-90078416D01*
X154655401Y-89969986D01*
X154655403Y-89969984D01*
X154665081Y-89955499D01*
X154665084Y-89955495D01*
X154721658Y-89818913D01*
X154740399Y-89724697D01*
X154750500Y-89673920D01*
X154750500Y-86855000D01*
X155125000Y-86855000D01*
X155125000Y-87027844D01*
X155131401Y-87087372D01*
X155131403Y-87087379D01*
X155181645Y-87222086D01*
X155181649Y-87222093D01*
X155267809Y-87337187D01*
X155267812Y-87337190D01*
X155382906Y-87423350D01*
X155382913Y-87423354D01*
X155517620Y-87473596D01*
X155517627Y-87473598D01*
X155577155Y-87479999D01*
X155577172Y-87480000D01*
X155975000Y-87480000D01*
X155975000Y-86855000D01*
X155125000Y-86855000D01*
X154750500Y-86855000D01*
X154750500Y-86605000D01*
X155125000Y-86605000D01*
X155975000Y-86605000D01*
X155975000Y-85980000D01*
X156225000Y-85980000D01*
X156225000Y-87480000D01*
X156622828Y-87480000D01*
X156622844Y-87479999D01*
X156682372Y-87473598D01*
X156682379Y-87473596D01*
X156817086Y-87423354D01*
X156817093Y-87423350D01*
X156932187Y-87337190D01*
X156932190Y-87337187D01*
X157018350Y-87222093D01*
X157018354Y-87222086D01*
X157033818Y-87180626D01*
X157075689Y-87124692D01*
X157141153Y-87100275D01*
X157209426Y-87115126D01*
X157258832Y-87164531D01*
X157266182Y-87180626D01*
X157281645Y-87222086D01*
X157281649Y-87222093D01*
X157367809Y-87337187D01*
X157367812Y-87337190D01*
X157482906Y-87423350D01*
X157482913Y-87423354D01*
X157617620Y-87473596D01*
X157617627Y-87473598D01*
X157677155Y-87479999D01*
X157677172Y-87480000D01*
X158075000Y-87480000D01*
X158075000Y-86855000D01*
X158325000Y-86855000D01*
X158325000Y-87480000D01*
X158722828Y-87480000D01*
X158722844Y-87479999D01*
X158782372Y-87473598D01*
X158782379Y-87473596D01*
X158917086Y-87423354D01*
X158917093Y-87423350D01*
X159032187Y-87337190D01*
X159032190Y-87337187D01*
X159118350Y-87222093D01*
X159118354Y-87222086D01*
X159168596Y-87087379D01*
X159168598Y-87087372D01*
X159174999Y-87027844D01*
X159175000Y-87027827D01*
X159175000Y-86855000D01*
X158325000Y-86855000D01*
X158075000Y-86855000D01*
X158075000Y-85980000D01*
X158325000Y-85980000D01*
X158325000Y-86605000D01*
X159175000Y-86605000D01*
X159175000Y-86432172D01*
X159174999Y-86432155D01*
X159168598Y-86372627D01*
X159168596Y-86372620D01*
X159118354Y-86237913D01*
X159118350Y-86237906D01*
X159032190Y-86122812D01*
X159032187Y-86122809D01*
X158917093Y-86036649D01*
X158917086Y-86036645D01*
X158782379Y-85986403D01*
X158782372Y-85986401D01*
X158722844Y-85980000D01*
X158325000Y-85980000D01*
X158075000Y-85980000D01*
X157677155Y-85980000D01*
X157617627Y-85986401D01*
X157617620Y-85986403D01*
X157482913Y-86036645D01*
X157482906Y-86036649D01*
X157367812Y-86122809D01*
X157367809Y-86122812D01*
X157281649Y-86237906D01*
X157281646Y-86237911D01*
X157266182Y-86279374D01*
X157224310Y-86335307D01*
X157158846Y-86359724D01*
X157090573Y-86344872D01*
X157041168Y-86295467D01*
X157033818Y-86279374D01*
X157018353Y-86237911D01*
X157018350Y-86237906D01*
X156932190Y-86122812D01*
X156932187Y-86122809D01*
X156817093Y-86036649D01*
X156817086Y-86036645D01*
X156682379Y-85986403D01*
X156682372Y-85986401D01*
X156622844Y-85980000D01*
X156225000Y-85980000D01*
X155975000Y-85980000D01*
X155577155Y-85980000D01*
X155517627Y-85986401D01*
X155517620Y-85986403D01*
X155382913Y-86036645D01*
X155382906Y-86036649D01*
X155267812Y-86122809D01*
X155267809Y-86122812D01*
X155181649Y-86237906D01*
X155181645Y-86237913D01*
X155131403Y-86372620D01*
X155131401Y-86372627D01*
X155125000Y-86432155D01*
X155125000Y-86605000D01*
X154750500Y-86605000D01*
X154750500Y-86162229D01*
X154770185Y-86095190D01*
X154786819Y-86074548D01*
X155244548Y-85616819D01*
X155305871Y-85583334D01*
X155332229Y-85580500D01*
X155577127Y-85580500D01*
X156026082Y-85580500D01*
X157677127Y-85580500D01*
X158126082Y-85580500D01*
X160205751Y-85580500D01*
X160272790Y-85600185D01*
X160318545Y-85652989D01*
X160328489Y-85722147D01*
X160320312Y-85751953D01*
X160269783Y-85873940D01*
X160269781Y-85873948D01*
X160249680Y-85974999D01*
X160249681Y-85975000D01*
X160885265Y-85975000D01*
X160865000Y-86050630D01*
X160865000Y-86149370D01*
X160885265Y-86225000D01*
X160249681Y-86225000D01*
X160269781Y-86326051D01*
X160269784Y-86326063D01*
X160328201Y-86467096D01*
X160413019Y-86594036D01*
X160465949Y-86646966D01*
X160499434Y-86708289D01*
X160494450Y-86777981D01*
X160465949Y-86822328D01*
X160412632Y-86875644D01*
X160412629Y-86875648D01*
X160327764Y-87002656D01*
X160327759Y-87002665D01*
X160269302Y-87143794D01*
X160269300Y-87143802D01*
X160242986Y-87276091D01*
X160210601Y-87338002D01*
X160209050Y-87339581D01*
X159967045Y-87581586D01*
X159931029Y-87635492D01*
X159931027Y-87635495D01*
X159884919Y-87704499D01*
X159884912Y-87704511D01*
X159828343Y-87841082D01*
X159828340Y-87841092D01*
X159799500Y-87986079D01*
X159799500Y-89820612D01*
X159779815Y-89887651D01*
X159763181Y-89908293D01*
X159599680Y-90071794D01*
X159538357Y-90105279D01*
X159468665Y-90100295D01*
X159412732Y-90058423D01*
X159388315Y-89992959D01*
X159387999Y-89984113D01*
X159387999Y-89818482D01*
X159387998Y-89818475D01*
X159373146Y-89724696D01*
X159315550Y-89611658D01*
X159315546Y-89611654D01*
X159315545Y-89611652D01*
X159225847Y-89521954D01*
X159225844Y-89521952D01*
X159225842Y-89521950D01*
X159149017Y-89482805D01*
X159112801Y-89464352D01*
X159019024Y-89449500D01*
X157780982Y-89449500D01*
X157700019Y-89462323D01*
X157687196Y-89464354D01*
X157574158Y-89521950D01*
X157574157Y-89521951D01*
X157574152Y-89521954D01*
X157484454Y-89611652D01*
X157484451Y-89611657D01*
X157426852Y-89724698D01*
X157412000Y-89818475D01*
X157412000Y-90181517D01*
X157428381Y-90284943D01*
X157426555Y-90285232D01*
X157428212Y-90343178D01*
X157392133Y-90403011D01*
X157329433Y-90433841D01*
X157260019Y-90425879D01*
X157251992Y-90422144D01*
X157237645Y-90414834D01*
X157237644Y-90414833D01*
X157143986Y-90400000D01*
X156650000Y-90400000D01*
X156650000Y-90825000D01*
X157512499Y-90825000D01*
X157512499Y-90768520D01*
X157496138Y-90665213D01*
X157498019Y-90664915D01*
X157496370Y-90607166D01*
X157532451Y-90547333D01*
X157595152Y-90516505D01*
X157664566Y-90524470D01*
X157672583Y-90528200D01*
X157687196Y-90535646D01*
X157687198Y-90535647D01*
X157780977Y-90550500D01*
X157785221Y-90550834D01*
X157850511Y-90575713D01*
X157891986Y-90631942D01*
X157899500Y-90674452D01*
X157899500Y-91225548D01*
X157879815Y-91292587D01*
X157827011Y-91338342D01*
X157785237Y-91349165D01*
X157780993Y-91349499D01*
X157687196Y-91364354D01*
X157672586Y-91371798D01*
X157603917Y-91384692D01*
X157539177Y-91358413D01*
X157498922Y-91301305D01*
X157495932Y-91231500D01*
X157497562Y-91225795D01*
X157512500Y-91131486D01*
X157512500Y-91075000D01*
X156650000Y-91075000D01*
X156650000Y-91499999D01*
X157143979Y-91499999D01*
X157237648Y-91485164D01*
X157251985Y-91477859D01*
X157320654Y-91464961D01*
X157385395Y-91491235D01*
X157425654Y-91548340D01*
X157428649Y-91618145D01*
X157426948Y-91624094D01*
X157412000Y-91718475D01*
X157412000Y-92081517D01*
X157418029Y-92119581D01*
X157426854Y-92175304D01*
X157484450Y-92288342D01*
X157484452Y-92288344D01*
X157484454Y-92288347D01*
X157574152Y-92378045D01*
X157574154Y-92378046D01*
X157574158Y-92378050D01*
X157662071Y-92422844D01*
X157687198Y-92435647D01*
X157780975Y-92450499D01*
X157780981Y-92450500D01*
X159019018Y-92450499D01*
X159112804Y-92435646D01*
X159225842Y-92378050D01*
X159315550Y-92288342D01*
X159373146Y-92175304D01*
X159373146Y-92175302D01*
X159373147Y-92175301D01*
X159385602Y-92096658D01*
X159388000Y-92081519D01*
X159387999Y-91815885D01*
X159407683Y-91748847D01*
X159460487Y-91703092D01*
X159529646Y-91693148D01*
X159593201Y-91722173D01*
X159599680Y-91728205D01*
X159763181Y-91891706D01*
X159796666Y-91953029D01*
X159799500Y-91979387D01*
X159799500Y-92987770D01*
X159779815Y-93054809D01*
X159763181Y-93075451D01*
X159325451Y-93513181D01*
X159264128Y-93546666D01*
X159237770Y-93549500D01*
X158974500Y-93549500D01*
X158907461Y-93529815D01*
X158861706Y-93477011D01*
X158850500Y-93425500D01*
X158850500Y-93025323D01*
X158850499Y-93025321D01*
X158835967Y-92952264D01*
X158835966Y-92952260D01*
X158780601Y-92869399D01*
X158709243Y-92821720D01*
X158697739Y-92814033D01*
X158697735Y-92814032D01*
X158624677Y-92799500D01*
X158624674Y-92799500D01*
X156775326Y-92799500D01*
X156775323Y-92799500D01*
X156702264Y-92814032D01*
X156702260Y-92814033D01*
X156619399Y-92869399D01*
X156564033Y-92952260D01*
X156564032Y-92952264D01*
X156549500Y-93025321D01*
X156549500Y-95574678D01*
X156564032Y-95647735D01*
X156564033Y-95647739D01*
X156564034Y-95647740D01*
X156619399Y-95730601D01*
X156702260Y-95785966D01*
X156702264Y-95785967D01*
X156775321Y-95800499D01*
X156775324Y-95800500D01*
X156775326Y-95800500D01*
X158624676Y-95800500D01*
X158624677Y-95800499D01*
X158697740Y-95785966D01*
X158780601Y-95730601D01*
X158835966Y-95647740D01*
X158850500Y-95574674D01*
X158850500Y-95174500D01*
X158870185Y-95107461D01*
X158922989Y-95061706D01*
X158974500Y-95050500D01*
X159673920Y-95050500D01*
X159771462Y-95031096D01*
X159818913Y-95021658D01*
X159955495Y-94965084D01*
X160004729Y-94932186D01*
X160078416Y-94882952D01*
X161078413Y-93882953D01*
X161078416Y-93882952D01*
X161182952Y-93778416D01*
X161265084Y-93655495D01*
X161321659Y-93518913D01*
X161350500Y-93373918D01*
X161350500Y-93226083D01*
X161344799Y-93197425D01*
X161340555Y-93176080D01*
X161340555Y-93176079D01*
X161321660Y-93081092D01*
X161321659Y-93081091D01*
X161321659Y-93081087D01*
X161321657Y-93081082D01*
X161309939Y-93052791D01*
X161300500Y-93005339D01*
X161300500Y-92025000D01*
X161700000Y-92025000D01*
X161700000Y-92422844D01*
X161706401Y-92482372D01*
X161706403Y-92482379D01*
X161756645Y-92617086D01*
X161756649Y-92617093D01*
X161842809Y-92732187D01*
X161842812Y-92732190D01*
X161957906Y-92818350D01*
X161957913Y-92818354D01*
X162092620Y-92868596D01*
X162092627Y-92868598D01*
X162152155Y-92874999D01*
X162152172Y-92875000D01*
X162325000Y-92875000D01*
X162325000Y-92025000D01*
X161700000Y-92025000D01*
X161300500Y-92025000D01*
X161300500Y-90025000D01*
X161700000Y-90025000D01*
X161700000Y-90422844D01*
X161706401Y-90482372D01*
X161706403Y-90482379D01*
X161756645Y-90617086D01*
X161756649Y-90617093D01*
X161842809Y-90732187D01*
X161842812Y-90732190D01*
X161934374Y-90800734D01*
X161976245Y-90856668D01*
X161981229Y-90926359D01*
X161947743Y-90987682D01*
X161934374Y-90999266D01*
X161842812Y-91067809D01*
X161842809Y-91067812D01*
X161756649Y-91182906D01*
X161756645Y-91182913D01*
X161706403Y-91317620D01*
X161706401Y-91317627D01*
X161700000Y-91377155D01*
X161700000Y-91775000D01*
X162325000Y-91775000D01*
X162325000Y-90025000D01*
X161700000Y-90025000D01*
X161300500Y-90025000D01*
X161300500Y-89775000D01*
X161700000Y-89775000D01*
X162325000Y-89775000D01*
X162325000Y-88925000D01*
X162575000Y-88925000D01*
X162575000Y-89775000D01*
X163200000Y-89775000D01*
X163200000Y-89377172D01*
X163199999Y-89377155D01*
X163193598Y-89317627D01*
X163193596Y-89317620D01*
X163143354Y-89182913D01*
X163143350Y-89182906D01*
X163057190Y-89067812D01*
X163057187Y-89067809D01*
X162942093Y-88981649D01*
X162942086Y-88981645D01*
X162807379Y-88931403D01*
X162807372Y-88931401D01*
X162747844Y-88925000D01*
X162575000Y-88925000D01*
X162325000Y-88925000D01*
X162152155Y-88925000D01*
X162092627Y-88931401D01*
X162092620Y-88931403D01*
X161957913Y-88981645D01*
X161957906Y-88981649D01*
X161842812Y-89067809D01*
X161842809Y-89067812D01*
X161756649Y-89182906D01*
X161756645Y-89182913D01*
X161706403Y-89317620D01*
X161706401Y-89317627D01*
X161700000Y-89377155D01*
X161700000Y-89775000D01*
X161300500Y-89775000D01*
X161300500Y-88422229D01*
X161320185Y-88355190D01*
X161336813Y-88334553D01*
X161495419Y-88175947D01*
X161556739Y-88142465D01*
X161558906Y-88142014D01*
X161583173Y-88137186D01*
X161691205Y-88115698D01*
X161832337Y-88057239D01*
X161959352Y-87972370D01*
X162067370Y-87864352D01*
X162152239Y-87737337D01*
X162210698Y-87596205D01*
X162240500Y-87446380D01*
X162240500Y-87293620D01*
X162210698Y-87143795D01*
X162152239Y-87002663D01*
X162152238Y-87002662D01*
X162152235Y-87002656D01*
X162067370Y-86875648D01*
X162067367Y-86875644D01*
X162014050Y-86822327D01*
X161980565Y-86761004D01*
X161985549Y-86691312D01*
X162014051Y-86646963D01*
X162066982Y-86594033D01*
X162151798Y-86467096D01*
X162210215Y-86326063D01*
X162210218Y-86326051D01*
X162230319Y-86225000D01*
X161594735Y-86225000D01*
X161615000Y-86149370D01*
X161615000Y-86050630D01*
X161594735Y-85975000D01*
X162230319Y-85975000D01*
X162230319Y-85974999D01*
X162210218Y-85873948D01*
X162210215Y-85873936D01*
X162151797Y-85732902D01*
X162135350Y-85708287D01*
X162114472Y-85641610D01*
X162132956Y-85574229D01*
X162169564Y-85536293D01*
X162170601Y-85535601D01*
X162225966Y-85452740D01*
X162240500Y-85379674D01*
X162240500Y-84280326D01*
X162240500Y-84280323D01*
X162240499Y-84280321D01*
X162225967Y-84207264D01*
X162225966Y-84207260D01*
X162217437Y-84194495D01*
X162170601Y-84124399D01*
X162087740Y-84069034D01*
X162087739Y-84069033D01*
X162087735Y-84069032D01*
X162014677Y-84054500D01*
X162014674Y-84054500D01*
X160465326Y-84054500D01*
X160465324Y-84054500D01*
X160392261Y-84069033D01*
X160389778Y-84070062D01*
X160342327Y-84079500D01*
X155392229Y-84079500D01*
X155325190Y-84059815D01*
X155304548Y-84043181D01*
X154786819Y-83525451D01*
X154753334Y-83464128D01*
X154750500Y-83437770D01*
X154750500Y-80426081D01*
X154750499Y-80426080D01*
X154739837Y-80372475D01*
X154721659Y-80281088D01*
X154676379Y-80171774D01*
X154665084Y-80144505D01*
X154604569Y-80053937D01*
X154582952Y-80021585D01*
X154582950Y-80021582D01*
X154582949Y-80021581D01*
X153575746Y-79014379D01*
X153518363Y-78956995D01*
X153484879Y-78895674D01*
X153489863Y-78825982D01*
X153518365Y-78781634D01*
X153525000Y-78774999D01*
X153525000Y-77925000D01*
X153775000Y-77925000D01*
X153775000Y-78775000D01*
X153947828Y-78775000D01*
X153947844Y-78774999D01*
X154007372Y-78768598D01*
X154007379Y-78768596D01*
X154142086Y-78718354D01*
X154142093Y-78718350D01*
X154257187Y-78632190D01*
X154257190Y-78632187D01*
X154336711Y-78525961D01*
X157099500Y-78525961D01*
X157138910Y-78774785D01*
X157216760Y-79014383D01*
X157295413Y-79168747D01*
X157325100Y-79227011D01*
X157331132Y-79238848D01*
X157479201Y-79442649D01*
X157479205Y-79442654D01*
X157657345Y-79620794D01*
X157657350Y-79620798D01*
X157816228Y-79736229D01*
X157861155Y-79768870D01*
X158004184Y-79841747D01*
X158085616Y-79883239D01*
X158085618Y-79883239D01*
X158085621Y-79883241D01*
X158325215Y-79961090D01*
X158574038Y-80000500D01*
X158574039Y-80000500D01*
X158825961Y-80000500D01*
X158825962Y-80000500D01*
X159074785Y-79961090D01*
X159314379Y-79883241D01*
X159538845Y-79768870D01*
X159742656Y-79620793D01*
X159920793Y-79442656D01*
X160068870Y-79238845D01*
X160183241Y-79014379D01*
X160261090Y-78774785D01*
X160300500Y-78525962D01*
X160300500Y-78274038D01*
X160261090Y-78025215D01*
X160183241Y-77785621D01*
X160183239Y-77785618D01*
X160183239Y-77785616D01*
X160102552Y-77627260D01*
X160068870Y-77561155D01*
X160045407Y-77528861D01*
X159920798Y-77357350D01*
X159920794Y-77357345D01*
X159742654Y-77179205D01*
X159742649Y-77179201D01*
X159538848Y-77031132D01*
X159538847Y-77031131D01*
X159538845Y-77031130D01*
X159468747Y-76995413D01*
X159314383Y-76916760D01*
X159074785Y-76838910D01*
X158981860Y-76824192D01*
X158825962Y-76799500D01*
X158574038Y-76799500D01*
X158449626Y-76819205D01*
X158325214Y-76838910D01*
X158085616Y-76916760D01*
X157861151Y-77031132D01*
X157657350Y-77179201D01*
X157657345Y-77179205D01*
X157479205Y-77357345D01*
X157479201Y-77357350D01*
X157331132Y-77561151D01*
X157216760Y-77785616D01*
X157138910Y-78025214D01*
X157099500Y-78274038D01*
X157099500Y-78525961D01*
X154336711Y-78525961D01*
X154343350Y-78517093D01*
X154343354Y-78517086D01*
X154393596Y-78382379D01*
X154393598Y-78382372D01*
X154399999Y-78322844D01*
X154400000Y-78322827D01*
X154400000Y-77925000D01*
X153775000Y-77925000D01*
X153525000Y-77925000D01*
X152900000Y-77925000D01*
X152900000Y-78039270D01*
X152880315Y-78106309D01*
X152827511Y-78152064D01*
X152758353Y-78162008D01*
X152694797Y-78132983D01*
X152688319Y-78126951D01*
X152536819Y-77975451D01*
X152503334Y-77914128D01*
X152500500Y-77887770D01*
X152500500Y-77716093D01*
X152500499Y-77716079D01*
X152500499Y-77675000D01*
X152900000Y-77675000D01*
X154400000Y-77675000D01*
X154400000Y-77277172D01*
X154399999Y-77277155D01*
X154393598Y-77217627D01*
X154393596Y-77217620D01*
X154343354Y-77082913D01*
X154343350Y-77082906D01*
X154257190Y-76967812D01*
X154257187Y-76967809D01*
X154150336Y-76887820D01*
X154108465Y-76831887D01*
X154103481Y-76762195D01*
X154136967Y-76700872D01*
X154181315Y-76672372D01*
X154192084Y-76668355D01*
X154192093Y-76668350D01*
X154307187Y-76582190D01*
X154307190Y-76582187D01*
X154393350Y-76467093D01*
X154393354Y-76467086D01*
X154443596Y-76332379D01*
X154443598Y-76332372D01*
X154449999Y-76272844D01*
X154450000Y-76272827D01*
X154450000Y-75875000D01*
X152950000Y-75875000D01*
X152950000Y-76272844D01*
X152956401Y-76332372D01*
X152956403Y-76332379D01*
X153006645Y-76467086D01*
X153006649Y-76467093D01*
X153092809Y-76582186D01*
X153199663Y-76662178D01*
X153241534Y-76718112D01*
X153246518Y-76787804D01*
X153213033Y-76849127D01*
X153168691Y-76877625D01*
X153157915Y-76881644D01*
X153157906Y-76881649D01*
X153042812Y-76967809D01*
X153042809Y-76967812D01*
X152956649Y-77082906D01*
X152956645Y-77082913D01*
X152906403Y-77217620D01*
X152906401Y-77217627D01*
X152900000Y-77277155D01*
X152900000Y-77675000D01*
X152500499Y-77675000D01*
X152500499Y-77277129D01*
X152500498Y-77277123D01*
X152500055Y-77273005D01*
X152494091Y-77217517D01*
X152491975Y-77211845D01*
X152443797Y-77082671D01*
X152443793Y-77082664D01*
X152357548Y-76967457D01*
X152357546Y-76967454D01*
X152357542Y-76967451D01*
X152357540Y-76967449D01*
X152350187Y-76961944D01*
X152308317Y-76906009D01*
X152300500Y-76862679D01*
X152300500Y-76724749D01*
X152320185Y-76657710D01*
X152350190Y-76625482D01*
X152387265Y-76597728D01*
X152407546Y-76582546D01*
X152493796Y-76467331D01*
X152544091Y-76332483D01*
X152550500Y-76272873D01*
X152550499Y-75625000D01*
X152950000Y-75625000D01*
X153575000Y-75625000D01*
X153575000Y-74775000D01*
X153825000Y-74775000D01*
X153825000Y-75625000D01*
X154450000Y-75625000D01*
X154450000Y-75227172D01*
X154449999Y-75227155D01*
X154443598Y-75167627D01*
X154443596Y-75167620D01*
X154393354Y-75032913D01*
X154393350Y-75032906D01*
X154307190Y-74917812D01*
X154307187Y-74917809D01*
X154192093Y-74831649D01*
X154192086Y-74831645D01*
X154057379Y-74781403D01*
X154057372Y-74781401D01*
X153997844Y-74775000D01*
X153825000Y-74775000D01*
X153575000Y-74775000D01*
X153402155Y-74775000D01*
X153342627Y-74781401D01*
X153342620Y-74781403D01*
X153207913Y-74831645D01*
X153207906Y-74831649D01*
X153092812Y-74917809D01*
X153092809Y-74917812D01*
X153006649Y-75032906D01*
X153006645Y-75032913D01*
X152956403Y-75167620D01*
X152956401Y-75167627D01*
X152950000Y-75227155D01*
X152950000Y-75625000D01*
X152550499Y-75625000D01*
X152550499Y-75227128D01*
X152545080Y-75176717D01*
X152544091Y-75167516D01*
X152493797Y-75032671D01*
X152493793Y-75032664D01*
X152407547Y-74917455D01*
X152407544Y-74917452D01*
X152292335Y-74831206D01*
X152292328Y-74831202D01*
X152157486Y-74780910D01*
X152157485Y-74780909D01*
X152157483Y-74780909D01*
X152097873Y-74774500D01*
X152097863Y-74774500D01*
X151502129Y-74774500D01*
X151502123Y-74774501D01*
X151442516Y-74780908D01*
X151307671Y-74831202D01*
X151307664Y-74831206D01*
X151192456Y-74917452D01*
X151192455Y-74917453D01*
X151192454Y-74917454D01*
X151130802Y-74999811D01*
X151074868Y-75041682D01*
X151031535Y-75049500D01*
X150774751Y-75049500D01*
X150707712Y-75029815D01*
X150675485Y-74999812D01*
X150632548Y-74942457D01*
X150632546Y-74942454D01*
X150632542Y-74942451D01*
X150517335Y-74856206D01*
X150517328Y-74856202D01*
X150382482Y-74805908D01*
X150382483Y-74805908D01*
X150322883Y-74799501D01*
X150322881Y-74799500D01*
X150322873Y-74799500D01*
X150322864Y-74799500D01*
X149277129Y-74799500D01*
X149277123Y-74799501D01*
X149217516Y-74805908D01*
X149082671Y-74856202D01*
X149082664Y-74856206D01*
X148967456Y-74942452D01*
X148967455Y-74942453D01*
X148967454Y-74942454D01*
X148887087Y-75049811D01*
X148831153Y-75091682D01*
X148787820Y-75099500D01*
X148712180Y-75099500D01*
X148645141Y-75079815D01*
X148612913Y-75049811D01*
X148532546Y-74942454D01*
X148482935Y-74905315D01*
X148417335Y-74856206D01*
X148417328Y-74856202D01*
X148282482Y-74805908D01*
X148282483Y-74805908D01*
X148222883Y-74799501D01*
X148222881Y-74799500D01*
X148222873Y-74799500D01*
X148222864Y-74799500D01*
X147177129Y-74799500D01*
X147177123Y-74799501D01*
X147117516Y-74805908D01*
X146982671Y-74856202D01*
X146982664Y-74856206D01*
X146867456Y-74942452D01*
X146867455Y-74942453D01*
X146867454Y-74942454D01*
X146787087Y-75049811D01*
X146731153Y-75091682D01*
X146687820Y-75099500D01*
X146624000Y-75099500D01*
X146556961Y-75079815D01*
X146511206Y-75027011D01*
X146500000Y-74975500D01*
X146500000Y-74925000D01*
X145449000Y-74925000D01*
X145381961Y-74905315D01*
X145336206Y-74852511D01*
X145325000Y-74801000D01*
X145325000Y-74799000D01*
X145344685Y-74731961D01*
X145397489Y-74686206D01*
X145449000Y-74675000D01*
X146500000Y-74675000D01*
X146500000Y-74500373D01*
X146485101Y-74425473D01*
X146485101Y-74377089D01*
X146500500Y-74299676D01*
X146500500Y-73824500D01*
X146520185Y-73757461D01*
X146572989Y-73711706D01*
X146624500Y-73700500D01*
X148165890Y-73700500D01*
X148165892Y-73700500D01*
X148293186Y-73666392D01*
X148407314Y-73600500D01*
X148950500Y-73057314D01*
X149016392Y-72943186D01*
X149048791Y-72822270D01*
X149085153Y-72762614D01*
X149099667Y-72751269D01*
X149130601Y-72730601D01*
X149166605Y-72676717D01*
X149180709Y-72655609D01*
X149234321Y-72610804D01*
X149283811Y-72600500D01*
X149500193Y-72600500D01*
X149567232Y-72620185D01*
X149599459Y-72650188D01*
X149610312Y-72664686D01*
X149610318Y-72664692D01*
X149719769Y-72746625D01*
X149719770Y-72746625D01*
X149719774Y-72746628D01*
X149847886Y-72794412D01*
X149904515Y-72800500D01*
X150495484Y-72800499D01*
X150552114Y-72794412D01*
X150680226Y-72746628D01*
X150789687Y-72664687D01*
X150871628Y-72555226D01*
X150919412Y-72427114D01*
X150921687Y-72405944D01*
X150925499Y-72370501D01*
X150925499Y-72370494D01*
X150925500Y-72370485D01*
X150925499Y-71829516D01*
X150919412Y-71772886D01*
X150911062Y-71750500D01*
X150899693Y-71720017D01*
X150871628Y-71644774D01*
X150789687Y-71535313D01*
X150680226Y-71453372D01*
X150668376Y-71448952D01*
X150646826Y-71440914D01*
X150590893Y-71399042D01*
X150566477Y-71333577D01*
X150581330Y-71265304D01*
X150630736Y-71215900D01*
X150646830Y-71208550D01*
X150679983Y-71196185D01*
X150679984Y-71196184D01*
X150789329Y-71114329D01*
X150871184Y-71004984D01*
X150871185Y-71004983D01*
X150918916Y-70877010D01*
X150924999Y-70820428D01*
X150925000Y-70820427D01*
X150925000Y-70675000D01*
X149475001Y-70675000D01*
X149475001Y-70820439D01*
X149481081Y-70877007D01*
X149528813Y-71004981D01*
X149528815Y-71004984D01*
X149610670Y-71114329D01*
X149720015Y-71196184D01*
X149720020Y-71196187D01*
X149753170Y-71208551D01*
X149809104Y-71250421D01*
X149833522Y-71315885D01*
X149818671Y-71384158D01*
X149769266Y-71433564D01*
X149753174Y-71440914D01*
X149719770Y-71453373D01*
X149610318Y-71535307D01*
X149610312Y-71535313D01*
X149599459Y-71549812D01*
X149543524Y-71591683D01*
X149500193Y-71599500D01*
X149283811Y-71599500D01*
X149216772Y-71579815D01*
X149180709Y-71544391D01*
X149130261Y-71468890D01*
X149109383Y-71402212D01*
X149127868Y-71334832D01*
X149130261Y-71331108D01*
X149130598Y-71330602D01*
X149130601Y-71330601D01*
X149185966Y-71247740D01*
X149200500Y-71174674D01*
X149200500Y-70425000D01*
X149475000Y-70425000D01*
X150075000Y-70425000D01*
X150075000Y-69850000D01*
X150325000Y-69850000D01*
X150325000Y-70425000D01*
X150924999Y-70425000D01*
X150924999Y-70279566D01*
X150924998Y-70279560D01*
X150918918Y-70222992D01*
X150871186Y-70095018D01*
X150871184Y-70095015D01*
X150789329Y-69985670D01*
X150679984Y-69903815D01*
X150679983Y-69903814D01*
X150552010Y-69856083D01*
X150495428Y-69850000D01*
X150325000Y-69850000D01*
X150075000Y-69850000D01*
X149904566Y-69850000D01*
X149904559Y-69850001D01*
X149847992Y-69856081D01*
X149720018Y-69903813D01*
X149720015Y-69903815D01*
X149610670Y-69985670D01*
X149528815Y-70095015D01*
X149528814Y-70095016D01*
X149481083Y-70222989D01*
X149475000Y-70279571D01*
X149475000Y-70425000D01*
X149200500Y-70425000D01*
X149200500Y-70225326D01*
X149200500Y-70225323D01*
X149200499Y-70225321D01*
X149185967Y-70152264D01*
X149185966Y-70152260D01*
X149180708Y-70144391D01*
X149130601Y-70069399D01*
X149056810Y-70020094D01*
X149047739Y-70014033D01*
X149047735Y-70014032D01*
X148974677Y-69999500D01*
X148974674Y-69999500D01*
X148125326Y-69999500D01*
X148098690Y-70004798D01*
X148029098Y-69998569D01*
X147973922Y-69955706D01*
X147950678Y-69889816D01*
X147950500Y-69883180D01*
X147950500Y-69699807D01*
X147970185Y-69632768D01*
X148000190Y-69600539D01*
X148014687Y-69589687D01*
X148096628Y-69480226D01*
X148109085Y-69446825D01*
X148150955Y-69390894D01*
X148216419Y-69366477D01*
X148284692Y-69381328D01*
X148334098Y-69430733D01*
X148341448Y-69446827D01*
X148353814Y-69479983D01*
X148353815Y-69479984D01*
X148435670Y-69589329D01*
X148545015Y-69671184D01*
X148545016Y-69671185D01*
X148672991Y-69718917D01*
X148672994Y-69718918D01*
X148729555Y-69724999D01*
X148874999Y-69724999D01*
X148875000Y-69724998D01*
X148875000Y-69125000D01*
X149125000Y-69125000D01*
X149125000Y-69724999D01*
X149270433Y-69724999D01*
X149270439Y-69724998D01*
X149327007Y-69718918D01*
X149454981Y-69671186D01*
X149454984Y-69671184D01*
X149564329Y-69589329D01*
X149646184Y-69479984D01*
X149646185Y-69479983D01*
X149693916Y-69352010D01*
X149699999Y-69295428D01*
X149700000Y-69295427D01*
X149700000Y-69125000D01*
X149125000Y-69125000D01*
X148875000Y-69125000D01*
X148875000Y-68999000D01*
X148894685Y-68931961D01*
X148947489Y-68886206D01*
X148999000Y-68875000D01*
X149699999Y-68875000D01*
X149699999Y-68704566D01*
X149699998Y-68704560D01*
X149693918Y-68647992D01*
X149646186Y-68520018D01*
X149646182Y-68520012D01*
X149608885Y-68470188D01*
X149584468Y-68404724D01*
X149599320Y-68336451D01*
X149648725Y-68287046D01*
X149716998Y-68272194D01*
X149740010Y-68276041D01*
G37*
%TD.AperFunction*%
%TA.AperFunction,Conductor*%
G36*
X152080703Y-79642516D02*
G01*
X152087172Y-79648540D01*
X152281150Y-79842517D01*
X153213181Y-80774548D01*
X153246666Y-80835871D01*
X153249500Y-80862229D01*
X153249500Y-81925500D01*
X153229815Y-81992539D01*
X153177011Y-82038294D01*
X153125500Y-82049500D01*
X152926080Y-82049500D01*
X152781092Y-82078340D01*
X152781082Y-82078343D01*
X152644511Y-82134912D01*
X152644498Y-82134919D01*
X152521584Y-82217048D01*
X152521580Y-82217051D01*
X152417051Y-82321580D01*
X152417048Y-82321584D01*
X152334919Y-82444498D01*
X152334912Y-82444511D01*
X152278343Y-82581082D01*
X152278340Y-82581092D01*
X152249500Y-82726079D01*
X152249500Y-82726082D01*
X152249500Y-82873918D01*
X152249500Y-82873920D01*
X152249499Y-82873920D01*
X152278340Y-83018907D01*
X152278343Y-83018917D01*
X152334912Y-83155488D01*
X152334919Y-83155501D01*
X152417048Y-83278415D01*
X152417051Y-83278419D01*
X152521580Y-83382948D01*
X152521584Y-83382951D01*
X152644498Y-83465080D01*
X152644511Y-83465087D01*
X152781082Y-83521656D01*
X152781087Y-83521658D01*
X152781091Y-83521658D01*
X152781092Y-83521659D01*
X152926079Y-83550500D01*
X152926082Y-83550500D01*
X153125500Y-83550500D01*
X153192539Y-83570185D01*
X153238294Y-83622989D01*
X153249500Y-83674500D01*
X153249500Y-85644344D01*
X153229815Y-85711383D01*
X153177011Y-85757138D01*
X153107853Y-85767082D01*
X153044297Y-85738057D01*
X153024996Y-85714106D01*
X153024112Y-85714769D01*
X152932547Y-85592455D01*
X152932544Y-85592452D01*
X152817335Y-85506206D01*
X152817328Y-85506202D01*
X152682482Y-85455908D01*
X152682483Y-85455908D01*
X152622883Y-85449501D01*
X152622881Y-85449500D01*
X152622873Y-85449500D01*
X152622865Y-85449500D01*
X151999500Y-85449500D01*
X151932461Y-85429815D01*
X151886706Y-85377011D01*
X151875500Y-85325500D01*
X151875500Y-83825323D01*
X151875499Y-83825321D01*
X151860967Y-83752264D01*
X151860966Y-83752260D01*
X151859891Y-83750651D01*
X151805601Y-83669399D01*
X151742542Y-83627265D01*
X151722739Y-83614033D01*
X151722735Y-83614032D01*
X151649677Y-83599500D01*
X151649674Y-83599500D01*
X151350326Y-83599500D01*
X151274190Y-83614644D01*
X151225810Y-83614644D01*
X151149674Y-83599500D01*
X150850326Y-83599500D01*
X150772908Y-83614899D01*
X150724527Y-83614899D01*
X150649623Y-83600000D01*
X150625000Y-83600000D01*
X150625000Y-83814158D01*
X150624500Y-83824336D01*
X150624500Y-84401000D01*
X150604815Y-84468039D01*
X150552011Y-84513794D01*
X150500500Y-84525000D01*
X150499500Y-84525000D01*
X150432461Y-84505315D01*
X150386706Y-84452511D01*
X150375500Y-84401000D01*
X150375500Y-83824336D01*
X150375000Y-83814158D01*
X150375000Y-83600000D01*
X150350376Y-83600000D01*
X150275471Y-83614899D01*
X150227090Y-83614898D01*
X150149678Y-83599500D01*
X150149674Y-83599500D01*
X149850326Y-83599500D01*
X149772908Y-83614899D01*
X149724527Y-83614899D01*
X149649623Y-83600000D01*
X149625000Y-83600000D01*
X149625000Y-83814158D01*
X149624500Y-83824336D01*
X149624500Y-84975673D01*
X149625000Y-84985841D01*
X149625000Y-85218911D01*
X149635737Y-85238575D01*
X149630753Y-85308267D01*
X149588881Y-85364200D01*
X149557915Y-85381111D01*
X149557676Y-85381200D01*
X149557664Y-85381206D01*
X149442455Y-85467452D01*
X149442452Y-85467455D01*
X149356206Y-85582664D01*
X149356202Y-85582671D01*
X149305908Y-85717517D01*
X149299501Y-85777116D01*
X149299500Y-85777135D01*
X149299500Y-86822870D01*
X149299501Y-86822876D01*
X149305908Y-86882483D01*
X149333422Y-86956250D01*
X149338406Y-87025942D01*
X149304922Y-87087262D01*
X149229003Y-87163182D01*
X149167683Y-87196666D01*
X149141324Y-87199500D01*
X148952740Y-87199500D01*
X148885701Y-87179815D01*
X148839946Y-87127011D01*
X148830002Y-87057853D01*
X148840743Y-87025581D01*
X148840254Y-87025399D01*
X148893596Y-86882379D01*
X148893598Y-86882372D01*
X148899999Y-86822844D01*
X148900000Y-86822827D01*
X148900000Y-86425000D01*
X147400000Y-86425000D01*
X147400000Y-86822844D01*
X147406401Y-86882372D01*
X147406403Y-86882379D01*
X147459746Y-87025399D01*
X147458242Y-87025959D01*
X147470944Y-87084341D01*
X147446530Y-87149806D01*
X147390599Y-87191680D01*
X147347260Y-87199500D01*
X145958676Y-87199500D01*
X145891637Y-87179815D01*
X145870995Y-87163181D01*
X145007316Y-86299502D01*
X145007314Y-86299500D01*
X144911598Y-86244238D01*
X144893183Y-86233606D01*
X144885881Y-86230582D01*
X144831476Y-86186742D01*
X144827568Y-86175000D01*
X147400000Y-86175000D01*
X148025000Y-86175000D01*
X148025000Y-85325000D01*
X148275000Y-85325000D01*
X148275000Y-86175000D01*
X148900000Y-86175000D01*
X148900000Y-85777172D01*
X148899999Y-85777155D01*
X148893598Y-85717627D01*
X148893596Y-85717620D01*
X148843354Y-85582913D01*
X148843350Y-85582906D01*
X148757190Y-85467812D01*
X148757187Y-85467809D01*
X148642093Y-85381649D01*
X148642086Y-85381645D01*
X148507379Y-85331403D01*
X148507372Y-85331401D01*
X148447844Y-85325000D01*
X148275000Y-85325000D01*
X148025000Y-85325000D01*
X147852155Y-85325000D01*
X147792627Y-85331401D01*
X147792620Y-85331403D01*
X147657913Y-85381645D01*
X147657906Y-85381649D01*
X147542812Y-85467809D01*
X147542809Y-85467812D01*
X147456649Y-85582906D01*
X147456645Y-85582913D01*
X147406403Y-85717620D01*
X147406401Y-85717627D01*
X147400000Y-85777155D01*
X147400000Y-86175000D01*
X144827568Y-86175000D01*
X144809410Y-86120449D01*
X144826688Y-86052749D01*
X144864442Y-86012917D01*
X144886233Y-85998358D01*
X144973358Y-85911233D01*
X144973358Y-85911231D01*
X144983566Y-85901024D01*
X144983567Y-85901021D01*
X145485857Y-85398734D01*
X145485858Y-85398731D01*
X145492918Y-85391672D01*
X145492923Y-85391665D01*
X145885271Y-84999319D01*
X145946594Y-84965834D01*
X145972952Y-84963000D01*
X146078985Y-84963000D01*
X146165799Y-84941603D01*
X146195473Y-84938000D01*
X146858468Y-84938000D01*
X146925507Y-84957685D01*
X146932777Y-84962731D01*
X146948730Y-84974674D01*
X147007669Y-85018796D01*
X147007671Y-85018797D01*
X147142517Y-85069091D01*
X147142516Y-85069091D01*
X147149444Y-85069835D01*
X147202127Y-85075500D01*
X148197872Y-85075499D01*
X148257483Y-85069091D01*
X148392331Y-85018796D01*
X148507546Y-84932546D01*
X148593796Y-84817331D01*
X148644091Y-84682483D01*
X148650500Y-84622873D01*
X148650500Y-84525000D01*
X149125000Y-84525000D01*
X149125000Y-84974628D01*
X149139503Y-85047540D01*
X149139505Y-85047544D01*
X149194760Y-85130239D01*
X149277455Y-85185494D01*
X149277459Y-85185496D01*
X149350371Y-85199999D01*
X149350374Y-85200000D01*
X149375000Y-85200000D01*
X149375000Y-84525000D01*
X149125000Y-84525000D01*
X148650500Y-84525000D01*
X148650499Y-84275000D01*
X149125000Y-84275000D01*
X149375000Y-84275000D01*
X149375000Y-83600000D01*
X149350373Y-83600000D01*
X149277459Y-83614503D01*
X149277455Y-83614505D01*
X149194760Y-83669760D01*
X149139505Y-83752455D01*
X149139503Y-83752459D01*
X149125000Y-83825371D01*
X149125000Y-84275000D01*
X148650499Y-84275000D01*
X148650499Y-84002128D01*
X148644091Y-83942517D01*
X148620046Y-83878050D01*
X148593797Y-83807671D01*
X148593793Y-83807664D01*
X148507547Y-83692455D01*
X148507544Y-83692452D01*
X148392335Y-83606206D01*
X148392328Y-83606202D01*
X148257482Y-83555908D01*
X148257483Y-83555908D01*
X148197883Y-83549501D01*
X148197881Y-83549500D01*
X148197873Y-83549500D01*
X148197864Y-83549500D01*
X147202129Y-83549500D01*
X147202123Y-83549501D01*
X147142516Y-83555908D01*
X147007671Y-83606202D01*
X147007669Y-83606203D01*
X146932779Y-83662267D01*
X146867315Y-83686684D01*
X146858468Y-83687000D01*
X146195473Y-83687000D01*
X146165799Y-83683397D01*
X146071703Y-83660205D01*
X146072385Y-83657434D01*
X146020383Y-83635033D01*
X146011856Y-83627265D01*
X145661819Y-83277228D01*
X145628334Y-83215905D01*
X145625500Y-83189547D01*
X145625500Y-82705216D01*
X145645185Y-82638177D01*
X145697989Y-82592422D01*
X145767147Y-82582478D01*
X145830703Y-82611503D01*
X145865441Y-82661244D01*
X145919780Y-82804523D01*
X146009517Y-82934530D01*
X146127760Y-83039283D01*
X146127762Y-83039284D01*
X146267634Y-83112696D01*
X146421014Y-83150500D01*
X146421015Y-83150500D01*
X146578985Y-83150500D01*
X146732365Y-83112696D01*
X146761228Y-83097546D01*
X146829731Y-83083821D01*
X146893161Y-83108075D01*
X147001993Y-83189547D01*
X147007668Y-83193795D01*
X147007671Y-83193797D01*
X147142517Y-83244091D01*
X147142516Y-83244091D01*
X147149444Y-83244835D01*
X147202127Y-83250500D01*
X148197872Y-83250499D01*
X148257483Y-83244091D01*
X148392331Y-83193796D01*
X148507546Y-83107546D01*
X148593796Y-82992331D01*
X148613411Y-82939741D01*
X148621271Y-82918667D01*
X148663142Y-82862733D01*
X148728606Y-82838316D01*
X148737453Y-82838000D01*
X148858642Y-82838000D01*
X148858644Y-82838000D01*
X148947788Y-82814114D01*
X148975918Y-82797873D01*
X149027712Y-82767970D01*
X149097868Y-82697812D01*
X149123549Y-82678106D01*
X149193063Y-82637974D01*
X149800475Y-82030563D01*
X149849911Y-81944937D01*
X149875500Y-81849436D01*
X149875500Y-81750564D01*
X149875500Y-81024500D01*
X149895185Y-80957461D01*
X149947989Y-80911706D01*
X149999500Y-80900500D01*
X150149676Y-80900500D01*
X150225808Y-80885356D01*
X150274192Y-80885356D01*
X150350323Y-80900500D01*
X150350326Y-80900500D01*
X150649676Y-80900500D01*
X150725808Y-80885356D01*
X150774192Y-80885356D01*
X150850323Y-80900500D01*
X150850326Y-80900500D01*
X151149676Y-80900500D01*
X151225808Y-80885356D01*
X151274192Y-80885356D01*
X151350323Y-80900500D01*
X151350326Y-80900500D01*
X151649676Y-80900500D01*
X151649677Y-80900499D01*
X151722740Y-80885966D01*
X151805601Y-80830601D01*
X151860966Y-80747740D01*
X151875500Y-80674674D01*
X151875500Y-79736229D01*
X151895185Y-79669190D01*
X151947989Y-79623435D01*
X152017147Y-79613491D01*
X152080703Y-79642516D01*
G37*
%TD.AperFunction*%
%TA.AperFunction,Conductor*%
G36*
X140685979Y-82820185D02*
G01*
X140731734Y-82872989D01*
X140741678Y-82942147D01*
X140712653Y-83005703D01*
X140693252Y-83023766D01*
X140667809Y-83042812D01*
X140581649Y-83157906D01*
X140581645Y-83157913D01*
X140531403Y-83292620D01*
X140531401Y-83292627D01*
X140525000Y-83352155D01*
X140525000Y-83461398D01*
X140505315Y-83528437D01*
X140452511Y-83574192D01*
X140383353Y-83584136D01*
X140319797Y-83555111D01*
X140301734Y-83535710D01*
X140232187Y-83442809D01*
X140117093Y-83356649D01*
X140117086Y-83356645D01*
X139982379Y-83306403D01*
X139982372Y-83306401D01*
X139922844Y-83300000D01*
X139525000Y-83300000D01*
X139525000Y-84800000D01*
X139922828Y-84800000D01*
X139922844Y-84799999D01*
X139982372Y-84793598D01*
X139982379Y-84793596D01*
X140117086Y-84743354D01*
X140117093Y-84743350D01*
X140232187Y-84657190D01*
X140232190Y-84657187D01*
X140318350Y-84542093D01*
X140318354Y-84542086D01*
X140368596Y-84407379D01*
X140368598Y-84407372D01*
X140374999Y-84347844D01*
X140375000Y-84347827D01*
X140375000Y-84238601D01*
X140394685Y-84171562D01*
X140447489Y-84125807D01*
X140516647Y-84115863D01*
X140580203Y-84144888D01*
X140598266Y-84164290D01*
X140667809Y-84257187D01*
X140667812Y-84257190D01*
X140782906Y-84343350D01*
X140782913Y-84343354D01*
X140917620Y-84393596D01*
X140917627Y-84393598D01*
X140977155Y-84399999D01*
X140977172Y-84400000D01*
X141375000Y-84400000D01*
X141375000Y-83649000D01*
X141394685Y-83581961D01*
X141447489Y-83536206D01*
X141499000Y-83525000D01*
X141501000Y-83525000D01*
X141568039Y-83544685D01*
X141613794Y-83597489D01*
X141625000Y-83649000D01*
X141625000Y-84400000D01*
X142022828Y-84400000D01*
X142022844Y-84399999D01*
X142082372Y-84393598D01*
X142082379Y-84393596D01*
X142217086Y-84343354D01*
X142217093Y-84343350D01*
X142332186Y-84257191D01*
X142395480Y-84172642D01*
X142451414Y-84130771D01*
X142521106Y-84125787D01*
X142582429Y-84159272D01*
X142603576Y-84187520D01*
X142606204Y-84192332D01*
X142692452Y-84307544D01*
X142692455Y-84307547D01*
X142807664Y-84393793D01*
X142807671Y-84393797D01*
X142942517Y-84444091D01*
X142942516Y-84444091D01*
X142949444Y-84444835D01*
X143002127Y-84450500D01*
X143997872Y-84450499D01*
X144057483Y-84444091D01*
X144077766Y-84436526D01*
X144200641Y-84390697D01*
X144201229Y-84392275D01*
X144259338Y-84379630D01*
X144324804Y-84404043D01*
X144366679Y-84459974D01*
X144374500Y-84503315D01*
X144374500Y-84689545D01*
X144354815Y-84756584D01*
X144338181Y-84777226D01*
X144333563Y-84781844D01*
X144272240Y-84815329D01*
X144202548Y-84810345D01*
X144198598Y-84808541D01*
X144057482Y-84755908D01*
X144057483Y-84755908D01*
X143997883Y-84749501D01*
X143997881Y-84749500D01*
X143997873Y-84749500D01*
X143586420Y-84749500D01*
X143586418Y-84749500D01*
X143438583Y-84749500D01*
X143438580Y-84749500D01*
X143002129Y-84749500D01*
X143002123Y-84749501D01*
X142942516Y-84755908D01*
X142807671Y-84806202D01*
X142807664Y-84806206D01*
X142685355Y-84897768D01*
X142683560Y-84895370D01*
X142635404Y-84921666D01*
X142609046Y-84924500D01*
X142349835Y-84924500D01*
X142282796Y-84904815D01*
X142275524Y-84899767D01*
X142217331Y-84856204D01*
X142217328Y-84856202D01*
X142082482Y-84805908D01*
X142082483Y-84805908D01*
X142022883Y-84799501D01*
X142022881Y-84799500D01*
X142022873Y-84799500D01*
X142022864Y-84799500D01*
X140977129Y-84799500D01*
X140977123Y-84799501D01*
X140917516Y-84805908D01*
X140782671Y-84856202D01*
X140782668Y-84856204D01*
X140661616Y-84946824D01*
X140634760Y-84962117D01*
X140553714Y-84995688D01*
X140455063Y-85061606D01*
X140455057Y-85061610D01*
X140451267Y-85064141D01*
X140274443Y-85240965D01*
X140213120Y-85274450D01*
X140143428Y-85269466D01*
X140125530Y-85259692D01*
X140125114Y-85260454D01*
X140117328Y-85256202D01*
X139982482Y-85205908D01*
X139982483Y-85205908D01*
X139922883Y-85199501D01*
X139922881Y-85199500D01*
X139922873Y-85199500D01*
X139922864Y-85199500D01*
X138877129Y-85199500D01*
X138877123Y-85199501D01*
X138817518Y-85205908D01*
X138799665Y-85212567D01*
X138729973Y-85217548D01*
X138668655Y-85184064D01*
X138635859Y-85151268D01*
X138635858Y-85151267D01*
X138548733Y-85064142D01*
X138548732Y-85064141D01*
X138548731Y-85064140D01*
X138492612Y-85026643D01*
X138451720Y-84999319D01*
X138446285Y-84995687D01*
X138397964Y-84975673D01*
X138365792Y-84962347D01*
X138332452Y-84948537D01*
X138332448Y-84948536D01*
X138332444Y-84948535D01*
X138260085Y-84934142D01*
X138260084Y-84934142D01*
X138211611Y-84924500D01*
X138211607Y-84924500D01*
X138211606Y-84924500D01*
X137782676Y-84924500D01*
X137715637Y-84904815D01*
X137669882Y-84852011D01*
X137659938Y-84782853D01*
X137688963Y-84719297D01*
X137694995Y-84712819D01*
X138213319Y-84194495D01*
X138274642Y-84161010D01*
X138344334Y-84165994D01*
X138400267Y-84207866D01*
X138424684Y-84273330D01*
X138425000Y-84282176D01*
X138425000Y-84347844D01*
X138431401Y-84407372D01*
X138431403Y-84407379D01*
X138481645Y-84542086D01*
X138481649Y-84542093D01*
X138567809Y-84657187D01*
X138567812Y-84657190D01*
X138682906Y-84743350D01*
X138682913Y-84743354D01*
X138817620Y-84793596D01*
X138817627Y-84793598D01*
X138877155Y-84799999D01*
X138877172Y-84800000D01*
X139275000Y-84800000D01*
X139275000Y-83296601D01*
X139245603Y-83242765D01*
X139250587Y-83173073D01*
X139279088Y-83128726D01*
X139570995Y-82836819D01*
X139632318Y-82803334D01*
X139658676Y-82800500D01*
X140618940Y-82800500D01*
X140685979Y-82820185D01*
G37*
%TD.AperFunction*%
%TA.AperFunction,Conductor*%
G36*
X140500323Y-72000500D02*
G01*
X140500326Y-72000500D01*
X141099676Y-72000500D01*
X141175808Y-71985356D01*
X141224192Y-71985356D01*
X141300323Y-72000500D01*
X141300326Y-72000500D01*
X141899676Y-72000500D01*
X141975808Y-71985356D01*
X142024192Y-71985356D01*
X142100323Y-72000500D01*
X142100326Y-72000500D01*
X142699676Y-72000500D01*
X142775808Y-71985356D01*
X142824192Y-71985356D01*
X142900323Y-72000500D01*
X142900326Y-72000500D01*
X143499676Y-72000500D01*
X143575808Y-71985356D01*
X143624192Y-71985356D01*
X143700323Y-72000500D01*
X144275500Y-72000500D01*
X144342539Y-72020185D01*
X144388294Y-72072989D01*
X144399500Y-72124500D01*
X144399500Y-72699673D01*
X144414644Y-72775810D01*
X144414644Y-72824190D01*
X144399500Y-72900326D01*
X144399500Y-73375500D01*
X144379815Y-73442539D01*
X144327011Y-73488294D01*
X144275500Y-73499500D01*
X144234108Y-73499500D01*
X144106812Y-73533608D01*
X143992686Y-73599500D01*
X143992683Y-73599502D01*
X143399502Y-74192683D01*
X143399500Y-74192686D01*
X143333608Y-74306812D01*
X143317217Y-74367987D01*
X143299500Y-74434108D01*
X143299500Y-75134108D01*
X143299500Y-75265892D01*
X143312747Y-75315330D01*
X143333608Y-75393187D01*
X143351687Y-75424500D01*
X143399500Y-75507314D01*
X143799500Y-75907314D01*
X143892686Y-76000500D01*
X144006814Y-76066392D01*
X144134107Y-76100500D01*
X144134108Y-76100500D01*
X144276000Y-76100500D01*
X144343039Y-76120185D01*
X144388794Y-76172989D01*
X144400000Y-76224500D01*
X144400000Y-76275000D01*
X146500000Y-76275000D01*
X146500000Y-76224500D01*
X146519685Y-76157461D01*
X146572489Y-76111706D01*
X146624000Y-76100500D01*
X146762680Y-76100500D01*
X146829719Y-76120185D01*
X146861948Y-76150191D01*
X146867454Y-76157546D01*
X146871690Y-76160717D01*
X146982664Y-76243793D01*
X146982671Y-76243797D01*
X147117517Y-76294091D01*
X147117516Y-76294091D01*
X147124444Y-76294835D01*
X147177127Y-76300500D01*
X148222872Y-76300499D01*
X148282483Y-76294091D01*
X148417331Y-76243796D01*
X148532546Y-76157546D01*
X148538052Y-76150191D01*
X148593985Y-76108319D01*
X148637320Y-76100500D01*
X148862680Y-76100500D01*
X148929719Y-76120185D01*
X148961948Y-76150191D01*
X148967454Y-76157546D01*
X148971690Y-76160717D01*
X149082664Y-76243793D01*
X149082671Y-76243797D01*
X149217517Y-76294091D01*
X149217516Y-76294091D01*
X149224444Y-76294835D01*
X149277127Y-76300500D01*
X150322872Y-76300499D01*
X150382483Y-76294091D01*
X150517331Y-76243796D01*
X150632546Y-76157546D01*
X150667416Y-76110966D01*
X150675485Y-76100188D01*
X150731419Y-76058318D01*
X150774751Y-76050500D01*
X150925501Y-76050500D01*
X150992540Y-76070185D01*
X151038295Y-76122989D01*
X151049501Y-76174500D01*
X151049501Y-76272876D01*
X151055908Y-76332483D01*
X151106202Y-76467328D01*
X151106203Y-76467329D01*
X151106204Y-76467331D01*
X151192452Y-76582543D01*
X151192455Y-76582547D01*
X151249810Y-76625482D01*
X151291682Y-76681415D01*
X151299500Y-76724749D01*
X151299500Y-76787819D01*
X151279815Y-76854858D01*
X151249812Y-76887085D01*
X151142452Y-76967455D01*
X151056206Y-77082664D01*
X151056202Y-77082671D01*
X151015182Y-77192654D01*
X150973311Y-77248588D01*
X150907847Y-77273005D01*
X150839574Y-77258154D01*
X150790168Y-77208748D01*
X150776552Y-77155405D01*
X150775459Y-77155463D01*
X150775356Y-77155475D01*
X150775355Y-77155469D01*
X150775177Y-77155479D01*
X150774999Y-77152155D01*
X150768598Y-77092627D01*
X150768596Y-77092620D01*
X150718354Y-76957913D01*
X150718350Y-76957906D01*
X150632190Y-76842812D01*
X150632187Y-76842809D01*
X150517093Y-76756649D01*
X150517086Y-76756645D01*
X150382379Y-76706403D01*
X150382372Y-76706401D01*
X150322844Y-76700000D01*
X149925000Y-76700000D01*
X149925000Y-78200000D01*
X150322828Y-78200000D01*
X150322844Y-78199999D01*
X150382372Y-78193598D01*
X150382379Y-78193596D01*
X150517086Y-78143354D01*
X150517089Y-78143352D01*
X150555199Y-78114823D01*
X150620662Y-78090405D01*
X150688936Y-78105256D01*
X150738342Y-78154660D01*
X150753195Y-78222932D01*
X150728780Y-78288397D01*
X150717192Y-78301770D01*
X150493002Y-78525961D01*
X150269438Y-78749525D01*
X150223488Y-78795475D01*
X150195003Y-78823960D01*
X150133679Y-78857444D01*
X150063988Y-78852459D01*
X150019639Y-78823957D01*
X150002713Y-78807031D01*
X150002712Y-78807030D01*
X149936142Y-78768596D01*
X149922790Y-78760887D01*
X149922789Y-78760886D01*
X149922788Y-78760886D01*
X149904676Y-78756033D01*
X149904672Y-78756032D01*
X149904671Y-78756031D01*
X149838846Y-78738394D01*
X149833644Y-78737000D01*
X149833643Y-78737000D01*
X148737453Y-78737000D01*
X148670414Y-78717315D01*
X148624659Y-78664511D01*
X148621271Y-78656333D01*
X148593797Y-78582671D01*
X148593793Y-78582664D01*
X148507547Y-78467455D01*
X148507544Y-78467452D01*
X148392335Y-78381206D01*
X148384546Y-78376953D01*
X148385887Y-78374495D01*
X148341413Y-78341195D01*
X148317003Y-78275728D01*
X148331862Y-78207457D01*
X148381272Y-78158057D01*
X148397358Y-78150712D01*
X148417086Y-78143354D01*
X148417093Y-78143350D01*
X148532187Y-78057190D01*
X148532190Y-78057187D01*
X148618350Y-77942093D01*
X148618354Y-77942086D01*
X148633818Y-77900626D01*
X148675689Y-77844692D01*
X148741153Y-77820275D01*
X148809426Y-77835126D01*
X148858832Y-77884531D01*
X148866182Y-77900626D01*
X148881645Y-77942086D01*
X148881649Y-77942093D01*
X148967809Y-78057187D01*
X148967812Y-78057190D01*
X149082906Y-78143350D01*
X149082913Y-78143354D01*
X149217620Y-78193596D01*
X149217627Y-78193598D01*
X149277155Y-78199999D01*
X149277172Y-78200000D01*
X149675000Y-78200000D01*
X149675000Y-76700000D01*
X149277155Y-76700000D01*
X149217627Y-76706401D01*
X149217620Y-76706403D01*
X149082913Y-76756645D01*
X149082906Y-76756649D01*
X148967812Y-76842809D01*
X148967809Y-76842812D01*
X148881649Y-76957906D01*
X148881646Y-76957911D01*
X148866182Y-76999374D01*
X148824310Y-77055307D01*
X148758846Y-77079724D01*
X148690573Y-77064872D01*
X148641168Y-77015467D01*
X148633818Y-76999374D01*
X148618353Y-76957911D01*
X148618350Y-76957906D01*
X148532190Y-76842812D01*
X148532187Y-76842809D01*
X148417093Y-76756649D01*
X148417086Y-76756645D01*
X148282379Y-76706403D01*
X148282372Y-76706401D01*
X148222844Y-76700000D01*
X147825000Y-76700000D01*
X147825000Y-77451000D01*
X147805315Y-77518039D01*
X147752511Y-77563794D01*
X147701000Y-77575000D01*
X147699000Y-77575000D01*
X147631961Y-77555315D01*
X147586206Y-77502511D01*
X147575000Y-77451000D01*
X147575000Y-76700000D01*
X147177155Y-76700000D01*
X147117627Y-76706401D01*
X147117620Y-76706403D01*
X146982913Y-76756645D01*
X146982906Y-76756649D01*
X146867812Y-76842809D01*
X146867809Y-76842812D01*
X146781649Y-76957906D01*
X146781645Y-76957913D01*
X146740682Y-77067742D01*
X146698811Y-77123676D01*
X146633346Y-77148093D01*
X146565073Y-77133241D01*
X146515668Y-77083836D01*
X146500500Y-77024409D01*
X146500500Y-76900323D01*
X146500499Y-76900321D01*
X146485101Y-76822907D01*
X146485101Y-76774523D01*
X146500000Y-76699625D01*
X146500000Y-76525000D01*
X144400000Y-76525000D01*
X144400000Y-76575500D01*
X144380315Y-76642539D01*
X144327511Y-76688294D01*
X144276000Y-76699500D01*
X143558676Y-76699500D01*
X143491637Y-76679815D01*
X143470995Y-76663181D01*
X143007316Y-76199502D01*
X143007314Y-76199500D01*
X142934501Y-76157461D01*
X142893187Y-76133608D01*
X142808684Y-76110966D01*
X142765892Y-76099500D01*
X139965893Y-76099500D01*
X139834108Y-76099500D01*
X139706812Y-76133608D01*
X139592686Y-76199500D01*
X139592683Y-76199502D01*
X138774218Y-77017967D01*
X138716212Y-77050683D01*
X138567633Y-77087304D01*
X138427762Y-77160715D01*
X138309516Y-77265471D01*
X138226550Y-77385668D01*
X138172267Y-77429658D01*
X138102818Y-77437318D01*
X138040254Y-77406214D01*
X138004436Y-77346224D01*
X138000500Y-77315228D01*
X138000500Y-76900323D01*
X137985356Y-76824192D01*
X137985356Y-76775808D01*
X138000500Y-76699676D01*
X138000500Y-76100323D01*
X138000499Y-76100321D01*
X137985101Y-76022907D01*
X137985101Y-75974523D01*
X138000000Y-75899625D01*
X138000000Y-75725000D01*
X135900000Y-75725000D01*
X135900000Y-75899622D01*
X135914899Y-75974527D01*
X135914899Y-76022908D01*
X135899500Y-76100326D01*
X135899500Y-76274409D01*
X135879815Y-76341448D01*
X135827011Y-76387203D01*
X135757853Y-76397147D01*
X135694297Y-76368122D01*
X135659318Y-76317742D01*
X135618354Y-76207913D01*
X135618350Y-76207906D01*
X135532190Y-76092812D01*
X135532187Y-76092809D01*
X135417093Y-76006649D01*
X135417086Y-76006645D01*
X135282379Y-75956403D01*
X135282372Y-75956401D01*
X135222844Y-75950000D01*
X134825000Y-75950000D01*
X134825000Y-77450000D01*
X135222828Y-77450000D01*
X135222844Y-77449999D01*
X135282372Y-77443598D01*
X135282379Y-77443596D01*
X135417086Y-77393354D01*
X135417093Y-77393350D01*
X135532187Y-77307190D01*
X135532190Y-77307187D01*
X135618350Y-77192093D01*
X135618354Y-77192086D01*
X135659318Y-77082257D01*
X135701189Y-77026323D01*
X135766653Y-77001906D01*
X135834926Y-77016758D01*
X135884332Y-77066163D01*
X135899500Y-77125590D01*
X135899500Y-77499673D01*
X135914644Y-77575810D01*
X135914644Y-77624190D01*
X135899500Y-77700326D01*
X135899500Y-78299678D01*
X135914032Y-78372735D01*
X135914033Y-78372739D01*
X135920470Y-78382372D01*
X135969399Y-78455601D01*
X136052260Y-78510966D01*
X136052264Y-78510967D01*
X136125321Y-78525499D01*
X136125324Y-78525500D01*
X137750500Y-78525500D01*
X137817539Y-78545185D01*
X137863294Y-78597989D01*
X137874500Y-78649500D01*
X137874500Y-80274678D01*
X137889032Y-80347735D01*
X137889033Y-80347739D01*
X137905561Y-80372475D01*
X137944399Y-80430601D01*
X137999999Y-80467751D01*
X138027260Y-80485966D01*
X138027264Y-80485967D01*
X138100321Y-80500499D01*
X138100324Y-80500500D01*
X138100326Y-80500500D01*
X138699676Y-80500500D01*
X138775808Y-80485356D01*
X138824192Y-80485356D01*
X138900323Y-80500500D01*
X138900326Y-80500500D01*
X139499676Y-80500500D01*
X139575808Y-80485356D01*
X139624192Y-80485356D01*
X139700323Y-80500500D01*
X139700326Y-80500500D01*
X140034009Y-80500500D01*
X140101048Y-80520185D01*
X140146803Y-80572989D01*
X140157104Y-80639445D01*
X140152827Y-80674676D01*
X140143681Y-80750000D01*
X140162722Y-80906819D01*
X140162722Y-80906821D01*
X140172093Y-80931530D01*
X140177460Y-81001193D01*
X140144312Y-81062699D01*
X140083173Y-81096520D01*
X140056151Y-81099500D01*
X138334107Y-81099500D01*
X138206812Y-81133608D01*
X138092686Y-81199500D01*
X138092683Y-81199502D01*
X137999498Y-81292688D01*
X137521020Y-81771165D01*
X137459697Y-81804650D01*
X137390005Y-81799666D01*
X137334072Y-81757794D01*
X137322858Y-81739786D01*
X137283050Y-81661658D01*
X137283046Y-81661654D01*
X137283045Y-81661652D01*
X137193347Y-81571954D01*
X137193344Y-81571952D01*
X137193342Y-81571950D01*
X137116002Y-81532543D01*
X137080301Y-81514352D01*
X136986524Y-81499500D01*
X136623482Y-81499500D01*
X136542519Y-81512323D01*
X136529696Y-81514354D01*
X136416658Y-81571950D01*
X136416657Y-81571951D01*
X136416652Y-81571954D01*
X136326954Y-81661652D01*
X136326950Y-81661657D01*
X136315213Y-81684693D01*
X136267237Y-81735488D01*
X136199416Y-81752282D01*
X136133282Y-81729743D01*
X136089831Y-81675027D01*
X136084957Y-81660500D01*
X136047984Y-81522515D01*
X136047982Y-81522512D01*
X136047983Y-81522512D01*
X136043272Y-81514353D01*
X136043270Y-81514351D01*
X135975510Y-81396985D01*
X135831437Y-81252912D01*
X135797952Y-81191589D01*
X135802936Y-81121897D01*
X135814764Y-81100238D01*
X135814544Y-81100118D01*
X135818792Y-81092335D01*
X135818796Y-81092331D01*
X135854083Y-80997719D01*
X135895953Y-80941788D01*
X135961417Y-80917371D01*
X135999938Y-80920657D01*
X136121015Y-80950500D01*
X136278985Y-80950500D01*
X136432365Y-80912696D01*
X136443559Y-80906821D01*
X136572240Y-80839283D01*
X136690483Y-80734530D01*
X136780220Y-80604523D01*
X136836237Y-80456818D01*
X136855278Y-80300000D01*
X136853700Y-80286999D01*
X136836237Y-80143181D01*
X136802391Y-80053937D01*
X136780220Y-79995477D01*
X136690483Y-79865470D01*
X136572240Y-79760717D01*
X136572238Y-79760716D01*
X136572237Y-79760715D01*
X136432365Y-79687303D01*
X136278986Y-79649500D01*
X136278985Y-79649500D01*
X136121015Y-79649500D01*
X136121014Y-79649500D01*
X135967634Y-79687303D01*
X135943397Y-79700024D01*
X135874888Y-79713747D01*
X135809836Y-79688253D01*
X135786508Y-79664537D01*
X135732547Y-79592455D01*
X135732544Y-79592452D01*
X135617335Y-79506206D01*
X135617328Y-79506202D01*
X135482486Y-79455910D01*
X135482485Y-79455909D01*
X135482483Y-79455909D01*
X135422873Y-79449500D01*
X135422863Y-79449500D01*
X134802129Y-79449500D01*
X134802123Y-79449501D01*
X134742516Y-79455908D01*
X134607671Y-79506202D01*
X134607664Y-79506206D01*
X134492455Y-79592452D01*
X134492452Y-79592455D01*
X134406206Y-79707664D01*
X134406202Y-79707671D01*
X134355908Y-79842517D01*
X134349501Y-79902116D01*
X134349500Y-79902135D01*
X134349500Y-80897870D01*
X134349501Y-80897876D01*
X134355908Y-80957483D01*
X134406202Y-81092328D01*
X134406206Y-81092335D01*
X134492452Y-81207544D01*
X134492453Y-81207545D01*
X134512310Y-81222410D01*
X134554182Y-81278343D01*
X134562000Y-81321677D01*
X134562000Y-81375500D01*
X134542315Y-81442539D01*
X134489511Y-81488294D01*
X134438000Y-81499500D01*
X134083482Y-81499500D01*
X134002519Y-81512323D01*
X133989696Y-81514354D01*
X133876658Y-81571950D01*
X133876657Y-81571951D01*
X133876652Y-81571954D01*
X133786954Y-81661652D01*
X133786949Y-81661659D01*
X133740483Y-81752852D01*
X133692508Y-81803648D01*
X133624687Y-81820442D01*
X133558552Y-81797904D01*
X133519516Y-81752852D01*
X133473050Y-81661658D01*
X133473047Y-81661655D01*
X133473045Y-81661652D01*
X133376442Y-81565049D01*
X133378142Y-81563348D01*
X133343937Y-81518992D01*
X133337956Y-81449379D01*
X133370560Y-81387583D01*
X133431397Y-81353224D01*
X133459487Y-81350000D01*
X133597828Y-81350000D01*
X133597844Y-81349999D01*
X133657372Y-81343598D01*
X133657379Y-81343596D01*
X133792086Y-81293354D01*
X133792093Y-81293350D01*
X133907187Y-81207190D01*
X133907190Y-81207187D01*
X133993350Y-81092093D01*
X133993354Y-81092086D01*
X134043596Y-80957379D01*
X134043598Y-80957372D01*
X134049999Y-80897844D01*
X134050000Y-80897827D01*
X134050000Y-80525000D01*
X133286500Y-80525000D01*
X133219461Y-80505315D01*
X133173706Y-80452511D01*
X133162500Y-80401000D01*
X133162500Y-79450000D01*
X133412500Y-79450000D01*
X133412500Y-80275000D01*
X134050000Y-80275000D01*
X134050000Y-79902172D01*
X134049999Y-79902155D01*
X134043598Y-79842627D01*
X134043596Y-79842620D01*
X133993354Y-79707913D01*
X133993350Y-79707906D01*
X133907190Y-79592812D01*
X133907187Y-79592809D01*
X133792093Y-79506649D01*
X133792086Y-79506645D01*
X133657379Y-79456403D01*
X133657372Y-79456401D01*
X133597844Y-79450000D01*
X133412500Y-79450000D01*
X133162500Y-79450000D01*
X132977155Y-79450000D01*
X132917627Y-79456401D01*
X132917620Y-79456403D01*
X132782913Y-79506645D01*
X132782910Y-79506647D01*
X132723811Y-79550889D01*
X132658346Y-79575306D01*
X132590073Y-79560454D01*
X132540668Y-79511049D01*
X132525500Y-79451622D01*
X132525500Y-79110451D01*
X132545185Y-79043412D01*
X132561815Y-79022774D01*
X133098729Y-78485860D01*
X133098733Y-78485858D01*
X133185858Y-78398733D01*
X133230902Y-78331320D01*
X133243345Y-78312698D01*
X133243346Y-78312697D01*
X133254309Y-78296289D01*
X133254312Y-78296285D01*
X133301463Y-78182451D01*
X133325500Y-78061607D01*
X133325500Y-77938393D01*
X133325500Y-77528861D01*
X133345185Y-77461822D01*
X133385418Y-77424362D01*
X133385231Y-77424112D01*
X133387565Y-77422364D01*
X133390076Y-77420027D01*
X133392323Y-77418798D01*
X133392331Y-77418796D01*
X133507546Y-77332546D01*
X133593796Y-77217331D01*
X133593796Y-77217328D01*
X133597902Y-77211845D01*
X133653836Y-77169974D01*
X133723528Y-77164990D01*
X133784851Y-77198475D01*
X133796435Y-77211844D01*
X133867812Y-77307190D01*
X133982906Y-77393350D01*
X133982913Y-77393354D01*
X134117620Y-77443596D01*
X134117627Y-77443598D01*
X134177155Y-77449999D01*
X134177172Y-77450000D01*
X134575000Y-77450000D01*
X134575000Y-75950000D01*
X134177155Y-75950000D01*
X134117627Y-75956401D01*
X134117620Y-75956403D01*
X133982913Y-76006645D01*
X133982906Y-76006649D01*
X133867812Y-76092809D01*
X133787078Y-76200655D01*
X133731144Y-76242525D01*
X133661452Y-76247509D01*
X133600130Y-76214023D01*
X133588546Y-76200655D01*
X133532284Y-76125500D01*
X133507546Y-76092454D01*
X133507544Y-76092453D01*
X133507544Y-76092452D01*
X133392335Y-76006206D01*
X133392328Y-76006202D01*
X133257482Y-75955908D01*
X133257483Y-75955908D01*
X133197883Y-75949501D01*
X133197881Y-75949500D01*
X133197873Y-75949500D01*
X133197864Y-75949500D01*
X132202129Y-75949500D01*
X132202123Y-75949501D01*
X132142516Y-75955908D01*
X132007671Y-76006202D01*
X132007664Y-76006206D01*
X131892455Y-76092452D01*
X131892452Y-76092455D01*
X131806206Y-76207664D01*
X131806202Y-76207671D01*
X131755910Y-76342513D01*
X131755909Y-76342517D01*
X131749500Y-76402127D01*
X131749500Y-76402134D01*
X131749500Y-76402135D01*
X131749500Y-77022870D01*
X131749501Y-77022876D01*
X131755908Y-77082483D01*
X131806202Y-77217328D01*
X131806206Y-77217335D01*
X131892452Y-77332544D01*
X131892455Y-77332547D01*
X132007663Y-77418792D01*
X132007665Y-77418793D01*
X132007669Y-77418796D01*
X132007673Y-77418797D01*
X132009924Y-77420027D01*
X132011746Y-77421849D01*
X132014769Y-77424112D01*
X132014443Y-77424546D01*
X132059331Y-77469431D01*
X132074500Y-77528861D01*
X132074500Y-77689547D01*
X132054815Y-77756586D01*
X132038181Y-77777228D01*
X131776139Y-78039270D01*
X131501270Y-78314139D01*
X131501267Y-78314142D01*
X131474214Y-78341195D01*
X131414139Y-78401269D01*
X131414138Y-78401271D01*
X131381915Y-78449497D01*
X131381914Y-78449499D01*
X131345690Y-78503709D01*
X131345685Y-78503718D01*
X131298540Y-78617538D01*
X131298537Y-78617546D01*
X131292182Y-78649500D01*
X131278653Y-78717517D01*
X131278171Y-78719940D01*
X131274500Y-78738394D01*
X131274500Y-81683055D01*
X131254815Y-81750094D01*
X131202011Y-81795849D01*
X131132853Y-81805793D01*
X131069297Y-81776768D01*
X131039500Y-81738327D01*
X130979980Y-81618796D01*
X130979673Y-81618179D01*
X130856764Y-81455421D01*
X130856762Y-81455418D01*
X130706042Y-81318020D01*
X130706041Y-81318019D01*
X130616301Y-81262454D01*
X130599222Y-81251879D01*
X130552587Y-81199851D01*
X130540500Y-81146452D01*
X130540500Y-75518676D01*
X130560185Y-75451637D01*
X130576819Y-75430995D01*
X131055131Y-74952683D01*
X131539364Y-74468449D01*
X131600685Y-74434966D01*
X131670376Y-74439950D01*
X131726310Y-74481822D01*
X131750727Y-74547286D01*
X131750333Y-74569378D01*
X131749500Y-74577127D01*
X131749500Y-74577130D01*
X131749500Y-75197870D01*
X131749501Y-75197876D01*
X131755908Y-75257483D01*
X131806202Y-75392328D01*
X131806206Y-75392335D01*
X131892452Y-75507544D01*
X131892455Y-75507547D01*
X132007664Y-75593793D01*
X132007671Y-75593797D01*
X132142517Y-75644091D01*
X132142516Y-75644091D01*
X132149444Y-75644835D01*
X132202127Y-75650500D01*
X133197872Y-75650499D01*
X133257483Y-75644091D01*
X133392331Y-75593796D01*
X133507546Y-75507546D01*
X133593796Y-75392331D01*
X133593798Y-75392326D01*
X133601654Y-75371264D01*
X133643524Y-75315330D01*
X133708988Y-75290912D01*
X133777261Y-75305763D01*
X133817101Y-75340283D01*
X133867454Y-75407546D01*
X133867457Y-75407548D01*
X133982664Y-75493793D01*
X133982671Y-75493797D01*
X134117517Y-75544091D01*
X134117516Y-75544091D01*
X134124444Y-75544835D01*
X134177127Y-75550500D01*
X135222872Y-75550499D01*
X135282483Y-75544091D01*
X135417331Y-75493796D01*
X135532546Y-75407546D01*
X135559707Y-75371264D01*
X135575485Y-75350188D01*
X135631419Y-75308318D01*
X135674751Y-75300500D01*
X135776000Y-75300500D01*
X135843039Y-75320185D01*
X135888794Y-75372989D01*
X135900000Y-75424500D01*
X135900000Y-75475000D01*
X138000000Y-75475000D01*
X138000000Y-75300373D01*
X137985101Y-75225473D01*
X137985101Y-75177089D01*
X138000500Y-75099676D01*
X138000500Y-74500323D01*
X137985356Y-74424192D01*
X137985356Y-74375808D01*
X138000500Y-74299676D01*
X138000500Y-73700323D01*
X137985356Y-73624192D01*
X137985356Y-73575808D01*
X138000500Y-73499676D01*
X138000500Y-73128955D01*
X138020185Y-73061916D01*
X138072989Y-73016161D01*
X138142147Y-73006217D01*
X138160347Y-73010916D01*
X138160351Y-73010901D01*
X138321014Y-73050500D01*
X138321015Y-73050500D01*
X138478986Y-73050500D01*
X138479834Y-73050397D01*
X138480454Y-73050500D01*
X138486486Y-73050500D01*
X138486486Y-73051502D01*
X138548758Y-73061854D01*
X138600545Y-73108756D01*
X138610023Y-73131454D01*
X138611103Y-73131045D01*
X138638970Y-73204523D01*
X138669780Y-73285763D01*
X138759517Y-73415770D01*
X138877760Y-73520523D01*
X138877762Y-73520524D01*
X139017634Y-73593936D01*
X139171014Y-73631740D01*
X139171015Y-73631740D01*
X139328985Y-73631740D01*
X139482365Y-73593936D01*
X139622240Y-73520523D01*
X139740483Y-73415770D01*
X139830220Y-73285763D01*
X139886237Y-73138058D01*
X139905278Y-72981240D01*
X139900658Y-72943186D01*
X139886237Y-72824421D01*
X139856733Y-72746627D01*
X139830220Y-72676717D01*
X139784697Y-72610765D01*
X139772450Y-72593022D01*
X139750567Y-72526667D01*
X139750500Y-72522582D01*
X139750500Y-72124500D01*
X139770185Y-72057461D01*
X139822989Y-72011706D01*
X139874500Y-72000500D01*
X140299676Y-72000500D01*
X140375808Y-71985356D01*
X140424192Y-71985356D01*
X140500323Y-72000500D01*
G37*
%TD.AperFunction*%
%TA.AperFunction,Conductor*%
G36*
X144688493Y-67548314D02*
G01*
X145565317Y-67578051D01*
X145570887Y-67578367D01*
X146445435Y-67647693D01*
X146450962Y-67648257D01*
X147321474Y-67757029D01*
X147327018Y-67757849D01*
X147847185Y-67846876D01*
X148191726Y-67905845D01*
X148197219Y-67906914D01*
X148760944Y-68029848D01*
X148822248Y-68063364D01*
X148855702Y-68124704D01*
X148850682Y-68194393D01*
X148808782Y-68250305D01*
X148743305Y-68274689D01*
X148734537Y-68275000D01*
X148729573Y-68275000D01*
X148729559Y-68275001D01*
X148672992Y-68281081D01*
X148545018Y-68328813D01*
X148545015Y-68328815D01*
X148435670Y-68410670D01*
X148353815Y-68520015D01*
X148353811Y-68520023D01*
X148341447Y-68553172D01*
X148299576Y-68609106D01*
X148234111Y-68633522D01*
X148165838Y-68618670D01*
X148116433Y-68569264D01*
X148109089Y-68553183D01*
X148096628Y-68519774D01*
X148014687Y-68410313D01*
X147948911Y-68361074D01*
X147905228Y-68328373D01*
X147905226Y-68328372D01*
X147777114Y-68280588D01*
X147777112Y-68280587D01*
X147777110Y-68280587D01*
X147720493Y-68274500D01*
X147179518Y-68274500D01*
X147179509Y-68274501D01*
X147122885Y-68280587D01*
X146994773Y-68328372D01*
X146885313Y-68410313D01*
X146803373Y-68519771D01*
X146755587Y-68647889D01*
X146749500Y-68704498D01*
X146749500Y-69295481D01*
X146749501Y-69295490D01*
X146755587Y-69352114D01*
X146790915Y-69446828D01*
X146803372Y-69480226D01*
X146885313Y-69589687D01*
X146885314Y-69589687D01*
X146885314Y-69589688D01*
X146899810Y-69600539D01*
X146941681Y-69656472D01*
X146949500Y-69699807D01*
X146949500Y-69949598D01*
X146929815Y-70016637D01*
X146894391Y-70052700D01*
X146869399Y-70069399D01*
X146819291Y-70144391D01*
X146765679Y-70189196D01*
X146716189Y-70199500D01*
X146334108Y-70199500D01*
X146206812Y-70233608D01*
X146092686Y-70299500D01*
X146092683Y-70299502D01*
X145049502Y-71342683D01*
X145049500Y-71342686D01*
X144983608Y-71456812D01*
X144949500Y-71584108D01*
X144949500Y-71750500D01*
X144929815Y-71817539D01*
X144877011Y-71863294D01*
X144825500Y-71874500D01*
X144649500Y-71874500D01*
X144582461Y-71854815D01*
X144536706Y-71802011D01*
X144525500Y-71750500D01*
X144525500Y-70125323D01*
X144525499Y-70125321D01*
X144510967Y-70052264D01*
X144510966Y-70052260D01*
X144508756Y-70048952D01*
X144455601Y-69969399D01*
X144372740Y-69914034D01*
X144372739Y-69914033D01*
X144372735Y-69914032D01*
X144299677Y-69899500D01*
X144299674Y-69899500D01*
X143700326Y-69899500D01*
X143624190Y-69914644D01*
X143575810Y-69914644D01*
X143499674Y-69899500D01*
X142900326Y-69899500D01*
X142824190Y-69914644D01*
X142775810Y-69914644D01*
X142699674Y-69899500D01*
X142100326Y-69899500D01*
X142024190Y-69914644D01*
X141975810Y-69914644D01*
X141899674Y-69899500D01*
X141300326Y-69899500D01*
X141224190Y-69914644D01*
X141175810Y-69914644D01*
X141099674Y-69899500D01*
X140500326Y-69899500D01*
X140424190Y-69914644D01*
X140375810Y-69914644D01*
X140299674Y-69899500D01*
X139700326Y-69899500D01*
X139624190Y-69914644D01*
X139575810Y-69914644D01*
X139499674Y-69899500D01*
X138900326Y-69899500D01*
X138824190Y-69914644D01*
X138775810Y-69914644D01*
X138699674Y-69899500D01*
X138100326Y-69899500D01*
X138100323Y-69899500D01*
X138027264Y-69914032D01*
X138027260Y-69914033D01*
X137944399Y-69969399D01*
X137889033Y-70052260D01*
X137889032Y-70052264D01*
X137874500Y-70125321D01*
X137874500Y-71750500D01*
X137854815Y-71817539D01*
X137802011Y-71863294D01*
X137750500Y-71874500D01*
X137530130Y-71874500D01*
X137463091Y-71854815D01*
X137417336Y-71802011D01*
X137407392Y-71732853D01*
X137428078Y-71680062D01*
X137480220Y-71604523D01*
X137536237Y-71456818D01*
X137555278Y-71300000D01*
X137547607Y-71236819D01*
X137536237Y-71143181D01*
X137514992Y-71087164D01*
X137480220Y-70995477D01*
X137390483Y-70865470D01*
X137272240Y-70760717D01*
X137272238Y-70760716D01*
X137272237Y-70760715D01*
X137132365Y-70687303D01*
X136978986Y-70649500D01*
X136978985Y-70649500D01*
X136821015Y-70649500D01*
X136821014Y-70649500D01*
X136667634Y-70687303D01*
X136527762Y-70760715D01*
X136409516Y-70865471D01*
X136319781Y-70995475D01*
X136319780Y-70995476D01*
X136263762Y-71143181D01*
X136244722Y-71299999D01*
X136244722Y-71300000D01*
X136263762Y-71456818D01*
X136317247Y-71597844D01*
X136319780Y-71604523D01*
X136371921Y-71680062D01*
X136393803Y-71746414D01*
X136376338Y-71814066D01*
X136325070Y-71861536D01*
X136269870Y-71874500D01*
X136125323Y-71874500D01*
X136052264Y-71889032D01*
X136052260Y-71889033D01*
X135969399Y-71944399D01*
X135914033Y-72027260D01*
X135914032Y-72027264D01*
X135899500Y-72100321D01*
X135899500Y-72575500D01*
X135879815Y-72642539D01*
X135827011Y-72688294D01*
X135775500Y-72699500D01*
X135674751Y-72699500D01*
X135607712Y-72679815D01*
X135575485Y-72649812D01*
X135534808Y-72595476D01*
X135532546Y-72592454D01*
X135523584Y-72585745D01*
X135417335Y-72506206D01*
X135417328Y-72506202D01*
X135282482Y-72455908D01*
X135282483Y-72455908D01*
X135222883Y-72449501D01*
X135222881Y-72449500D01*
X135222873Y-72449500D01*
X135222864Y-72449500D01*
X134177129Y-72449500D01*
X134177123Y-72449501D01*
X134117516Y-72455908D01*
X133982671Y-72506202D01*
X133982664Y-72506206D01*
X133867457Y-72592451D01*
X133867451Y-72592457D01*
X133824515Y-72649812D01*
X133768581Y-72691682D01*
X133725249Y-72699500D01*
X133634108Y-72699500D01*
X133506812Y-72733608D01*
X133392686Y-72799500D01*
X133261008Y-72931177D01*
X133199684Y-72964661D01*
X133129993Y-72959676D01*
X133074059Y-72917805D01*
X133050232Y-72858442D01*
X133037218Y-72751262D01*
X133036237Y-72743181D01*
X133000969Y-72650188D01*
X132980220Y-72595477D01*
X132890483Y-72465470D01*
X132772240Y-72360717D01*
X132772238Y-72360716D01*
X132772237Y-72360715D01*
X132632365Y-72287303D01*
X132478986Y-72249500D01*
X132478985Y-72249500D01*
X132321015Y-72249500D01*
X132321014Y-72249500D01*
X132167634Y-72287303D01*
X132027762Y-72360715D01*
X132027760Y-72360717D01*
X131927543Y-72449501D01*
X131909516Y-72465471D01*
X131819781Y-72595475D01*
X131819780Y-72595476D01*
X131763763Y-72743178D01*
X131763762Y-72743182D01*
X131757139Y-72797728D01*
X131729516Y-72861905D01*
X131721724Y-72870460D01*
X129732686Y-74859500D01*
X129639502Y-74952683D01*
X129639500Y-74952686D01*
X129573608Y-75066812D01*
X129539500Y-75194108D01*
X129539500Y-76043380D01*
X129519815Y-76110419D01*
X129467011Y-76156174D01*
X129397853Y-76166118D01*
X129357874Y-76153176D01*
X129232365Y-76087303D01*
X129078986Y-76049500D01*
X129078985Y-76049500D01*
X128921015Y-76049500D01*
X128921014Y-76049500D01*
X128767634Y-76087303D01*
X128627762Y-76160715D01*
X128509516Y-76265471D01*
X128419781Y-76395475D01*
X128419780Y-76395476D01*
X128363763Y-76543178D01*
X128363762Y-76543182D01*
X128357139Y-76597728D01*
X128329516Y-76661905D01*
X128321724Y-76670460D01*
X128078546Y-76913637D01*
X128017223Y-76947122D01*
X127947531Y-76942138D01*
X127891598Y-76900266D01*
X127867181Y-76834802D01*
X127882033Y-76766529D01*
X127886118Y-76759593D01*
X128207088Y-76253320D01*
X128210170Y-76248695D01*
X128211000Y-76247509D01*
X128712908Y-75529751D01*
X128716207Y-75525252D01*
X129250937Y-74829735D01*
X129254420Y-74825410D01*
X129820040Y-74154759D01*
X129823705Y-74150608D01*
X130419065Y-73506185D01*
X130422898Y-73502220D01*
X131046765Y-72885364D01*
X131050770Y-72881578D01*
X131701892Y-72293527D01*
X131706089Y-72289905D01*
X132383098Y-71731894D01*
X132387447Y-71728472D01*
X132791538Y-71425000D01*
X133725000Y-71425000D01*
X133725000Y-71597844D01*
X133731401Y-71657372D01*
X133731403Y-71657379D01*
X133781645Y-71792086D01*
X133781649Y-71792093D01*
X133867809Y-71907187D01*
X133867812Y-71907190D01*
X133982906Y-71993350D01*
X133982913Y-71993354D01*
X134117620Y-72043596D01*
X134117627Y-72043598D01*
X134177155Y-72049999D01*
X134177172Y-72050000D01*
X134575000Y-72050000D01*
X134575000Y-71425000D01*
X134825000Y-71425000D01*
X134825000Y-72050000D01*
X135222828Y-72050000D01*
X135222844Y-72049999D01*
X135282372Y-72043598D01*
X135282379Y-72043596D01*
X135417086Y-71993354D01*
X135417093Y-71993350D01*
X135532187Y-71907190D01*
X135532190Y-71907187D01*
X135618350Y-71792093D01*
X135618354Y-71792086D01*
X135668596Y-71657379D01*
X135668598Y-71657372D01*
X135674999Y-71597844D01*
X135675000Y-71597827D01*
X135675000Y-71425000D01*
X134825000Y-71425000D01*
X134575000Y-71425000D01*
X133725000Y-71425000D01*
X132791538Y-71425000D01*
X133088953Y-71201642D01*
X133093467Y-71198408D01*
X133531094Y-70899694D01*
X133597561Y-70878159D01*
X133665121Y-70895976D01*
X133712322Y-70947491D01*
X133725000Y-71002111D01*
X133725000Y-71175000D01*
X134575000Y-71175000D01*
X134575000Y-70550000D01*
X134825000Y-70550000D01*
X134825000Y-71175000D01*
X135675000Y-71175000D01*
X135675000Y-71002172D01*
X135674999Y-71002155D01*
X135668598Y-70942627D01*
X135668596Y-70942620D01*
X135618354Y-70807913D01*
X135618350Y-70807906D01*
X135532190Y-70692812D01*
X135532187Y-70692809D01*
X135417093Y-70606649D01*
X135417086Y-70606645D01*
X135282379Y-70556403D01*
X135282372Y-70556401D01*
X135222844Y-70550000D01*
X134825000Y-70550000D01*
X134575000Y-70550000D01*
X134502978Y-70550000D01*
X134435939Y-70530315D01*
X134390184Y-70477511D01*
X134380240Y-70408353D01*
X134409265Y-70344797D01*
X134437767Y-70320532D01*
X134568978Y-70239410D01*
X134573734Y-70236616D01*
X135340056Y-69809443D01*
X135344941Y-69806863D01*
X136129792Y-69414751D01*
X136134790Y-69412393D01*
X136936557Y-69056148D01*
X136941670Y-69054014D01*
X137758679Y-68734375D01*
X137763881Y-68732474D01*
X138594535Y-68450069D01*
X138599839Y-68448399D01*
X139442351Y-68203833D01*
X139447714Y-68202406D01*
X140300433Y-67996158D01*
X140305902Y-67994965D01*
X141167076Y-67827457D01*
X141172536Y-67826523D01*
X142040401Y-67698100D01*
X142045895Y-67697414D01*
X142918703Y-67608336D01*
X142924209Y-67607900D01*
X143800133Y-67558355D01*
X143805704Y-67558166D01*
X144682955Y-67548252D01*
X144688493Y-67548314D01*
G37*
%TD.AperFunction*%
%TD*%
M02*
