%TF.GenerationSoftware,KiCad,Pcbnew,8.0.1*%
%TF.CreationDate,2024-05-02T10:16:12-03:00*%
%TF.ProjectId,Sdqf,53647166-2e6b-4696-9361-645f70636258,rev?*%
%TF.SameCoordinates,Original*%
%TF.FileFunction,Paste,Top*%
%TF.FilePolarity,Positive*%
%FSLAX46Y46*%
G04 Gerber Fmt 4.6, Leading zero omitted, Abs format (unit mm)*
G04 Created by KiCad (PCBNEW 8.0.1) date 2024-05-02 10:16:12*
%MOMM*%
%LPD*%
G01*
G04 APERTURE LIST*
G04 Aperture macros list*
%AMRoundRect*
0 Rectangle with rounded corners*
0 $1 Rounding radius*
0 $2 $3 $4 $5 $6 $7 $8 $9 X,Y pos of 4 corners*
0 Add a 4 corners polygon primitive as box body*
4,1,4,$2,$3,$4,$5,$6,$7,$8,$9,$2,$3,0*
0 Add four circle primitives for the rounded corners*
1,1,$1+$1,$2,$3*
1,1,$1+$1,$4,$5*
1,1,$1+$1,$6,$7*
1,1,$1+$1,$8,$9*
0 Add four rect primitives between the rounded corners*
20,1,$1+$1,$2,$3,$4,$5,0*
20,1,$1+$1,$4,$5,$6,$7,0*
20,1,$1+$1,$6,$7,$8,$9,0*
20,1,$1+$1,$8,$9,$2,$3,0*%
G04 Aperture macros list end*
%ADD10R,0.800000X0.900000*%
%ADD11RoundRect,0.225000X0.250000X-0.225000X0.250000X0.225000X-0.250000X0.225000X-0.250000X-0.225000X0*%
%ADD12RoundRect,0.225000X-0.225000X-0.250000X0.225000X-0.250000X0.225000X0.250000X-0.225000X0.250000X0*%
%ADD13RoundRect,0.250000X-0.475000X0.250000X-0.475000X-0.250000X0.475000X-0.250000X0.475000X0.250000X0*%
%ADD14RoundRect,0.150000X0.587500X0.150000X-0.587500X0.150000X-0.587500X-0.150000X0.587500X-0.150000X0*%
%ADD15RoundRect,0.150000X-0.150000X0.825000X-0.150000X-0.825000X0.150000X-0.825000X0.150000X0.825000X0*%
%ADD16R,0.550000X1.600000*%
%ADD17R,1.600000X0.550000*%
%ADD18R,1.800000X2.500000*%
%ADD19RoundRect,0.250000X0.450000X-0.262500X0.450000X0.262500X-0.450000X0.262500X-0.450000X-0.262500X0*%
%ADD20RoundRect,0.250000X0.475000X-0.250000X0.475000X0.250000X-0.475000X0.250000X-0.475000X-0.250000X0*%
%ADD21RoundRect,0.250000X-0.250000X-0.475000X0.250000X-0.475000X0.250000X0.475000X-0.250000X0.475000X0*%
%ADD22R,0.250000X1.100000*%
%ADD23RoundRect,0.250000X-0.450000X0.262500X-0.450000X-0.262500X0.450000X-0.262500X0.450000X0.262500X0*%
%ADD24RoundRect,0.250000X-0.262500X-0.450000X0.262500X-0.450000X0.262500X0.450000X-0.262500X0.450000X0*%
%ADD25RoundRect,0.150000X-0.150000X0.587500X-0.150000X-0.587500X0.150000X-0.587500X0.150000X0.587500X0*%
%ADD26RoundRect,0.250000X0.250000X0.475000X-0.250000X0.475000X-0.250000X-0.475000X0.250000X-0.475000X0*%
G04 APERTURE END LIST*
D10*
%TO.C,Y1*%
X148550000Y-70700000D03*
X148550000Y-72100000D03*
X147450000Y-72100000D03*
X147450000Y-70700000D03*
%TD*%
D11*
%TO.C,C12*%
X150200000Y-70550000D03*
X150200000Y-72100000D03*
%TD*%
D12*
%TO.C,C2*%
X149000000Y-69000000D03*
X147450000Y-69000000D03*
%TD*%
D13*
%TO.C,C7*%
X147700000Y-77450000D03*
X147700000Y-75550000D03*
%TD*%
%TO.C,C6*%
X158200000Y-84830000D03*
X158200000Y-86730000D03*
%TD*%
D14*
%TO.C,D2*%
X158400000Y-91900000D03*
X158400000Y-90000000D03*
X156525000Y-90950000D03*
%TD*%
D15*
%TO.C,U3*%
X136805000Y-82725000D03*
X135535000Y-82725000D03*
X134265000Y-82725000D03*
X132995000Y-82725000D03*
X132995000Y-87675000D03*
X134265000Y-87675000D03*
X135535000Y-87675000D03*
X136805000Y-87675000D03*
%TD*%
D16*
%TO.C,U2*%
X144000000Y-79450000D03*
X143200000Y-79450000D03*
X142400000Y-79450000D03*
X141600000Y-79450000D03*
X140800000Y-79450000D03*
X140000000Y-79450000D03*
X139200000Y-79450000D03*
X138400000Y-79450000D03*
D17*
X136950000Y-78000000D03*
X136950000Y-77200000D03*
X136950000Y-76400000D03*
X136950000Y-75600000D03*
X136950000Y-74800000D03*
X136950000Y-74000000D03*
X136950000Y-73200000D03*
X136950000Y-72400000D03*
D16*
X138400000Y-70950000D03*
X139200000Y-70950000D03*
X140000000Y-70950000D03*
X140800000Y-70950000D03*
X141600000Y-70950000D03*
X142400000Y-70950000D03*
X143200000Y-70950000D03*
X144000000Y-70950000D03*
D17*
X145450000Y-72400000D03*
X145450000Y-73200000D03*
X145450000Y-74000000D03*
X145450000Y-74800000D03*
X145450000Y-75600000D03*
X145450000Y-76400000D03*
X145450000Y-77200000D03*
X145450000Y-78000000D03*
%TD*%
D18*
%TO.C,D1*%
X157700000Y-94300000D03*
X157700000Y-98300000D03*
%TD*%
D13*
%TO.C,C4*%
X134700000Y-76700000D03*
X134700000Y-74800000D03*
%TD*%
D19*
%TO.C,R1*%
X147700000Y-82487500D03*
X147700000Y-84312500D03*
%TD*%
D13*
%TO.C,C5*%
X149800000Y-75550000D03*
X149800000Y-77450000D03*
%TD*%
D19*
%TO.C,R5*%
X147700000Y-79087500D03*
X147700000Y-80912500D03*
%TD*%
D20*
%TO.C,C10*%
X141500000Y-85550000D03*
X141500000Y-83650000D03*
%TD*%
D21*
%TO.C,C1*%
X160550000Y-91900000D03*
X162450000Y-91900000D03*
%TD*%
%TO.C,C3*%
X162450000Y-89900000D03*
X160550000Y-89900000D03*
%TD*%
D22*
%TO.C,U4*%
X149500000Y-80100000D03*
X150000000Y-80100000D03*
X150500000Y-80100000D03*
X151000000Y-80100000D03*
X151500000Y-80100000D03*
X151500000Y-84400000D03*
X151000000Y-84400000D03*
X150500000Y-84400000D03*
X150000000Y-84400000D03*
X149500000Y-84400000D03*
%TD*%
D21*
%TO.C,C13*%
X153700000Y-75750000D03*
X151800000Y-75750000D03*
%TD*%
D23*
%TO.C,L1*%
X132700000Y-76712500D03*
X132700000Y-74887500D03*
%TD*%
D13*
%TO.C,C8*%
X156100000Y-84830000D03*
X156100000Y-86730000D03*
%TD*%
D21*
%TO.C,C14*%
X153650000Y-77800000D03*
X151750000Y-77800000D03*
%TD*%
D20*
%TO.C,C9*%
X134700000Y-73200000D03*
X134700000Y-71300000D03*
%TD*%
D24*
%TO.C,R4*%
X133287500Y-80400000D03*
X135112500Y-80400000D03*
%TD*%
D20*
%TO.C,C11*%
X139400000Y-85950000D03*
X139400000Y-84050000D03*
%TD*%
D19*
%TO.C,R2*%
X143500000Y-85512500D03*
X143500000Y-83687500D03*
%TD*%
%TO.C,R11*%
X140680000Y-87775000D03*
X140680000Y-89600000D03*
%TD*%
D25*
%TO.C,D4*%
X135850000Y-90025000D03*
X133950000Y-90025000D03*
X134900000Y-91900000D03*
%TD*%
D13*
%TO.C,C16*%
X152100000Y-86200000D03*
X152100000Y-88100000D03*
%TD*%
D26*
%TO.C,C15*%
X148150000Y-86300000D03*
X150050000Y-86300000D03*
%TD*%
D19*
%TO.C,R10*%
X143220000Y-89600000D03*
X143220000Y-87775000D03*
%TD*%
M02*
