M48
; DRILL file {KiCad 8.0.1} date 2024-05-02T10:16:16-0300
; FORMAT={-:-/ absolute / inch / decimal}
; #@! TF.CreationDate,2024-05-02T10:16:16-03:00
; #@! TF.GenerationSoftware,Kicad,Pcbnew,8.0.1
; #@! TF.FileFunction,Plated,1,2,PTH
FMAT,2
INCH
; #@! TA.AperFunction,Plated,PTH,ViaDrill
T1C0.0157
; #@! TA.AperFunction,Plated,PTH,ComponentDrill
T2C0.0295
; #@! TA.AperFunction,Plated,PTH,ComponentDrill
T3C0.0394
; #@! TA.AperFunction,Plated,PTH,ComponentDrill
T4C0.0512
%
G90
G05
T1
X4.9528Y-3.2992
X4.9528Y-3.3346
X5.0787Y-3.0197
X5.0787Y-3.1102
X5.0787Y-3.1457
X5.1535Y-3.0591
X5.1535Y-3.0945
X5.1614Y-2.9803
X5.2126Y-2.8701
X5.252Y-3.0984
X5.2795Y-3.0669
X5.315Y-3.6929
X5.315Y-3.7283
X5.3425Y-2.7559
X5.3504Y-3.1102
X5.3622Y-3.1614
X5.378Y-2.7559
X5.3898Y-2.8071
X5.4488Y-2.8504
X5.4646Y-3.0591
X5.4823Y-2.8733
X5.4882Y-3.3071
X5.5118Y-3.2736
X5.5349Y-3.3296
X5.5433Y-3.1791
X5.5433Y-2.8622
X5.5709Y-3.2913
X5.5748Y-3.0807
X5.5787Y-2.8622
X5.6142Y-2.8622
X5.6496Y-2.8622
X5.6604Y-3.0728
X5.6732Y-3.2087
X5.7047Y-3.6654
X5.7092Y-3.3194
X5.7402Y-3.6654
X5.748Y-3.3194
X5.7638Y-3.1142
X5.7677Y-3.248
X5.7717Y-3.7441
X5.7717Y-3.7795
X5.7756Y-3.6654
X5.7795Y-3.378
X5.7795Y-3.4134
X5.8071Y-3.7441
X5.8071Y-3.7795
X5.8425Y-3.7441
X5.8425Y-3.7795
X5.878Y-3.7441
X5.878Y-3.7795
X5.9134Y-2.7244
X5.9291Y-3.2087
X5.9488Y-2.7244
X5.9606Y-3.5197
X5.9646Y-2.7598
X5.9646Y-2.7953
X5.9685Y-3.2087
X5.9961Y-3.5197
X6.0079Y-3.3071
X6.0079Y-3.3425
X6.0236Y-3.2598
X6.0591Y-3.6299
X6.063Y-3.2598
X6.0945Y-3.6299
X6.0984Y-2.9606
X6.0984Y-2.9961
X6.0984Y-3.0472
X6.0984Y-3.0827
X6.126Y-3.4685
X6.1299Y-3.6299
X6.1614Y-3.4685
X6.1654Y-3.6299
X6.2087Y-3.4685
X6.2441Y-3.4685
X6.2874Y-3.3898
X6.2874Y-3.4252
X6.3189Y-3.7717
X6.3465Y-3.7441
X6.3701Y-3.7126
X6.3898Y-3.6811
X6.4055Y-3.374
X6.4055Y-3.4094
T2
X6.348Y-3.3398
X6.348Y-3.3898
X6.348Y-3.4398
T3
X5.0197Y-3.2362
X5.0197Y-3.3362
X5.0197Y-3.4362
X5.1197Y-3.2362
X5.1197Y-3.3362
X5.1197Y-3.4362
X5.5386Y-3.5974
X5.6386Y-3.5974
X5.7386Y-3.5974
X5.8386Y-3.5974
T4
X5.374Y-3.8898
X5.574Y-3.8898
X5.815Y-3.8898
X6.015Y-3.8898
M30
