%TF.GenerationSoftware,KiCad,Pcbnew,8.0.1*%
%TF.CreationDate,2024-05-02T10:16:12-03:00*%
%TF.ProjectId,Sdqf,53647166-2e6b-4696-9361-645f70636258,rev?*%
%TF.SameCoordinates,Original*%
%TF.FileFunction,Legend,Top*%
%TF.FilePolarity,Positive*%
%FSLAX46Y46*%
G04 Gerber Fmt 4.6, Leading zero omitted, Abs format (unit mm)*
G04 Created by KiCad (PCBNEW 8.0.1) date 2024-05-02 10:16:12*
%MOMM*%
%LPD*%
G01*
G04 APERTURE LIST*
%ADD10C,0.250000*%
%ADD11C,0.150000*%
%ADD12C,0.120000*%
G04 APERTURE END LIST*
D10*
G36*
X129859167Y-89311934D02*
G01*
X129918051Y-89369066D01*
X129953810Y-89505760D01*
X129955839Y-89807890D01*
X129920429Y-89956377D01*
X129865914Y-90012565D01*
X129813624Y-90039921D01*
X129682151Y-90041391D01*
X129631683Y-90017304D01*
X129572797Y-89960169D01*
X129537039Y-89823476D01*
X129535010Y-89521346D01*
X129570420Y-89372857D01*
X129624933Y-89316673D01*
X129677225Y-89289316D01*
X129808699Y-89287846D01*
X129859167Y-89311934D01*
G37*
G36*
X128859693Y-89312184D02*
G01*
X128879858Y-89331321D01*
X128906529Y-89382302D01*
X128907736Y-89466352D01*
X128883573Y-89516981D01*
X128864436Y-89537147D01*
X128813899Y-89563586D01*
X128699666Y-89564263D01*
X128695096Y-89563457D01*
X128691230Y-89564313D01*
X128583304Y-89564953D01*
X128582657Y-89288890D01*
X128808086Y-89287554D01*
X128859693Y-89312184D01*
G37*
G36*
X126859349Y-89754728D02*
G01*
X126726780Y-89755364D01*
X126792678Y-89556191D01*
X126859349Y-89754728D01*
G37*
G36*
X131281139Y-90414619D02*
G01*
X126210693Y-90414619D01*
X126210693Y-90148985D01*
X126335693Y-90148985D01*
X126339150Y-90197634D01*
X126360962Y-90241259D01*
X126397808Y-90273214D01*
X126444077Y-90288637D01*
X126492726Y-90285180D01*
X126536351Y-90263368D01*
X126568306Y-90226522D01*
X126578296Y-90204147D01*
X126644691Y-90003473D01*
X126942400Y-90002044D01*
X127017782Y-90226522D01*
X127049737Y-90263368D01*
X127093361Y-90285180D01*
X127142011Y-90288637D01*
X127188280Y-90273214D01*
X127225126Y-90241258D01*
X127246938Y-90197634D01*
X127250395Y-90148984D01*
X127244962Y-90125090D01*
X127066344Y-89593190D01*
X127287092Y-89593190D01*
X127289055Y-89729919D01*
X127287240Y-89742123D01*
X127289445Y-89757038D01*
X127289494Y-89760433D01*
X127290198Y-89762134D01*
X127290824Y-89766364D01*
X127338326Y-89947950D01*
X127339150Y-89959539D01*
X127346127Y-89977772D01*
X127346688Y-89979915D01*
X127347224Y-89980639D01*
X127347908Y-89982425D01*
X127397990Y-90078156D01*
X127403396Y-90091207D01*
X127407318Y-90095986D01*
X127408581Y-90098400D01*
X127411072Y-90100560D01*
X127418941Y-90110149D01*
X127502714Y-90191430D01*
X127503819Y-90193640D01*
X127514862Y-90203217D01*
X127533121Y-90220933D01*
X127537272Y-90222652D01*
X127540665Y-90225595D01*
X127563040Y-90235585D01*
X127706836Y-90281334D01*
X127721039Y-90287217D01*
X127727249Y-90287828D01*
X127729790Y-90288637D01*
X127733081Y-90288403D01*
X127745425Y-90289619D01*
X127842644Y-90287666D01*
X127856297Y-90288637D01*
X127862299Y-90287272D01*
X127865049Y-90287217D01*
X127868100Y-90285953D01*
X127880191Y-90283204D01*
X128005260Y-90239598D01*
X128007908Y-90239598D01*
X128021985Y-90233766D01*
X128045423Y-90225595D01*
X128048815Y-90222652D01*
X128052967Y-90220933D01*
X128071909Y-90205387D01*
X128135054Y-90138844D01*
X128135073Y-90138826D01*
X128153737Y-90093766D01*
X128156139Y-90069380D01*
X128153737Y-89711661D01*
X128135073Y-89666601D01*
X128100585Y-89632113D01*
X128055525Y-89613449D01*
X128031139Y-89611047D01*
X127816277Y-89613449D01*
X127771217Y-89632113D01*
X127736729Y-89666601D01*
X127718065Y-89711661D01*
X127718065Y-89760433D01*
X127736729Y-89805493D01*
X127771217Y-89839981D01*
X127816277Y-89858645D01*
X127840663Y-89861047D01*
X127906973Y-89860305D01*
X127907985Y-90010968D01*
X127824904Y-90039935D01*
X127769296Y-90041052D01*
X127671814Y-90010038D01*
X127611765Y-89951775D01*
X127579264Y-89889650D01*
X127536976Y-89727997D01*
X127535355Y-89615139D01*
X127573846Y-89453727D01*
X127607026Y-89384209D01*
X127667375Y-89322009D01*
X127760913Y-89289396D01*
X127856682Y-89288021D01*
X127950504Y-89332799D01*
X127999153Y-89336256D01*
X128045424Y-89320833D01*
X128082269Y-89288877D01*
X128104080Y-89245254D01*
X128107538Y-89196604D01*
X128096877Y-89164619D01*
X128334711Y-89164619D01*
X128337113Y-90189005D01*
X128355777Y-90234065D01*
X128390265Y-90268553D01*
X128435325Y-90287217D01*
X128484097Y-90287217D01*
X128529157Y-90268553D01*
X128563645Y-90234065D01*
X128582309Y-90189005D01*
X128584711Y-90164619D01*
X128583885Y-89812692D01*
X128632317Y-89812405D01*
X128944687Y-90254902D01*
X128985818Y-90281114D01*
X129033849Y-90289590D01*
X129081467Y-90279040D01*
X129121422Y-90251071D01*
X129147634Y-90209941D01*
X129156110Y-90161909D01*
X129145560Y-90114292D01*
X129133543Y-90092936D01*
X128918729Y-89788635D01*
X128992301Y-89750145D01*
X129005347Y-89744742D01*
X129010123Y-89740822D01*
X129012540Y-89739558D01*
X129014703Y-89737063D01*
X129024289Y-89729197D01*
X129072994Y-89677872D01*
X129082269Y-89669829D01*
X129085502Y-89664692D01*
X129087453Y-89662637D01*
X129088716Y-89659586D01*
X129095323Y-89649092D01*
X129133619Y-89568851D01*
X129135073Y-89567398D01*
X129140064Y-89555348D01*
X129151700Y-89530968D01*
X129152018Y-89526487D01*
X129153737Y-89522338D01*
X129156139Y-89497952D01*
X129287092Y-89497952D01*
X129289279Y-89823657D01*
X129287240Y-89837361D01*
X129289472Y-89852460D01*
X129289494Y-89855671D01*
X129290198Y-89857372D01*
X129290824Y-89861602D01*
X129337113Y-90038550D01*
X129337113Y-90046147D01*
X129342506Y-90059168D01*
X129346688Y-90075153D01*
X129352220Y-90082619D01*
X129355777Y-90091207D01*
X129371322Y-90110149D01*
X129468491Y-90204428D01*
X129478310Y-90215749D01*
X129483575Y-90219063D01*
X129485502Y-90220933D01*
X129488552Y-90222196D01*
X129499047Y-90228803D01*
X129579287Y-90267099D01*
X129580741Y-90268553D01*
X129592790Y-90273544D01*
X129617171Y-90285180D01*
X129621651Y-90285498D01*
X129625801Y-90287217D01*
X129650187Y-90289619D01*
X129822203Y-90287695D01*
X129825029Y-90288638D01*
X129841282Y-90287482D01*
X129865049Y-90287217D01*
X129869197Y-90285498D01*
X129873679Y-90285180D01*
X129896565Y-90276422D01*
X129992298Y-90226338D01*
X130005348Y-90220933D01*
X130010125Y-90217011D01*
X130012540Y-90215749D01*
X130014701Y-90213257D01*
X130024290Y-90205388D01*
X130109145Y-90117930D01*
X130115127Y-90114341D01*
X130123202Y-90103441D01*
X130135073Y-90091207D01*
X130138630Y-90082618D01*
X130144162Y-90075153D01*
X130152407Y-90052078D01*
X130196377Y-89867689D01*
X130201356Y-89855671D01*
X130202842Y-89840581D01*
X130203610Y-89837362D01*
X130203338Y-89835539D01*
X130203758Y-89831285D01*
X130201570Y-89505579D01*
X130203610Y-89491875D01*
X130201377Y-89476776D01*
X130201356Y-89473566D01*
X130200651Y-89471864D01*
X130200026Y-89467635D01*
X130170586Y-89355095D01*
X130334711Y-89355095D01*
X130336274Y-89432952D01*
X130335692Y-89434699D01*
X130336552Y-89446805D01*
X130337113Y-89474719D01*
X130338831Y-89478867D01*
X130339150Y-89483349D01*
X130347908Y-89506235D01*
X130397993Y-89601971D01*
X130403397Y-89615017D01*
X130407316Y-89619793D01*
X130408581Y-89622210D01*
X130411075Y-89624373D01*
X130418942Y-89633959D01*
X130470266Y-89682664D01*
X130478310Y-89691939D01*
X130483446Y-89695172D01*
X130485502Y-89697123D01*
X130488552Y-89698386D01*
X130499047Y-89704993D01*
X130588500Y-89747686D01*
X130596795Y-89753832D01*
X130615025Y-89760345D01*
X130617171Y-89761370D01*
X130618070Y-89761433D01*
X130619870Y-89762077D01*
X130789649Y-89802563D01*
X130859693Y-89835993D01*
X130879858Y-89855130D01*
X130906691Y-89906420D01*
X130907429Y-89943185D01*
X130883572Y-89993173D01*
X130864436Y-90013338D01*
X130813731Y-90039865D01*
X130628050Y-90041564D01*
X130475345Y-89992982D01*
X130426696Y-89996439D01*
X130383071Y-90018251D01*
X130351116Y-90055097D01*
X130335693Y-90101366D01*
X130339150Y-90150015D01*
X130360962Y-90193640D01*
X130397808Y-90225595D01*
X130420183Y-90235585D01*
X130563979Y-90281334D01*
X130578182Y-90287217D01*
X130584392Y-90287828D01*
X130586933Y-90288637D01*
X130590224Y-90288403D01*
X130602568Y-90289619D01*
X130821949Y-90287611D01*
X130825029Y-90288638D01*
X130842061Y-90287427D01*
X130865049Y-90287217D01*
X130869197Y-90285498D01*
X130873679Y-90285180D01*
X130896565Y-90276422D01*
X130992297Y-90226338D01*
X131005348Y-90220933D01*
X131010125Y-90217012D01*
X131012540Y-90215749D01*
X131014702Y-90213255D01*
X131024290Y-90205387D01*
X131072991Y-90154065D01*
X131082269Y-90146019D01*
X131085504Y-90140879D01*
X131087454Y-90138825D01*
X131088716Y-90135776D01*
X131095323Y-90125282D01*
X131133619Y-90045041D01*
X131135073Y-90043588D01*
X131140064Y-90031538D01*
X131151700Y-90007158D01*
X131152018Y-90002677D01*
X131153737Y-89998528D01*
X131156139Y-89974142D01*
X131154575Y-89896281D01*
X131155157Y-89894537D01*
X131154297Y-89882445D01*
X131153737Y-89854518D01*
X131152018Y-89850368D01*
X131151700Y-89845888D01*
X131142942Y-89823002D01*
X131092858Y-89727268D01*
X131087453Y-89714219D01*
X131083531Y-89709441D01*
X131082269Y-89707027D01*
X131079777Y-89704865D01*
X131071908Y-89695277D01*
X131020586Y-89646575D01*
X131012540Y-89637298D01*
X131007400Y-89634062D01*
X131005347Y-89632114D01*
X131002300Y-89630852D01*
X130991802Y-89624243D01*
X130902349Y-89581550D01*
X130894055Y-89575405D01*
X130875824Y-89568891D01*
X130873679Y-89567867D01*
X130872779Y-89567803D01*
X130870980Y-89567160D01*
X130701203Y-89526673D01*
X130631157Y-89493243D01*
X130610991Y-89474106D01*
X130584158Y-89422816D01*
X130583420Y-89386050D01*
X130607276Y-89336064D01*
X130626413Y-89315899D01*
X130677118Y-89289372D01*
X130862801Y-89287673D01*
X131015504Y-89336256D01*
X131064154Y-89332799D01*
X131107778Y-89310987D01*
X131139734Y-89274141D01*
X131155157Y-89227872D01*
X131151700Y-89179222D01*
X131129888Y-89135598D01*
X131093042Y-89103643D01*
X131070667Y-89093652D01*
X130926871Y-89047904D01*
X130912668Y-89042021D01*
X130906456Y-89041409D01*
X130903916Y-89040601D01*
X130900625Y-89040834D01*
X130888282Y-89039619D01*
X130668897Y-89041626D01*
X130665820Y-89040601D01*
X130648798Y-89041810D01*
X130625801Y-89042021D01*
X130621651Y-89043739D01*
X130617171Y-89044058D01*
X130594285Y-89052816D01*
X130498551Y-89102899D01*
X130485502Y-89108305D01*
X130480724Y-89112226D01*
X130478310Y-89113489D01*
X130476148Y-89115980D01*
X130466560Y-89123850D01*
X130417858Y-89175171D01*
X130408581Y-89183218D01*
X130405345Y-89188357D01*
X130403397Y-89190411D01*
X130402135Y-89193457D01*
X130395526Y-89203956D01*
X130357230Y-89284195D01*
X130355777Y-89285649D01*
X130350786Y-89297697D01*
X130339150Y-89322079D01*
X130338831Y-89326560D01*
X130337113Y-89330709D01*
X130334711Y-89355095D01*
X130170586Y-89355095D01*
X130153737Y-89290686D01*
X130153737Y-89283089D01*
X130148343Y-89270068D01*
X130144162Y-89254084D01*
X130138628Y-89246615D01*
X130135072Y-89238030D01*
X130119527Y-89219088D01*
X130022362Y-89124814D01*
X130012540Y-89113489D01*
X130007271Y-89110172D01*
X130005347Y-89108305D01*
X130002300Y-89107043D01*
X129991802Y-89100434D01*
X129911562Y-89062138D01*
X129910109Y-89060685D01*
X129898060Y-89055694D01*
X129873679Y-89044058D01*
X129869197Y-89043739D01*
X129865049Y-89042021D01*
X129840663Y-89039619D01*
X129668643Y-89041542D01*
X129665820Y-89040601D01*
X129649577Y-89041755D01*
X129625801Y-89042021D01*
X129621651Y-89043739D01*
X129617171Y-89044058D01*
X129594285Y-89052816D01*
X129498548Y-89102901D01*
X129485503Y-89108305D01*
X129480726Y-89112224D01*
X129478310Y-89113489D01*
X129476146Y-89115983D01*
X129466561Y-89123850D01*
X129381707Y-89211305D01*
X129375723Y-89214896D01*
X129367643Y-89225800D01*
X129355778Y-89238030D01*
X129352221Y-89246615D01*
X129346688Y-89254084D01*
X129338443Y-89277159D01*
X129294472Y-89461546D01*
X129289494Y-89473566D01*
X129288007Y-89488657D01*
X129287240Y-89491876D01*
X129287511Y-89493697D01*
X129287092Y-89497952D01*
X129156139Y-89497952D01*
X129154346Y-89373159D01*
X129155157Y-89370728D01*
X129154097Y-89355820D01*
X129153737Y-89330709D01*
X129152018Y-89326559D01*
X129151700Y-89322079D01*
X129142942Y-89299193D01*
X129092858Y-89203459D01*
X129087453Y-89190410D01*
X129083531Y-89185632D01*
X129082269Y-89183218D01*
X129079777Y-89181056D01*
X129071908Y-89171468D01*
X129020586Y-89122766D01*
X129012540Y-89113489D01*
X129007400Y-89110253D01*
X129005347Y-89108305D01*
X129002300Y-89107043D01*
X128991802Y-89100434D01*
X128911562Y-89062138D01*
X128910109Y-89060685D01*
X128898060Y-89055694D01*
X128873679Y-89044058D01*
X128869197Y-89043739D01*
X128865049Y-89042021D01*
X128840663Y-89039619D01*
X128435325Y-89042021D01*
X128390265Y-89060685D01*
X128355777Y-89095173D01*
X128337113Y-89140233D01*
X128334711Y-89164619D01*
X128096877Y-89164619D01*
X128092115Y-89150334D01*
X128060159Y-89113489D01*
X128039421Y-89100434D01*
X127959181Y-89062138D01*
X127957728Y-89060685D01*
X127945679Y-89055694D01*
X127921298Y-89044058D01*
X127916816Y-89043739D01*
X127912668Y-89042021D01*
X127888282Y-89039619D01*
X127744942Y-89041677D01*
X127729790Y-89040601D01*
X127723713Y-89041982D01*
X127721039Y-89042021D01*
X127717989Y-89043284D01*
X127705896Y-89046034D01*
X127580828Y-89089640D01*
X127578181Y-89089640D01*
X127564109Y-89095468D01*
X127540665Y-89103643D01*
X127537271Y-89106586D01*
X127533122Y-89108305D01*
X127514180Y-89123850D01*
X127419906Y-89221014D01*
X127408581Y-89230837D01*
X127405264Y-89236105D01*
X127403397Y-89238030D01*
X127402135Y-89241076D01*
X127395526Y-89251575D01*
X127352833Y-89341027D01*
X127346688Y-89349322D01*
X127340174Y-89367552D01*
X127339150Y-89369698D01*
X127339086Y-89370597D01*
X127338443Y-89372397D01*
X127294472Y-89556784D01*
X127289494Y-89568804D01*
X127288007Y-89583895D01*
X127287240Y-89587114D01*
X127287511Y-89588935D01*
X127287092Y-89593190D01*
X127066344Y-89593190D01*
X126914212Y-89140159D01*
X126913605Y-89131604D01*
X126906707Y-89117808D01*
X126901639Y-89102716D01*
X126895787Y-89095968D01*
X126891793Y-89087980D01*
X126879955Y-89077713D01*
X126869684Y-89065870D01*
X126861692Y-89061874D01*
X126854947Y-89056024D01*
X126840079Y-89051068D01*
X126826059Y-89044058D01*
X126817149Y-89043424D01*
X126808678Y-89040601D01*
X126793043Y-89041711D01*
X126777410Y-89040601D01*
X126768938Y-89043424D01*
X126760028Y-89044058D01*
X126746006Y-89051069D01*
X126731141Y-89056024D01*
X126724395Y-89061874D01*
X126716404Y-89065870D01*
X126706135Y-89077710D01*
X126694295Y-89087979D01*
X126690299Y-89095969D01*
X126684449Y-89102716D01*
X126674458Y-89125091D01*
X126436173Y-89845288D01*
X126432351Y-89854518D01*
X126432351Y-89856842D01*
X126335693Y-90148985D01*
X126210693Y-90148985D01*
X126210693Y-88914619D01*
X131281139Y-88914619D01*
X131281139Y-90414619D01*
G37*
D11*
X129236904Y-97658344D02*
X129641666Y-97658344D01*
X129155952Y-97901201D02*
X129439285Y-97051201D01*
X129439285Y-97051201D02*
X129722619Y-97901201D01*
X130451190Y-97091677D02*
X130370237Y-97051201D01*
X130370237Y-97051201D02*
X130248809Y-97051201D01*
X130248809Y-97051201D02*
X130127380Y-97091677D01*
X130127380Y-97091677D02*
X130046428Y-97172629D01*
X130046428Y-97172629D02*
X130005951Y-97253582D01*
X130005951Y-97253582D02*
X129965475Y-97415486D01*
X129965475Y-97415486D02*
X129965475Y-97536915D01*
X129965475Y-97536915D02*
X130005951Y-97698820D01*
X130005951Y-97698820D02*
X130046428Y-97779772D01*
X130046428Y-97779772D02*
X130127380Y-97860725D01*
X130127380Y-97860725D02*
X130248809Y-97901201D01*
X130248809Y-97901201D02*
X130329761Y-97901201D01*
X130329761Y-97901201D02*
X130451190Y-97860725D01*
X130451190Y-97860725D02*
X130491666Y-97820248D01*
X130491666Y-97820248D02*
X130491666Y-97536915D01*
X130491666Y-97536915D02*
X130329761Y-97536915D01*
X130855951Y-97577391D02*
X131503571Y-97577391D01*
X131867856Y-97132153D02*
X131908332Y-97091677D01*
X131908332Y-97091677D02*
X131989285Y-97051201D01*
X131989285Y-97051201D02*
X132191666Y-97051201D01*
X132191666Y-97051201D02*
X132272618Y-97091677D01*
X132272618Y-97091677D02*
X132313094Y-97132153D01*
X132313094Y-97132153D02*
X132353571Y-97213105D01*
X132353571Y-97213105D02*
X132353571Y-97294058D01*
X132353571Y-97294058D02*
X132313094Y-97415486D01*
X132313094Y-97415486D02*
X131827380Y-97901201D01*
X131827380Y-97901201D02*
X132353571Y-97901201D01*
X133082142Y-97051201D02*
X132920237Y-97051201D01*
X132920237Y-97051201D02*
X132839285Y-97091677D01*
X132839285Y-97091677D02*
X132798809Y-97132153D01*
X132798809Y-97132153D02*
X132717856Y-97253582D01*
X132717856Y-97253582D02*
X132677380Y-97415486D01*
X132677380Y-97415486D02*
X132677380Y-97739296D01*
X132677380Y-97739296D02*
X132717856Y-97820248D01*
X132717856Y-97820248D02*
X132758333Y-97860725D01*
X132758333Y-97860725D02*
X132839285Y-97901201D01*
X132839285Y-97901201D02*
X133001190Y-97901201D01*
X133001190Y-97901201D02*
X133082142Y-97860725D01*
X133082142Y-97860725D02*
X133122618Y-97820248D01*
X133122618Y-97820248D02*
X133163095Y-97739296D01*
X133163095Y-97739296D02*
X133163095Y-97536915D01*
X133163095Y-97536915D02*
X133122618Y-97455963D01*
X133122618Y-97455963D02*
X133082142Y-97415486D01*
X133082142Y-97415486D02*
X133001190Y-97375010D01*
X133001190Y-97375010D02*
X132839285Y-97375010D01*
X132839285Y-97375010D02*
X132758333Y-97415486D01*
X132758333Y-97415486D02*
X132717856Y-97455963D01*
X132717856Y-97455963D02*
X132677380Y-97536915D01*
X129823810Y-99269653D02*
X129540476Y-98864891D01*
X129338095Y-99269653D02*
X129338095Y-98419653D01*
X129338095Y-98419653D02*
X129661905Y-98419653D01*
X129661905Y-98419653D02*
X129742857Y-98460129D01*
X129742857Y-98460129D02*
X129783334Y-98500605D01*
X129783334Y-98500605D02*
X129823810Y-98581557D01*
X129823810Y-98581557D02*
X129823810Y-98702986D01*
X129823810Y-98702986D02*
X129783334Y-98783938D01*
X129783334Y-98783938D02*
X129742857Y-98824415D01*
X129742857Y-98824415D02*
X129661905Y-98864891D01*
X129661905Y-98864891D02*
X129338095Y-98864891D01*
X130188095Y-98824415D02*
X130471429Y-98824415D01*
X130592857Y-99269653D02*
X130188095Y-99269653D01*
X130188095Y-99269653D02*
X130188095Y-98419653D01*
X130188095Y-98419653D02*
X130592857Y-98419653D01*
X130835715Y-98419653D02*
X131119048Y-99269653D01*
X131119048Y-99269653D02*
X131402382Y-98419653D01*
X131685714Y-99188700D02*
X131726191Y-99229177D01*
X131726191Y-99229177D02*
X131685714Y-99269653D01*
X131685714Y-99269653D02*
X131645238Y-99229177D01*
X131645238Y-99229177D02*
X131685714Y-99188700D01*
X131685714Y-99188700D02*
X131685714Y-99269653D01*
X132697619Y-99026796D02*
X133102381Y-99026796D01*
X132616667Y-99269653D02*
X132900000Y-98419653D01*
X132900000Y-98419653D02*
X133183334Y-99269653D01*
D10*
X143438095Y-104397238D02*
X143342857Y-104349619D01*
X143342857Y-104349619D02*
X143200000Y-104349619D01*
X143200000Y-104349619D02*
X143057143Y-104397238D01*
X143057143Y-104397238D02*
X142961905Y-104492476D01*
X142961905Y-104492476D02*
X142914286Y-104587714D01*
X142914286Y-104587714D02*
X142866667Y-104778190D01*
X142866667Y-104778190D02*
X142866667Y-104921047D01*
X142866667Y-104921047D02*
X142914286Y-105111523D01*
X142914286Y-105111523D02*
X142961905Y-105206761D01*
X142961905Y-105206761D02*
X143057143Y-105302000D01*
X143057143Y-105302000D02*
X143200000Y-105349619D01*
X143200000Y-105349619D02*
X143295238Y-105349619D01*
X143295238Y-105349619D02*
X143438095Y-105302000D01*
X143438095Y-105302000D02*
X143485714Y-105254380D01*
X143485714Y-105254380D02*
X143485714Y-104921047D01*
X143485714Y-104921047D02*
X143295238Y-104921047D01*
X143914286Y-105349619D02*
X143914286Y-104349619D01*
X143914286Y-104349619D02*
X144485714Y-105349619D01*
X144485714Y-105349619D02*
X144485714Y-104349619D01*
X144961905Y-105349619D02*
X144961905Y-104349619D01*
X144961905Y-104349619D02*
X145200000Y-104349619D01*
X145200000Y-104349619D02*
X145342857Y-104397238D01*
X145342857Y-104397238D02*
X145438095Y-104492476D01*
X145438095Y-104492476D02*
X145485714Y-104587714D01*
X145485714Y-104587714D02*
X145533333Y-104778190D01*
X145533333Y-104778190D02*
X145533333Y-104921047D01*
X145533333Y-104921047D02*
X145485714Y-105111523D01*
X145485714Y-105111523D02*
X145438095Y-105206761D01*
X145438095Y-105206761D02*
X145342857Y-105302000D01*
X145342857Y-105302000D02*
X145200000Y-105349619D01*
X145200000Y-105349619D02*
X144961905Y-105349619D01*
X146666667Y-104349619D02*
X147000000Y-105349619D01*
X147000000Y-105349619D02*
X147333333Y-104349619D01*
X148238095Y-105254380D02*
X148190476Y-105302000D01*
X148190476Y-105302000D02*
X148047619Y-105349619D01*
X148047619Y-105349619D02*
X147952381Y-105349619D01*
X147952381Y-105349619D02*
X147809524Y-105302000D01*
X147809524Y-105302000D02*
X147714286Y-105206761D01*
X147714286Y-105206761D02*
X147666667Y-105111523D01*
X147666667Y-105111523D02*
X147619048Y-104921047D01*
X147619048Y-104921047D02*
X147619048Y-104778190D01*
X147619048Y-104778190D02*
X147666667Y-104587714D01*
X147666667Y-104587714D02*
X147714286Y-104492476D01*
X147714286Y-104492476D02*
X147809524Y-104397238D01*
X147809524Y-104397238D02*
X147952381Y-104349619D01*
X147952381Y-104349619D02*
X148047619Y-104349619D01*
X148047619Y-104349619D02*
X148190476Y-104397238D01*
X148190476Y-104397238D02*
X148238095Y-104444857D01*
X149238095Y-105254380D02*
X149190476Y-105302000D01*
X149190476Y-105302000D02*
X149047619Y-105349619D01*
X149047619Y-105349619D02*
X148952381Y-105349619D01*
X148952381Y-105349619D02*
X148809524Y-105302000D01*
X148809524Y-105302000D02*
X148714286Y-105206761D01*
X148714286Y-105206761D02*
X148666667Y-105111523D01*
X148666667Y-105111523D02*
X148619048Y-104921047D01*
X148619048Y-104921047D02*
X148619048Y-104778190D01*
X148619048Y-104778190D02*
X148666667Y-104587714D01*
X148666667Y-104587714D02*
X148714286Y-104492476D01*
X148714286Y-104492476D02*
X148809524Y-104397238D01*
X148809524Y-104397238D02*
X148952381Y-104349619D01*
X148952381Y-104349619D02*
X149047619Y-104349619D01*
X149047619Y-104349619D02*
X149190476Y-104397238D01*
X149190476Y-104397238D02*
X149238095Y-104444857D01*
X141271428Y-104825809D02*
X141414285Y-104873428D01*
X141414285Y-104873428D02*
X141461904Y-104921047D01*
X141461904Y-104921047D02*
X141509523Y-105016285D01*
X141509523Y-105016285D02*
X141509523Y-105159142D01*
X141509523Y-105159142D02*
X141461904Y-105254380D01*
X141461904Y-105254380D02*
X141414285Y-105302000D01*
X141414285Y-105302000D02*
X141319047Y-105349619D01*
X141319047Y-105349619D02*
X140938095Y-105349619D01*
X140938095Y-105349619D02*
X140938095Y-104349619D01*
X140938095Y-104349619D02*
X141271428Y-104349619D01*
X141271428Y-104349619D02*
X141366666Y-104397238D01*
X141366666Y-104397238D02*
X141414285Y-104444857D01*
X141414285Y-104444857D02*
X141461904Y-104540095D01*
X141461904Y-104540095D02*
X141461904Y-104635333D01*
X141461904Y-104635333D02*
X141414285Y-104730571D01*
X141414285Y-104730571D02*
X141366666Y-104778190D01*
X141366666Y-104778190D02*
X141271428Y-104825809D01*
X141271428Y-104825809D02*
X140938095Y-104825809D01*
X138661905Y-105063904D02*
X139138095Y-105063904D01*
X138566667Y-105349619D02*
X138900000Y-104349619D01*
X138900000Y-104349619D02*
X139233333Y-105349619D01*
D11*
X160438095Y-82054819D02*
X160438095Y-82864342D01*
X160438095Y-82864342D02*
X160485714Y-82959580D01*
X160485714Y-82959580D02*
X160533333Y-83007200D01*
X160533333Y-83007200D02*
X160628571Y-83054819D01*
X160628571Y-83054819D02*
X160819047Y-83054819D01*
X160819047Y-83054819D02*
X160914285Y-83007200D01*
X160914285Y-83007200D02*
X160961904Y-82959580D01*
X160961904Y-82959580D02*
X161009523Y-82864342D01*
X161009523Y-82864342D02*
X161009523Y-82054819D01*
X162009523Y-83054819D02*
X161438095Y-83054819D01*
X161723809Y-83054819D02*
X161723809Y-82054819D01*
X161723809Y-82054819D02*
X161628571Y-82197676D01*
X161628571Y-82197676D02*
X161533333Y-82292914D01*
X161533333Y-82292914D02*
X161438095Y-82340533D01*
X145978628Y-71276190D02*
X146454819Y-71276190D01*
X145454819Y-71609523D02*
X145978628Y-71276190D01*
X145978628Y-71276190D02*
X145454819Y-70942857D01*
X146454819Y-70085714D02*
X146454819Y-70657142D01*
X146454819Y-70371428D02*
X145454819Y-70371428D01*
X145454819Y-70371428D02*
X145597676Y-70466666D01*
X145597676Y-70466666D02*
X145692914Y-70561904D01*
X145692914Y-70561904D02*
X145740533Y-70657142D01*
X152159580Y-71967857D02*
X152207200Y-72015476D01*
X152207200Y-72015476D02*
X152254819Y-72158333D01*
X152254819Y-72158333D02*
X152254819Y-72253571D01*
X152254819Y-72253571D02*
X152207200Y-72396428D01*
X152207200Y-72396428D02*
X152111961Y-72491666D01*
X152111961Y-72491666D02*
X152016723Y-72539285D01*
X152016723Y-72539285D02*
X151826247Y-72586904D01*
X151826247Y-72586904D02*
X151683390Y-72586904D01*
X151683390Y-72586904D02*
X151492914Y-72539285D01*
X151492914Y-72539285D02*
X151397676Y-72491666D01*
X151397676Y-72491666D02*
X151302438Y-72396428D01*
X151302438Y-72396428D02*
X151254819Y-72253571D01*
X151254819Y-72253571D02*
X151254819Y-72158333D01*
X151254819Y-72158333D02*
X151302438Y-72015476D01*
X151302438Y-72015476D02*
X151350057Y-71967857D01*
X152254819Y-71015476D02*
X152254819Y-71586904D01*
X152254819Y-71301190D02*
X151254819Y-71301190D01*
X151254819Y-71301190D02*
X151397676Y-71396428D01*
X151397676Y-71396428D02*
X151492914Y-71491666D01*
X151492914Y-71491666D02*
X151540533Y-71586904D01*
X151350057Y-70634523D02*
X151302438Y-70586904D01*
X151302438Y-70586904D02*
X151254819Y-70491666D01*
X151254819Y-70491666D02*
X151254819Y-70253571D01*
X151254819Y-70253571D02*
X151302438Y-70158333D01*
X151302438Y-70158333D02*
X151350057Y-70110714D01*
X151350057Y-70110714D02*
X151445295Y-70063095D01*
X151445295Y-70063095D02*
X151540533Y-70063095D01*
X151540533Y-70063095D02*
X151683390Y-70110714D01*
X151683390Y-70110714D02*
X152254819Y-70682142D01*
X152254819Y-70682142D02*
X152254819Y-70063095D01*
X145533333Y-69359580D02*
X145485714Y-69407200D01*
X145485714Y-69407200D02*
X145342857Y-69454819D01*
X145342857Y-69454819D02*
X145247619Y-69454819D01*
X145247619Y-69454819D02*
X145104762Y-69407200D01*
X145104762Y-69407200D02*
X145009524Y-69311961D01*
X145009524Y-69311961D02*
X144961905Y-69216723D01*
X144961905Y-69216723D02*
X144914286Y-69026247D01*
X144914286Y-69026247D02*
X144914286Y-68883390D01*
X144914286Y-68883390D02*
X144961905Y-68692914D01*
X144961905Y-68692914D02*
X145009524Y-68597676D01*
X145009524Y-68597676D02*
X145104762Y-68502438D01*
X145104762Y-68502438D02*
X145247619Y-68454819D01*
X145247619Y-68454819D02*
X145342857Y-68454819D01*
X145342857Y-68454819D02*
X145485714Y-68502438D01*
X145485714Y-68502438D02*
X145533333Y-68550057D01*
X145914286Y-68550057D02*
X145961905Y-68502438D01*
X145961905Y-68502438D02*
X146057143Y-68454819D01*
X146057143Y-68454819D02*
X146295238Y-68454819D01*
X146295238Y-68454819D02*
X146390476Y-68502438D01*
X146390476Y-68502438D02*
X146438095Y-68550057D01*
X146438095Y-68550057D02*
X146485714Y-68645295D01*
X146485714Y-68645295D02*
X146485714Y-68740533D01*
X146485714Y-68740533D02*
X146438095Y-68883390D01*
X146438095Y-68883390D02*
X145866667Y-69454819D01*
X145866667Y-69454819D02*
X146485714Y-69454819D01*
X147533333Y-74459580D02*
X147485714Y-74507200D01*
X147485714Y-74507200D02*
X147342857Y-74554819D01*
X147342857Y-74554819D02*
X147247619Y-74554819D01*
X147247619Y-74554819D02*
X147104762Y-74507200D01*
X147104762Y-74507200D02*
X147009524Y-74411961D01*
X147009524Y-74411961D02*
X146961905Y-74316723D01*
X146961905Y-74316723D02*
X146914286Y-74126247D01*
X146914286Y-74126247D02*
X146914286Y-73983390D01*
X146914286Y-73983390D02*
X146961905Y-73792914D01*
X146961905Y-73792914D02*
X147009524Y-73697676D01*
X147009524Y-73697676D02*
X147104762Y-73602438D01*
X147104762Y-73602438D02*
X147247619Y-73554819D01*
X147247619Y-73554819D02*
X147342857Y-73554819D01*
X147342857Y-73554819D02*
X147485714Y-73602438D01*
X147485714Y-73602438D02*
X147533333Y-73650057D01*
X147866667Y-73554819D02*
X148533333Y-73554819D01*
X148533333Y-73554819D02*
X148104762Y-74554819D01*
X158043333Y-83744580D02*
X157995714Y-83792200D01*
X157995714Y-83792200D02*
X157852857Y-83839819D01*
X157852857Y-83839819D02*
X157757619Y-83839819D01*
X157757619Y-83839819D02*
X157614762Y-83792200D01*
X157614762Y-83792200D02*
X157519524Y-83696961D01*
X157519524Y-83696961D02*
X157471905Y-83601723D01*
X157471905Y-83601723D02*
X157424286Y-83411247D01*
X157424286Y-83411247D02*
X157424286Y-83268390D01*
X157424286Y-83268390D02*
X157471905Y-83077914D01*
X157471905Y-83077914D02*
X157519524Y-82982676D01*
X157519524Y-82982676D02*
X157614762Y-82887438D01*
X157614762Y-82887438D02*
X157757619Y-82839819D01*
X157757619Y-82839819D02*
X157852857Y-82839819D01*
X157852857Y-82839819D02*
X157995714Y-82887438D01*
X157995714Y-82887438D02*
X158043333Y-82935057D01*
X158900476Y-82839819D02*
X158710000Y-82839819D01*
X158710000Y-82839819D02*
X158614762Y-82887438D01*
X158614762Y-82887438D02*
X158567143Y-82935057D01*
X158567143Y-82935057D02*
X158471905Y-83077914D01*
X158471905Y-83077914D02*
X158424286Y-83268390D01*
X158424286Y-83268390D02*
X158424286Y-83649342D01*
X158424286Y-83649342D02*
X158471905Y-83744580D01*
X158471905Y-83744580D02*
X158519524Y-83792200D01*
X158519524Y-83792200D02*
X158614762Y-83839819D01*
X158614762Y-83839819D02*
X158805238Y-83839819D01*
X158805238Y-83839819D02*
X158900476Y-83792200D01*
X158900476Y-83792200D02*
X158948095Y-83744580D01*
X158948095Y-83744580D02*
X158995714Y-83649342D01*
X158995714Y-83649342D02*
X158995714Y-83411247D01*
X158995714Y-83411247D02*
X158948095Y-83316009D01*
X158948095Y-83316009D02*
X158900476Y-83268390D01*
X158900476Y-83268390D02*
X158805238Y-83220771D01*
X158805238Y-83220771D02*
X158614762Y-83220771D01*
X158614762Y-83220771D02*
X158519524Y-83268390D01*
X158519524Y-83268390D02*
X158471905Y-83316009D01*
X158471905Y-83316009D02*
X158424286Y-83411247D01*
X155254819Y-91738094D02*
X154254819Y-91738094D01*
X154254819Y-91738094D02*
X154254819Y-91499999D01*
X154254819Y-91499999D02*
X154302438Y-91357142D01*
X154302438Y-91357142D02*
X154397676Y-91261904D01*
X154397676Y-91261904D02*
X154492914Y-91214285D01*
X154492914Y-91214285D02*
X154683390Y-91166666D01*
X154683390Y-91166666D02*
X154826247Y-91166666D01*
X154826247Y-91166666D02*
X155016723Y-91214285D01*
X155016723Y-91214285D02*
X155111961Y-91261904D01*
X155111961Y-91261904D02*
X155207200Y-91357142D01*
X155207200Y-91357142D02*
X155254819Y-91499999D01*
X155254819Y-91499999D02*
X155254819Y-91738094D01*
X154350057Y-90785713D02*
X154302438Y-90738094D01*
X154302438Y-90738094D02*
X154254819Y-90642856D01*
X154254819Y-90642856D02*
X154254819Y-90404761D01*
X154254819Y-90404761D02*
X154302438Y-90309523D01*
X154302438Y-90309523D02*
X154350057Y-90261904D01*
X154350057Y-90261904D02*
X154445295Y-90214285D01*
X154445295Y-90214285D02*
X154540533Y-90214285D01*
X154540533Y-90214285D02*
X154683390Y-90261904D01*
X154683390Y-90261904D02*
X155254819Y-90833332D01*
X155254819Y-90833332D02*
X155254819Y-90214285D01*
X136238095Y-80254819D02*
X136238095Y-81064342D01*
X136238095Y-81064342D02*
X136285714Y-81159580D01*
X136285714Y-81159580D02*
X136333333Y-81207200D01*
X136333333Y-81207200D02*
X136428571Y-81254819D01*
X136428571Y-81254819D02*
X136619047Y-81254819D01*
X136619047Y-81254819D02*
X136714285Y-81207200D01*
X136714285Y-81207200D02*
X136761904Y-81159580D01*
X136761904Y-81159580D02*
X136809523Y-81064342D01*
X136809523Y-81064342D02*
X136809523Y-80254819D01*
X137190476Y-80254819D02*
X137809523Y-80254819D01*
X137809523Y-80254819D02*
X137476190Y-80635771D01*
X137476190Y-80635771D02*
X137619047Y-80635771D01*
X137619047Y-80635771D02*
X137714285Y-80683390D01*
X137714285Y-80683390D02*
X137761904Y-80731009D01*
X137761904Y-80731009D02*
X137809523Y-80826247D01*
X137809523Y-80826247D02*
X137809523Y-81064342D01*
X137809523Y-81064342D02*
X137761904Y-81159580D01*
X137761904Y-81159580D02*
X137714285Y-81207200D01*
X137714285Y-81207200D02*
X137619047Y-81254819D01*
X137619047Y-81254819D02*
X137333333Y-81254819D01*
X137333333Y-81254819D02*
X137238095Y-81207200D01*
X137238095Y-81207200D02*
X137190476Y-81159580D01*
X141638095Y-68654819D02*
X141638095Y-69464342D01*
X141638095Y-69464342D02*
X141685714Y-69559580D01*
X141685714Y-69559580D02*
X141733333Y-69607200D01*
X141733333Y-69607200D02*
X141828571Y-69654819D01*
X141828571Y-69654819D02*
X142019047Y-69654819D01*
X142019047Y-69654819D02*
X142114285Y-69607200D01*
X142114285Y-69607200D02*
X142161904Y-69559580D01*
X142161904Y-69559580D02*
X142209523Y-69464342D01*
X142209523Y-69464342D02*
X142209523Y-68654819D01*
X142638095Y-68750057D02*
X142685714Y-68702438D01*
X142685714Y-68702438D02*
X142780952Y-68654819D01*
X142780952Y-68654819D02*
X143019047Y-68654819D01*
X143019047Y-68654819D02*
X143114285Y-68702438D01*
X143114285Y-68702438D02*
X143161904Y-68750057D01*
X143161904Y-68750057D02*
X143209523Y-68845295D01*
X143209523Y-68845295D02*
X143209523Y-68940533D01*
X143209523Y-68940533D02*
X143161904Y-69083390D01*
X143161904Y-69083390D02*
X142590476Y-69654819D01*
X142590476Y-69654819D02*
X143209523Y-69654819D01*
X160654819Y-97938094D02*
X159654819Y-97938094D01*
X159654819Y-97938094D02*
X159654819Y-97699999D01*
X159654819Y-97699999D02*
X159702438Y-97557142D01*
X159702438Y-97557142D02*
X159797676Y-97461904D01*
X159797676Y-97461904D02*
X159892914Y-97414285D01*
X159892914Y-97414285D02*
X160083390Y-97366666D01*
X160083390Y-97366666D02*
X160226247Y-97366666D01*
X160226247Y-97366666D02*
X160416723Y-97414285D01*
X160416723Y-97414285D02*
X160511961Y-97461904D01*
X160511961Y-97461904D02*
X160607200Y-97557142D01*
X160607200Y-97557142D02*
X160654819Y-97699999D01*
X160654819Y-97699999D02*
X160654819Y-97938094D01*
X160654819Y-96414285D02*
X160654819Y-96985713D01*
X160654819Y-96699999D02*
X159654819Y-96699999D01*
X159654819Y-96699999D02*
X159797676Y-96795237D01*
X159797676Y-96795237D02*
X159892914Y-96890475D01*
X159892914Y-96890475D02*
X159940533Y-96985713D01*
X134533333Y-78659580D02*
X134485714Y-78707200D01*
X134485714Y-78707200D02*
X134342857Y-78754819D01*
X134342857Y-78754819D02*
X134247619Y-78754819D01*
X134247619Y-78754819D02*
X134104762Y-78707200D01*
X134104762Y-78707200D02*
X134009524Y-78611961D01*
X134009524Y-78611961D02*
X133961905Y-78516723D01*
X133961905Y-78516723D02*
X133914286Y-78326247D01*
X133914286Y-78326247D02*
X133914286Y-78183390D01*
X133914286Y-78183390D02*
X133961905Y-77992914D01*
X133961905Y-77992914D02*
X134009524Y-77897676D01*
X134009524Y-77897676D02*
X134104762Y-77802438D01*
X134104762Y-77802438D02*
X134247619Y-77754819D01*
X134247619Y-77754819D02*
X134342857Y-77754819D01*
X134342857Y-77754819D02*
X134485714Y-77802438D01*
X134485714Y-77802438D02*
X134533333Y-77850057D01*
X135390476Y-78088152D02*
X135390476Y-78754819D01*
X135152381Y-77707200D02*
X134914286Y-78421485D01*
X134914286Y-78421485D02*
X135533333Y-78421485D01*
X146504819Y-83566666D02*
X146028628Y-83899999D01*
X146504819Y-84138094D02*
X145504819Y-84138094D01*
X145504819Y-84138094D02*
X145504819Y-83757142D01*
X145504819Y-83757142D02*
X145552438Y-83661904D01*
X145552438Y-83661904D02*
X145600057Y-83614285D01*
X145600057Y-83614285D02*
X145695295Y-83566666D01*
X145695295Y-83566666D02*
X145838152Y-83566666D01*
X145838152Y-83566666D02*
X145933390Y-83614285D01*
X145933390Y-83614285D02*
X145981009Y-83661904D01*
X145981009Y-83661904D02*
X146028628Y-83757142D01*
X146028628Y-83757142D02*
X146028628Y-84138094D01*
X146504819Y-82614285D02*
X146504819Y-83185713D01*
X146504819Y-82899999D02*
X145504819Y-82899999D01*
X145504819Y-82899999D02*
X145647676Y-82995237D01*
X145647676Y-82995237D02*
X145742914Y-83090475D01*
X145742914Y-83090475D02*
X145790533Y-83185713D01*
X149733333Y-74459580D02*
X149685714Y-74507200D01*
X149685714Y-74507200D02*
X149542857Y-74554819D01*
X149542857Y-74554819D02*
X149447619Y-74554819D01*
X149447619Y-74554819D02*
X149304762Y-74507200D01*
X149304762Y-74507200D02*
X149209524Y-74411961D01*
X149209524Y-74411961D02*
X149161905Y-74316723D01*
X149161905Y-74316723D02*
X149114286Y-74126247D01*
X149114286Y-74126247D02*
X149114286Y-73983390D01*
X149114286Y-73983390D02*
X149161905Y-73792914D01*
X149161905Y-73792914D02*
X149209524Y-73697676D01*
X149209524Y-73697676D02*
X149304762Y-73602438D01*
X149304762Y-73602438D02*
X149447619Y-73554819D01*
X149447619Y-73554819D02*
X149542857Y-73554819D01*
X149542857Y-73554819D02*
X149685714Y-73602438D01*
X149685714Y-73602438D02*
X149733333Y-73650057D01*
X150638095Y-73554819D02*
X150161905Y-73554819D01*
X150161905Y-73554819D02*
X150114286Y-74031009D01*
X150114286Y-74031009D02*
X150161905Y-73983390D01*
X150161905Y-73983390D02*
X150257143Y-73935771D01*
X150257143Y-73935771D02*
X150495238Y-73935771D01*
X150495238Y-73935771D02*
X150590476Y-73983390D01*
X150590476Y-73983390D02*
X150638095Y-74031009D01*
X150638095Y-74031009D02*
X150685714Y-74126247D01*
X150685714Y-74126247D02*
X150685714Y-74364342D01*
X150685714Y-74364342D02*
X150638095Y-74459580D01*
X150638095Y-74459580D02*
X150590476Y-74507200D01*
X150590476Y-74507200D02*
X150495238Y-74554819D01*
X150495238Y-74554819D02*
X150257143Y-74554819D01*
X150257143Y-74554819D02*
X150161905Y-74507200D01*
X150161905Y-74507200D02*
X150114286Y-74459580D01*
X146504819Y-80166666D02*
X146028628Y-80499999D01*
X146504819Y-80738094D02*
X145504819Y-80738094D01*
X145504819Y-80738094D02*
X145504819Y-80357142D01*
X145504819Y-80357142D02*
X145552438Y-80261904D01*
X145552438Y-80261904D02*
X145600057Y-80214285D01*
X145600057Y-80214285D02*
X145695295Y-80166666D01*
X145695295Y-80166666D02*
X145838152Y-80166666D01*
X145838152Y-80166666D02*
X145933390Y-80214285D01*
X145933390Y-80214285D02*
X145981009Y-80261904D01*
X145981009Y-80261904D02*
X146028628Y-80357142D01*
X146028628Y-80357142D02*
X146028628Y-80738094D01*
X145504819Y-79261904D02*
X145504819Y-79738094D01*
X145504819Y-79738094D02*
X145981009Y-79785713D01*
X145981009Y-79785713D02*
X145933390Y-79738094D01*
X145933390Y-79738094D02*
X145885771Y-79642856D01*
X145885771Y-79642856D02*
X145885771Y-79404761D01*
X145885771Y-79404761D02*
X145933390Y-79309523D01*
X145933390Y-79309523D02*
X145981009Y-79261904D01*
X145981009Y-79261904D02*
X146076247Y-79214285D01*
X146076247Y-79214285D02*
X146314342Y-79214285D01*
X146314342Y-79214285D02*
X146409580Y-79261904D01*
X146409580Y-79261904D02*
X146457200Y-79309523D01*
X146457200Y-79309523D02*
X146504819Y-79404761D01*
X146504819Y-79404761D02*
X146504819Y-79642856D01*
X146504819Y-79642856D02*
X146457200Y-79738094D01*
X146457200Y-79738094D02*
X146409580Y-79785713D01*
X140457142Y-82459580D02*
X140409523Y-82507200D01*
X140409523Y-82507200D02*
X140266666Y-82554819D01*
X140266666Y-82554819D02*
X140171428Y-82554819D01*
X140171428Y-82554819D02*
X140028571Y-82507200D01*
X140028571Y-82507200D02*
X139933333Y-82411961D01*
X139933333Y-82411961D02*
X139885714Y-82316723D01*
X139885714Y-82316723D02*
X139838095Y-82126247D01*
X139838095Y-82126247D02*
X139838095Y-81983390D01*
X139838095Y-81983390D02*
X139885714Y-81792914D01*
X139885714Y-81792914D02*
X139933333Y-81697676D01*
X139933333Y-81697676D02*
X140028571Y-81602438D01*
X140028571Y-81602438D02*
X140171428Y-81554819D01*
X140171428Y-81554819D02*
X140266666Y-81554819D01*
X140266666Y-81554819D02*
X140409523Y-81602438D01*
X140409523Y-81602438D02*
X140457142Y-81650057D01*
X141409523Y-82554819D02*
X140838095Y-82554819D01*
X141123809Y-82554819D02*
X141123809Y-81554819D01*
X141123809Y-81554819D02*
X141028571Y-81697676D01*
X141028571Y-81697676D02*
X140933333Y-81792914D01*
X140933333Y-81792914D02*
X140838095Y-81840533D01*
X142028571Y-81554819D02*
X142123809Y-81554819D01*
X142123809Y-81554819D02*
X142219047Y-81602438D01*
X142219047Y-81602438D02*
X142266666Y-81650057D01*
X142266666Y-81650057D02*
X142314285Y-81745295D01*
X142314285Y-81745295D02*
X142361904Y-81935771D01*
X142361904Y-81935771D02*
X142361904Y-82173866D01*
X142361904Y-82173866D02*
X142314285Y-82364342D01*
X142314285Y-82364342D02*
X142266666Y-82459580D01*
X142266666Y-82459580D02*
X142219047Y-82507200D01*
X142219047Y-82507200D02*
X142123809Y-82554819D01*
X142123809Y-82554819D02*
X142028571Y-82554819D01*
X142028571Y-82554819D02*
X141933333Y-82507200D01*
X141933333Y-82507200D02*
X141885714Y-82459580D01*
X141885714Y-82459580D02*
X141838095Y-82364342D01*
X141838095Y-82364342D02*
X141790476Y-82173866D01*
X141790476Y-82173866D02*
X141790476Y-81935771D01*
X141790476Y-81935771D02*
X141838095Y-81745295D01*
X141838095Y-81745295D02*
X141885714Y-81650057D01*
X141885714Y-81650057D02*
X141933333Y-81602438D01*
X141933333Y-81602438D02*
X142028571Y-81554819D01*
X160533333Y-95459580D02*
X160485714Y-95507200D01*
X160485714Y-95507200D02*
X160342857Y-95554819D01*
X160342857Y-95554819D02*
X160247619Y-95554819D01*
X160247619Y-95554819D02*
X160104762Y-95507200D01*
X160104762Y-95507200D02*
X160009524Y-95411961D01*
X160009524Y-95411961D02*
X159961905Y-95316723D01*
X159961905Y-95316723D02*
X159914286Y-95126247D01*
X159914286Y-95126247D02*
X159914286Y-94983390D01*
X159914286Y-94983390D02*
X159961905Y-94792914D01*
X159961905Y-94792914D02*
X160009524Y-94697676D01*
X160009524Y-94697676D02*
X160104762Y-94602438D01*
X160104762Y-94602438D02*
X160247619Y-94554819D01*
X160247619Y-94554819D02*
X160342857Y-94554819D01*
X160342857Y-94554819D02*
X160485714Y-94602438D01*
X160485714Y-94602438D02*
X160533333Y-94650057D01*
X161485714Y-95554819D02*
X160914286Y-95554819D01*
X161200000Y-95554819D02*
X161200000Y-94554819D01*
X161200000Y-94554819D02*
X161104762Y-94697676D01*
X161104762Y-94697676D02*
X161009524Y-94792914D01*
X161009524Y-94792914D02*
X160914286Y-94840533D01*
X160533333Y-94059580D02*
X160485714Y-94107200D01*
X160485714Y-94107200D02*
X160342857Y-94154819D01*
X160342857Y-94154819D02*
X160247619Y-94154819D01*
X160247619Y-94154819D02*
X160104762Y-94107200D01*
X160104762Y-94107200D02*
X160009524Y-94011961D01*
X160009524Y-94011961D02*
X159961905Y-93916723D01*
X159961905Y-93916723D02*
X159914286Y-93726247D01*
X159914286Y-93726247D02*
X159914286Y-93583390D01*
X159914286Y-93583390D02*
X159961905Y-93392914D01*
X159961905Y-93392914D02*
X160009524Y-93297676D01*
X160009524Y-93297676D02*
X160104762Y-93202438D01*
X160104762Y-93202438D02*
X160247619Y-93154819D01*
X160247619Y-93154819D02*
X160342857Y-93154819D01*
X160342857Y-93154819D02*
X160485714Y-93202438D01*
X160485714Y-93202438D02*
X160533333Y-93250057D01*
X160866667Y-93154819D02*
X161485714Y-93154819D01*
X161485714Y-93154819D02*
X161152381Y-93535771D01*
X161152381Y-93535771D02*
X161295238Y-93535771D01*
X161295238Y-93535771D02*
X161390476Y-93583390D01*
X161390476Y-93583390D02*
X161438095Y-93631009D01*
X161438095Y-93631009D02*
X161485714Y-93726247D01*
X161485714Y-93726247D02*
X161485714Y-93964342D01*
X161485714Y-93964342D02*
X161438095Y-94059580D01*
X161438095Y-94059580D02*
X161390476Y-94107200D01*
X161390476Y-94107200D02*
X161295238Y-94154819D01*
X161295238Y-94154819D02*
X161009524Y-94154819D01*
X161009524Y-94154819D02*
X160914286Y-94107200D01*
X160914286Y-94107200D02*
X160866667Y-94059580D01*
X152454819Y-83161904D02*
X153264342Y-83161904D01*
X153264342Y-83161904D02*
X153359580Y-83114285D01*
X153359580Y-83114285D02*
X153407200Y-83066666D01*
X153407200Y-83066666D02*
X153454819Y-82971428D01*
X153454819Y-82971428D02*
X153454819Y-82780952D01*
X153454819Y-82780952D02*
X153407200Y-82685714D01*
X153407200Y-82685714D02*
X153359580Y-82638095D01*
X153359580Y-82638095D02*
X153264342Y-82590476D01*
X153264342Y-82590476D02*
X152454819Y-82590476D01*
X152788152Y-81685714D02*
X153454819Y-81685714D01*
X152407200Y-81923809D02*
X153121485Y-82161904D01*
X153121485Y-82161904D02*
X153121485Y-81542857D01*
X152185714Y-74486104D02*
X152147618Y-74524200D01*
X152147618Y-74524200D02*
X152033333Y-74562295D01*
X152033333Y-74562295D02*
X151957142Y-74562295D01*
X151957142Y-74562295D02*
X151842856Y-74524200D01*
X151842856Y-74524200D02*
X151766666Y-74448009D01*
X151766666Y-74448009D02*
X151728571Y-74371819D01*
X151728571Y-74371819D02*
X151690475Y-74219438D01*
X151690475Y-74219438D02*
X151690475Y-74105152D01*
X151690475Y-74105152D02*
X151728571Y-73952771D01*
X151728571Y-73952771D02*
X151766666Y-73876580D01*
X151766666Y-73876580D02*
X151842856Y-73800390D01*
X151842856Y-73800390D02*
X151957142Y-73762295D01*
X151957142Y-73762295D02*
X152033333Y-73762295D01*
X152033333Y-73762295D02*
X152147618Y-73800390D01*
X152147618Y-73800390D02*
X152185714Y-73838485D01*
X152947618Y-74562295D02*
X152490475Y-74562295D01*
X152719047Y-74562295D02*
X152719047Y-73762295D01*
X152719047Y-73762295D02*
X152642856Y-73876580D01*
X152642856Y-73876580D02*
X152566666Y-73952771D01*
X152566666Y-73952771D02*
X152490475Y-73990866D01*
X153214285Y-73762295D02*
X153709523Y-73762295D01*
X153709523Y-73762295D02*
X153442857Y-74067057D01*
X153442857Y-74067057D02*
X153557142Y-74067057D01*
X153557142Y-74067057D02*
X153633333Y-74105152D01*
X153633333Y-74105152D02*
X153671428Y-74143247D01*
X153671428Y-74143247D02*
X153709523Y-74219438D01*
X153709523Y-74219438D02*
X153709523Y-74409914D01*
X153709523Y-74409914D02*
X153671428Y-74486104D01*
X153671428Y-74486104D02*
X153633333Y-74524200D01*
X153633333Y-74524200D02*
X153557142Y-74562295D01*
X153557142Y-74562295D02*
X153328571Y-74562295D01*
X153328571Y-74562295D02*
X153252380Y-74524200D01*
X153252380Y-74524200D02*
X153214285Y-74486104D01*
X131554819Y-75966666D02*
X131554819Y-76442856D01*
X131554819Y-76442856D02*
X130554819Y-76442856D01*
X131554819Y-75109523D02*
X131554819Y-75680951D01*
X131554819Y-75395237D02*
X130554819Y-75395237D01*
X130554819Y-75395237D02*
X130697676Y-75490475D01*
X130697676Y-75490475D02*
X130792914Y-75585713D01*
X130792914Y-75585713D02*
X130840533Y-75680951D01*
X155863333Y-83744580D02*
X155815714Y-83792200D01*
X155815714Y-83792200D02*
X155672857Y-83839819D01*
X155672857Y-83839819D02*
X155577619Y-83839819D01*
X155577619Y-83839819D02*
X155434762Y-83792200D01*
X155434762Y-83792200D02*
X155339524Y-83696961D01*
X155339524Y-83696961D02*
X155291905Y-83601723D01*
X155291905Y-83601723D02*
X155244286Y-83411247D01*
X155244286Y-83411247D02*
X155244286Y-83268390D01*
X155244286Y-83268390D02*
X155291905Y-83077914D01*
X155291905Y-83077914D02*
X155339524Y-82982676D01*
X155339524Y-82982676D02*
X155434762Y-82887438D01*
X155434762Y-82887438D02*
X155577619Y-82839819D01*
X155577619Y-82839819D02*
X155672857Y-82839819D01*
X155672857Y-82839819D02*
X155815714Y-82887438D01*
X155815714Y-82887438D02*
X155863333Y-82935057D01*
X156434762Y-83268390D02*
X156339524Y-83220771D01*
X156339524Y-83220771D02*
X156291905Y-83173152D01*
X156291905Y-83173152D02*
X156244286Y-83077914D01*
X156244286Y-83077914D02*
X156244286Y-83030295D01*
X156244286Y-83030295D02*
X156291905Y-82935057D01*
X156291905Y-82935057D02*
X156339524Y-82887438D01*
X156339524Y-82887438D02*
X156434762Y-82839819D01*
X156434762Y-82839819D02*
X156625238Y-82839819D01*
X156625238Y-82839819D02*
X156720476Y-82887438D01*
X156720476Y-82887438D02*
X156768095Y-82935057D01*
X156768095Y-82935057D02*
X156815714Y-83030295D01*
X156815714Y-83030295D02*
X156815714Y-83077914D01*
X156815714Y-83077914D02*
X156768095Y-83173152D01*
X156768095Y-83173152D02*
X156720476Y-83220771D01*
X156720476Y-83220771D02*
X156625238Y-83268390D01*
X156625238Y-83268390D02*
X156434762Y-83268390D01*
X156434762Y-83268390D02*
X156339524Y-83316009D01*
X156339524Y-83316009D02*
X156291905Y-83363628D01*
X156291905Y-83363628D02*
X156244286Y-83458866D01*
X156244286Y-83458866D02*
X156244286Y-83649342D01*
X156244286Y-83649342D02*
X156291905Y-83744580D01*
X156291905Y-83744580D02*
X156339524Y-83792200D01*
X156339524Y-83792200D02*
X156434762Y-83839819D01*
X156434762Y-83839819D02*
X156625238Y-83839819D01*
X156625238Y-83839819D02*
X156720476Y-83792200D01*
X156720476Y-83792200D02*
X156768095Y-83744580D01*
X156768095Y-83744580D02*
X156815714Y-83649342D01*
X156815714Y-83649342D02*
X156815714Y-83458866D01*
X156815714Y-83458866D02*
X156768095Y-83363628D01*
X156768095Y-83363628D02*
X156720476Y-83316009D01*
X156720476Y-83316009D02*
X156625238Y-83268390D01*
X152985714Y-79959580D02*
X152947618Y-80007200D01*
X152947618Y-80007200D02*
X152833333Y-80054819D01*
X152833333Y-80054819D02*
X152757142Y-80054819D01*
X152757142Y-80054819D02*
X152642856Y-80007200D01*
X152642856Y-80007200D02*
X152566666Y-79911961D01*
X152566666Y-79911961D02*
X152528571Y-79816723D01*
X152528571Y-79816723D02*
X152490475Y-79626247D01*
X152490475Y-79626247D02*
X152490475Y-79483390D01*
X152490475Y-79483390D02*
X152528571Y-79292914D01*
X152528571Y-79292914D02*
X152566666Y-79197676D01*
X152566666Y-79197676D02*
X152642856Y-79102438D01*
X152642856Y-79102438D02*
X152757142Y-79054819D01*
X152757142Y-79054819D02*
X152833333Y-79054819D01*
X152833333Y-79054819D02*
X152947618Y-79102438D01*
X152947618Y-79102438D02*
X152985714Y-79150057D01*
X153747618Y-80054819D02*
X153290475Y-80054819D01*
X153519047Y-80054819D02*
X153519047Y-79054819D01*
X153519047Y-79054819D02*
X153442856Y-79197676D01*
X153442856Y-79197676D02*
X153366666Y-79292914D01*
X153366666Y-79292914D02*
X153290475Y-79340533D01*
X154433333Y-79388152D02*
X154433333Y-80054819D01*
X154242857Y-79007200D02*
X154052380Y-79721485D01*
X154052380Y-79721485D02*
X154547619Y-79721485D01*
X133459580Y-72666666D02*
X133507200Y-72714285D01*
X133507200Y-72714285D02*
X133554819Y-72857142D01*
X133554819Y-72857142D02*
X133554819Y-72952380D01*
X133554819Y-72952380D02*
X133507200Y-73095237D01*
X133507200Y-73095237D02*
X133411961Y-73190475D01*
X133411961Y-73190475D02*
X133316723Y-73238094D01*
X133316723Y-73238094D02*
X133126247Y-73285713D01*
X133126247Y-73285713D02*
X132983390Y-73285713D01*
X132983390Y-73285713D02*
X132792914Y-73238094D01*
X132792914Y-73238094D02*
X132697676Y-73190475D01*
X132697676Y-73190475D02*
X132602438Y-73095237D01*
X132602438Y-73095237D02*
X132554819Y-72952380D01*
X132554819Y-72952380D02*
X132554819Y-72857142D01*
X132554819Y-72857142D02*
X132602438Y-72714285D01*
X132602438Y-72714285D02*
X132650057Y-72666666D01*
X133554819Y-72190475D02*
X133554819Y-71999999D01*
X133554819Y-71999999D02*
X133507200Y-71904761D01*
X133507200Y-71904761D02*
X133459580Y-71857142D01*
X133459580Y-71857142D02*
X133316723Y-71761904D01*
X133316723Y-71761904D02*
X133126247Y-71714285D01*
X133126247Y-71714285D02*
X132745295Y-71714285D01*
X132745295Y-71714285D02*
X132650057Y-71761904D01*
X132650057Y-71761904D02*
X132602438Y-71809523D01*
X132602438Y-71809523D02*
X132554819Y-71904761D01*
X132554819Y-71904761D02*
X132554819Y-72095237D01*
X132554819Y-72095237D02*
X132602438Y-72190475D01*
X132602438Y-72190475D02*
X132650057Y-72238094D01*
X132650057Y-72238094D02*
X132745295Y-72285713D01*
X132745295Y-72285713D02*
X132983390Y-72285713D01*
X132983390Y-72285713D02*
X133078628Y-72238094D01*
X133078628Y-72238094D02*
X133126247Y-72190475D01*
X133126247Y-72190475D02*
X133173866Y-72095237D01*
X133173866Y-72095237D02*
X133173866Y-71904761D01*
X133173866Y-71904761D02*
X133126247Y-71809523D01*
X133126247Y-71809523D02*
X133078628Y-71761904D01*
X133078628Y-71761904D02*
X132983390Y-71714285D01*
X131233333Y-80054819D02*
X130900000Y-79578628D01*
X130661905Y-80054819D02*
X130661905Y-79054819D01*
X130661905Y-79054819D02*
X131042857Y-79054819D01*
X131042857Y-79054819D02*
X131138095Y-79102438D01*
X131138095Y-79102438D02*
X131185714Y-79150057D01*
X131185714Y-79150057D02*
X131233333Y-79245295D01*
X131233333Y-79245295D02*
X131233333Y-79388152D01*
X131233333Y-79388152D02*
X131185714Y-79483390D01*
X131185714Y-79483390D02*
X131138095Y-79531009D01*
X131138095Y-79531009D02*
X131042857Y-79578628D01*
X131042857Y-79578628D02*
X130661905Y-79578628D01*
X132090476Y-79388152D02*
X132090476Y-80054819D01*
X131852381Y-79007200D02*
X131614286Y-79721485D01*
X131614286Y-79721485D02*
X132233333Y-79721485D01*
X139059580Y-88742857D02*
X139107200Y-88790476D01*
X139107200Y-88790476D02*
X139154819Y-88933333D01*
X139154819Y-88933333D02*
X139154819Y-89028571D01*
X139154819Y-89028571D02*
X139107200Y-89171428D01*
X139107200Y-89171428D02*
X139011961Y-89266666D01*
X139011961Y-89266666D02*
X138916723Y-89314285D01*
X138916723Y-89314285D02*
X138726247Y-89361904D01*
X138726247Y-89361904D02*
X138583390Y-89361904D01*
X138583390Y-89361904D02*
X138392914Y-89314285D01*
X138392914Y-89314285D02*
X138297676Y-89266666D01*
X138297676Y-89266666D02*
X138202438Y-89171428D01*
X138202438Y-89171428D02*
X138154819Y-89028571D01*
X138154819Y-89028571D02*
X138154819Y-88933333D01*
X138154819Y-88933333D02*
X138202438Y-88790476D01*
X138202438Y-88790476D02*
X138250057Y-88742857D01*
X139154819Y-87790476D02*
X139154819Y-88361904D01*
X139154819Y-88076190D02*
X138154819Y-88076190D01*
X138154819Y-88076190D02*
X138297676Y-88171428D01*
X138297676Y-88171428D02*
X138392914Y-88266666D01*
X138392914Y-88266666D02*
X138440533Y-88361904D01*
X139154819Y-86838095D02*
X139154819Y-87409523D01*
X139154819Y-87123809D02*
X138154819Y-87123809D01*
X138154819Y-87123809D02*
X138297676Y-87219047D01*
X138297676Y-87219047D02*
X138392914Y-87314285D01*
X138392914Y-87314285D02*
X138440533Y-87409523D01*
X143954819Y-82166666D02*
X143478628Y-82499999D01*
X143954819Y-82738094D02*
X142954819Y-82738094D01*
X142954819Y-82738094D02*
X142954819Y-82357142D01*
X142954819Y-82357142D02*
X143002438Y-82261904D01*
X143002438Y-82261904D02*
X143050057Y-82214285D01*
X143050057Y-82214285D02*
X143145295Y-82166666D01*
X143145295Y-82166666D02*
X143288152Y-82166666D01*
X143288152Y-82166666D02*
X143383390Y-82214285D01*
X143383390Y-82214285D02*
X143431009Y-82261904D01*
X143431009Y-82261904D02*
X143478628Y-82357142D01*
X143478628Y-82357142D02*
X143478628Y-82738094D01*
X143050057Y-81785713D02*
X143002438Y-81738094D01*
X143002438Y-81738094D02*
X142954819Y-81642856D01*
X142954819Y-81642856D02*
X142954819Y-81404761D01*
X142954819Y-81404761D02*
X143002438Y-81309523D01*
X143002438Y-81309523D02*
X143050057Y-81261904D01*
X143050057Y-81261904D02*
X143145295Y-81214285D01*
X143145295Y-81214285D02*
X143240533Y-81214285D01*
X143240533Y-81214285D02*
X143383390Y-81261904D01*
X143383390Y-81261904D02*
X143954819Y-81833332D01*
X143954819Y-81833332D02*
X143954819Y-81214285D01*
X145454819Y-89330357D02*
X144978628Y-89663690D01*
X145454819Y-89901785D02*
X144454819Y-89901785D01*
X144454819Y-89901785D02*
X144454819Y-89520833D01*
X144454819Y-89520833D02*
X144502438Y-89425595D01*
X144502438Y-89425595D02*
X144550057Y-89377976D01*
X144550057Y-89377976D02*
X144645295Y-89330357D01*
X144645295Y-89330357D02*
X144788152Y-89330357D01*
X144788152Y-89330357D02*
X144883390Y-89377976D01*
X144883390Y-89377976D02*
X144931009Y-89425595D01*
X144931009Y-89425595D02*
X144978628Y-89520833D01*
X144978628Y-89520833D02*
X144978628Y-89901785D01*
X145454819Y-88377976D02*
X145454819Y-88949404D01*
X145454819Y-88663690D02*
X144454819Y-88663690D01*
X144454819Y-88663690D02*
X144597676Y-88758928D01*
X144597676Y-88758928D02*
X144692914Y-88854166D01*
X144692914Y-88854166D02*
X144740533Y-88949404D01*
X145454819Y-87425595D02*
X145454819Y-87997023D01*
X145454819Y-87711309D02*
X144454819Y-87711309D01*
X144454819Y-87711309D02*
X144597676Y-87806547D01*
X144597676Y-87806547D02*
X144692914Y-87901785D01*
X144692914Y-87901785D02*
X144740533Y-87997023D01*
X137754819Y-91700594D02*
X136754819Y-91700594D01*
X136754819Y-91700594D02*
X136754819Y-91462499D01*
X136754819Y-91462499D02*
X136802438Y-91319642D01*
X136802438Y-91319642D02*
X136897676Y-91224404D01*
X136897676Y-91224404D02*
X136992914Y-91176785D01*
X136992914Y-91176785D02*
X137183390Y-91129166D01*
X137183390Y-91129166D02*
X137326247Y-91129166D01*
X137326247Y-91129166D02*
X137516723Y-91176785D01*
X137516723Y-91176785D02*
X137611961Y-91224404D01*
X137611961Y-91224404D02*
X137707200Y-91319642D01*
X137707200Y-91319642D02*
X137754819Y-91462499D01*
X137754819Y-91462499D02*
X137754819Y-91700594D01*
X137088152Y-90272023D02*
X137754819Y-90272023D01*
X136707200Y-90510118D02*
X137421485Y-90748213D01*
X137421485Y-90748213D02*
X137421485Y-90129166D01*
X154139580Y-87792857D02*
X154187200Y-87840476D01*
X154187200Y-87840476D02*
X154234819Y-87983333D01*
X154234819Y-87983333D02*
X154234819Y-88078571D01*
X154234819Y-88078571D02*
X154187200Y-88221428D01*
X154187200Y-88221428D02*
X154091961Y-88316666D01*
X154091961Y-88316666D02*
X153996723Y-88364285D01*
X153996723Y-88364285D02*
X153806247Y-88411904D01*
X153806247Y-88411904D02*
X153663390Y-88411904D01*
X153663390Y-88411904D02*
X153472914Y-88364285D01*
X153472914Y-88364285D02*
X153377676Y-88316666D01*
X153377676Y-88316666D02*
X153282438Y-88221428D01*
X153282438Y-88221428D02*
X153234819Y-88078571D01*
X153234819Y-88078571D02*
X153234819Y-87983333D01*
X153234819Y-87983333D02*
X153282438Y-87840476D01*
X153282438Y-87840476D02*
X153330057Y-87792857D01*
X154234819Y-86840476D02*
X154234819Y-87411904D01*
X154234819Y-87126190D02*
X153234819Y-87126190D01*
X153234819Y-87126190D02*
X153377676Y-87221428D01*
X153377676Y-87221428D02*
X153472914Y-87316666D01*
X153472914Y-87316666D02*
X153520533Y-87411904D01*
X153234819Y-85983333D02*
X153234819Y-86173809D01*
X153234819Y-86173809D02*
X153282438Y-86269047D01*
X153282438Y-86269047D02*
X153330057Y-86316666D01*
X153330057Y-86316666D02*
X153472914Y-86411904D01*
X153472914Y-86411904D02*
X153663390Y-86459523D01*
X153663390Y-86459523D02*
X154044342Y-86459523D01*
X154044342Y-86459523D02*
X154139580Y-86411904D01*
X154139580Y-86411904D02*
X154187200Y-86364285D01*
X154187200Y-86364285D02*
X154234819Y-86269047D01*
X154234819Y-86269047D02*
X154234819Y-86078571D01*
X154234819Y-86078571D02*
X154187200Y-85983333D01*
X154187200Y-85983333D02*
X154139580Y-85935714D01*
X154139580Y-85935714D02*
X154044342Y-85888095D01*
X154044342Y-85888095D02*
X153806247Y-85888095D01*
X153806247Y-85888095D02*
X153711009Y-85935714D01*
X153711009Y-85935714D02*
X153663390Y-85983333D01*
X153663390Y-85983333D02*
X153615771Y-86078571D01*
X153615771Y-86078571D02*
X153615771Y-86269047D01*
X153615771Y-86269047D02*
X153663390Y-86364285D01*
X153663390Y-86364285D02*
X153711009Y-86411904D01*
X153711009Y-86411904D02*
X153806247Y-86459523D01*
X148457142Y-88339580D02*
X148409523Y-88387200D01*
X148409523Y-88387200D02*
X148266666Y-88434819D01*
X148266666Y-88434819D02*
X148171428Y-88434819D01*
X148171428Y-88434819D02*
X148028571Y-88387200D01*
X148028571Y-88387200D02*
X147933333Y-88291961D01*
X147933333Y-88291961D02*
X147885714Y-88196723D01*
X147885714Y-88196723D02*
X147838095Y-88006247D01*
X147838095Y-88006247D02*
X147838095Y-87863390D01*
X147838095Y-87863390D02*
X147885714Y-87672914D01*
X147885714Y-87672914D02*
X147933333Y-87577676D01*
X147933333Y-87577676D02*
X148028571Y-87482438D01*
X148028571Y-87482438D02*
X148171428Y-87434819D01*
X148171428Y-87434819D02*
X148266666Y-87434819D01*
X148266666Y-87434819D02*
X148409523Y-87482438D01*
X148409523Y-87482438D02*
X148457142Y-87530057D01*
X149409523Y-88434819D02*
X148838095Y-88434819D01*
X149123809Y-88434819D02*
X149123809Y-87434819D01*
X149123809Y-87434819D02*
X149028571Y-87577676D01*
X149028571Y-87577676D02*
X148933333Y-87672914D01*
X148933333Y-87672914D02*
X148838095Y-87720533D01*
X150314285Y-87434819D02*
X149838095Y-87434819D01*
X149838095Y-87434819D02*
X149790476Y-87911009D01*
X149790476Y-87911009D02*
X149838095Y-87863390D01*
X149838095Y-87863390D02*
X149933333Y-87815771D01*
X149933333Y-87815771D02*
X150171428Y-87815771D01*
X150171428Y-87815771D02*
X150266666Y-87863390D01*
X150266666Y-87863390D02*
X150314285Y-87911009D01*
X150314285Y-87911009D02*
X150361904Y-88006247D01*
X150361904Y-88006247D02*
X150361904Y-88244342D01*
X150361904Y-88244342D02*
X150314285Y-88339580D01*
X150314285Y-88339580D02*
X150266666Y-88387200D01*
X150266666Y-88387200D02*
X150171428Y-88434819D01*
X150171428Y-88434819D02*
X149933333Y-88434819D01*
X149933333Y-88434819D02*
X149838095Y-88387200D01*
X149838095Y-88387200D02*
X149790476Y-88339580D01*
X146954819Y-89330357D02*
X146478628Y-89663690D01*
X146954819Y-89901785D02*
X145954819Y-89901785D01*
X145954819Y-89901785D02*
X145954819Y-89520833D01*
X145954819Y-89520833D02*
X146002438Y-89425595D01*
X146002438Y-89425595D02*
X146050057Y-89377976D01*
X146050057Y-89377976D02*
X146145295Y-89330357D01*
X146145295Y-89330357D02*
X146288152Y-89330357D01*
X146288152Y-89330357D02*
X146383390Y-89377976D01*
X146383390Y-89377976D02*
X146431009Y-89425595D01*
X146431009Y-89425595D02*
X146478628Y-89520833D01*
X146478628Y-89520833D02*
X146478628Y-89901785D01*
X146954819Y-88377976D02*
X146954819Y-88949404D01*
X146954819Y-88663690D02*
X145954819Y-88663690D01*
X145954819Y-88663690D02*
X146097676Y-88758928D01*
X146097676Y-88758928D02*
X146192914Y-88854166D01*
X146192914Y-88854166D02*
X146240533Y-88949404D01*
X145954819Y-87758928D02*
X145954819Y-87663690D01*
X145954819Y-87663690D02*
X146002438Y-87568452D01*
X146002438Y-87568452D02*
X146050057Y-87520833D01*
X146050057Y-87520833D02*
X146145295Y-87473214D01*
X146145295Y-87473214D02*
X146335771Y-87425595D01*
X146335771Y-87425595D02*
X146573866Y-87425595D01*
X146573866Y-87425595D02*
X146764342Y-87473214D01*
X146764342Y-87473214D02*
X146859580Y-87520833D01*
X146859580Y-87520833D02*
X146907200Y-87568452D01*
X146907200Y-87568452D02*
X146954819Y-87663690D01*
X146954819Y-87663690D02*
X146954819Y-87758928D01*
X146954819Y-87758928D02*
X146907200Y-87854166D01*
X146907200Y-87854166D02*
X146859580Y-87901785D01*
X146859580Y-87901785D02*
X146764342Y-87949404D01*
X146764342Y-87949404D02*
X146573866Y-87997023D01*
X146573866Y-87997023D02*
X146335771Y-87997023D01*
X146335771Y-87997023D02*
X146145295Y-87949404D01*
X146145295Y-87949404D02*
X146050057Y-87901785D01*
X146050057Y-87901785D02*
X146002438Y-87854166D01*
X146002438Y-87854166D02*
X145954819Y-87758928D01*
D12*
%TO.C,U1*%
X159390000Y-84300000D02*
X159390000Y-87900000D01*
X159401522Y-84261522D02*
G75*
G02*
X163840000Y-86100000I1838478J-1838478D01*
G01*
X163840000Y-86100000D02*
G75*
G02*
X159401522Y-87938478I-2600000J0D01*
G01*
%TO.C,Y1*%
X146850000Y-70050000D02*
X146850000Y-72750000D01*
X149150000Y-70050000D02*
X146850000Y-70050000D01*
%TO.C,C12*%
X150710000Y-71465580D02*
X150710000Y-71184420D01*
X149690000Y-71465580D02*
X149690000Y-71184420D01*
%TO.C,C2*%
X148084420Y-69510000D02*
X148365580Y-69510000D01*
X148084420Y-68490000D02*
X148365580Y-68490000D01*
%TO.C,C7*%
X148435000Y-76238748D02*
X148435000Y-76761252D01*
X146965000Y-76238748D02*
X146965000Y-76761252D01*
%TO.C,C6*%
X157465000Y-85518748D02*
X157465000Y-86041252D01*
X158935000Y-85518748D02*
X158935000Y-86041252D01*
%TO.C,D2*%
X157462500Y-89390000D02*
X156812500Y-89390000D01*
X157462500Y-89390000D02*
X158112500Y-89390000D01*
X157462500Y-92510000D02*
X156812500Y-92510000D01*
X157462500Y-92510000D02*
X158112500Y-92510000D01*
X158865000Y-92790000D02*
X158385000Y-92790000D01*
X158625000Y-92460000D01*
X158865000Y-92790000D01*
G36*
X158865000Y-92790000D02*
G01*
X158385000Y-92790000D01*
X158625000Y-92460000D01*
X158865000Y-92790000D01*
G37*
%TO.C,U3*%
X132340000Y-85200000D02*
X132340000Y-83250000D01*
X132340000Y-85200000D02*
X132340000Y-87150000D01*
X137460000Y-85200000D02*
X137460000Y-81750000D01*
X137460000Y-85200000D02*
X137460000Y-87150000D01*
D11*
%TO.C,U2*%
X144825000Y-78825000D02*
X144825000Y-78600000D01*
X144825000Y-78825000D02*
X144500000Y-78825000D01*
X144825000Y-78600000D02*
X146250000Y-78600000D01*
X144825000Y-71575000D02*
X144825000Y-71900000D01*
X144825000Y-71575000D02*
X144500000Y-71575000D01*
X137575000Y-78825000D02*
X137900000Y-78825000D01*
X137575000Y-78825000D02*
X137575000Y-78500000D01*
X137575000Y-71575000D02*
X137900000Y-71575000D01*
X137575000Y-71575000D02*
X137575000Y-71900000D01*
D12*
%TO.C,D1*%
X156050000Y-92900000D02*
X156050000Y-98300000D01*
X159350000Y-92900000D02*
X156050000Y-92900000D01*
X159350000Y-92900000D02*
X159350000Y-98300000D01*
%TO.C,J4*%
X144860000Y-102960000D02*
X144860000Y-103700000D01*
X144860000Y-103700000D02*
X145360000Y-103700000D01*
X145100000Y-93539000D02*
X145100000Y-103460000D01*
X145100000Y-93539000D02*
X155380000Y-93539000D01*
X145100000Y-96499000D02*
X155380000Y-96499000D01*
X145100000Y-101400000D02*
X155380000Y-101400000D01*
X145100000Y-102900000D02*
X155380000Y-102900000D01*
X145100000Y-103460000D02*
X155380000Y-103460000D01*
X151553000Y-99823000D02*
X151506000Y-99869000D01*
X151746000Y-100039000D02*
X151711000Y-100074000D01*
X153850000Y-97525000D02*
X153815000Y-97561000D01*
X154055000Y-97731000D02*
X154008000Y-97777000D01*
X155380000Y-93539000D02*
X155380000Y-103460000D01*
X146164574Y-99483042D02*
G75*
G02*
X146165001Y-98116001I1535419J683041D01*
G01*
X147016958Y-97264574D02*
G75*
G02*
X148383999Y-97265001I683041J-1535419D01*
G01*
X147728805Y-100480252D02*
G75*
G02*
X147016000Y-100334999I-28806J1680253D01*
G01*
X148383318Y-100334755D02*
G75*
G02*
X147700000Y-100479999I-683318J1534755D01*
G01*
X149235426Y-98116958D02*
G75*
G02*
X149235000Y-99484000I-1535426J-683042D01*
G01*
X154460000Y-98800000D02*
G75*
G02*
X151100000Y-98800000I-1680000J0D01*
G01*
X151100000Y-98800000D02*
G75*
G02*
X154460000Y-98800000I1680000J0D01*
G01*
%TO.C,C4*%
X135435000Y-75488748D02*
X135435000Y-76011252D01*
X133965000Y-75488748D02*
X133965000Y-76011252D01*
%TO.C,R1*%
X148435000Y-83627064D02*
X148435000Y-83172936D01*
X146965000Y-83627064D02*
X146965000Y-83172936D01*
%TO.C,C5*%
X150535000Y-76238748D02*
X150535000Y-76761252D01*
X149065000Y-76238748D02*
X149065000Y-76761252D01*
%TO.C,R5*%
X148435000Y-80227064D02*
X148435000Y-79772936D01*
X146965000Y-80227064D02*
X146965000Y-79772936D01*
%TO.C,C10*%
X140765000Y-84861252D02*
X140765000Y-84338748D01*
X142235000Y-84861252D02*
X142235000Y-84338748D01*
%TO.C,C1*%
X161238748Y-91165000D02*
X161761252Y-91165000D01*
X161238748Y-92635000D02*
X161761252Y-92635000D01*
%TO.C,J3*%
X133660000Y-102960000D02*
X133660000Y-103700000D01*
X133660000Y-103700000D02*
X134160000Y-103700000D01*
X133900000Y-93539000D02*
X133900000Y-103460000D01*
X133900000Y-93539000D02*
X144180000Y-93539000D01*
X133900000Y-96499000D02*
X144180000Y-96499000D01*
X133900000Y-101400000D02*
X144180000Y-101400000D01*
X133900000Y-102900000D02*
X144180000Y-102900000D01*
X133900000Y-103460000D02*
X144180000Y-103460000D01*
X140353000Y-99823000D02*
X140306000Y-99869000D01*
X140546000Y-100039000D02*
X140511000Y-100074000D01*
X142650000Y-97525000D02*
X142615000Y-97561000D01*
X142855000Y-97731000D02*
X142808000Y-97777000D01*
X144180000Y-93539000D02*
X144180000Y-103460000D01*
X134964574Y-99483042D02*
G75*
G02*
X134965001Y-98116001I1535419J683041D01*
G01*
X135816958Y-97264574D02*
G75*
G02*
X137183999Y-97265001I683041J-1535419D01*
G01*
X136528805Y-100480252D02*
G75*
G02*
X135816000Y-100334999I-28806J1680253D01*
G01*
X137183318Y-100334755D02*
G75*
G02*
X136500000Y-100479999I-683318J1534755D01*
G01*
X138035426Y-98116958D02*
G75*
G02*
X138035000Y-99484000I-1535426J-683042D01*
G01*
X143260000Y-98800000D02*
G75*
G02*
X139900000Y-98800000I-1680000J0D01*
G01*
X139900000Y-98800000D02*
G75*
G02*
X143260000Y-98800000I1680000J0D01*
G01*
%TO.C,J1*%
X126170000Y-88609999D02*
X131370000Y-88610000D01*
X126170000Y-83470001D02*
X126170000Y-88609999D01*
X126170000Y-83470001D02*
X128770000Y-83470000D01*
X128770000Y-83470000D02*
X128770001Y-80870000D01*
X126170000Y-82200000D02*
X126170000Y-80870000D01*
X126170000Y-80870000D02*
X127500000Y-80870000D01*
X128770001Y-80870000D02*
X131370000Y-80870000D01*
X131370000Y-80870000D02*
X131370000Y-88610000D01*
%TO.C,C3*%
X161238748Y-90635000D02*
X161761252Y-90635000D01*
X161238748Y-89165000D02*
X161761252Y-89165000D01*
%TO.C,U4*%
X149100000Y-84350000D02*
X148770000Y-84590000D01*
X148770000Y-84110000D01*
X149100000Y-84350000D01*
G36*
X149100000Y-84350000D02*
G01*
X148770000Y-84590000D01*
X148770000Y-84110000D01*
X149100000Y-84350000D01*
G37*
D11*
X152125000Y-80625000D02*
X151900000Y-80625000D01*
X148875000Y-80625000D02*
X149100000Y-80625000D01*
X152125000Y-83875000D02*
X152125000Y-80625000D01*
X152125000Y-83875000D02*
X151900000Y-83875000D01*
X148875000Y-83875000D02*
X148875000Y-80625000D01*
X148875000Y-83875000D02*
X149100000Y-83875000D01*
D12*
%TO.C,C13*%
X153011252Y-75015000D02*
X152488748Y-75015000D01*
X153011252Y-76485000D02*
X152488748Y-76485000D01*
%TO.C,L1*%
X131965000Y-75572936D02*
X131965000Y-76027064D01*
X133435000Y-75572936D02*
X133435000Y-76027064D01*
%TO.C,C8*%
X155365000Y-85518748D02*
X155365000Y-86041252D01*
X156835000Y-85518748D02*
X156835000Y-86041252D01*
%TO.C,C14*%
X152961252Y-77065000D02*
X152438748Y-77065000D01*
X152961252Y-78535000D02*
X152438748Y-78535000D01*
%TO.C,C9*%
X133965000Y-72511252D02*
X133965000Y-71988748D01*
X135435000Y-72511252D02*
X135435000Y-71988748D01*
%TO.C,R4*%
X134427064Y-81135000D02*
X133972936Y-81135000D01*
X134427064Y-79665000D02*
X133972936Y-79665000D01*
%TO.C,C11*%
X138665000Y-85261252D02*
X138665000Y-84738748D01*
X140135000Y-85261252D02*
X140135000Y-84738748D01*
%TO.C,R2*%
X142765000Y-84827064D02*
X142765000Y-84372936D01*
X144235000Y-84827064D02*
X144235000Y-84372936D01*
%TO.C,R11*%
X139945000Y-88914564D02*
X139945000Y-88460436D01*
X141415000Y-88914564D02*
X141415000Y-88460436D01*
%TO.C,D4*%
X136460000Y-89287500D02*
X136460000Y-90962500D01*
X136460000Y-91612500D02*
X136460000Y-90962500D01*
X133340000Y-90312500D02*
X133340000Y-90962500D01*
X133340000Y-91612500D02*
X133340000Y-90962500D01*
%TO.C,C16*%
X152835000Y-86888748D02*
X152835000Y-87411252D01*
X151365000Y-86888748D02*
X151365000Y-87411252D01*
%TO.C,C15*%
X149361252Y-85565000D02*
X148838748Y-85565000D01*
X149361252Y-87035000D02*
X148838748Y-87035000D01*
%TO.C,R10*%
X143955000Y-88914564D02*
X143955000Y-88460436D01*
X142485000Y-88914564D02*
X142485000Y-88460436D01*
%TD*%
M02*
